<svg xmlns="http://www.w3.org/2000/svg" xmlns:xlink="http://www.w3.org/1999/xlink" width="1500" zoomAndPan="magnify" viewBox="0 0 1125 374.999991" height="500" preserveAspectRatio="xMidYMid meet" version="1.0"><defs><g/><clipPath id="71a7792ad6"><path d="M 37.867188 31.5 L 348.570312 31.5 L 348.570312 342.203125 L 37.867188 342.203125 Z M 37.867188 31.5 " clip-rule="nonzero"/></clipPath><clipPath id="092494f45e"><path d="M 193.21875 31.5 C 107.417969 31.5 37.867188 101.054688 37.867188 186.851562 C 37.867188 272.648438 107.417969 342.203125 193.21875 342.203125 C 279.015625 342.203125 348.570312 272.648438 348.570312 186.851562 C 348.570312 101.054688 279.015625 31.5 193.21875 31.5 " clip-rule="nonzero"/></clipPath><clipPath id="74e113b518"><path d="M 37 76 L 303 76 L 303 342 L 37 342 Z M 37 76 " clip-rule="nonzero"/></clipPath><clipPath id="8f2f7d55f5"><path d="M 83.078125 76.949219 L 302.636719 296.507812 L 192.859375 406.285156 L -26.699219 186.730469 Z M 83.078125 76.949219 " clip-rule="nonzero"/></clipPath><clipPath id="4a9af45c6f"><path d="M 83.078125 76.949219 L 302.636719 296.507812 L 192.859375 406.285156 L -26.699219 186.730469 Z M 83.078125 76.949219 " clip-rule="nonzero"/></clipPath><clipPath id="854be5ee8e"><path d="M 83.078125 76.949219 L 302.636719 296.507812 L 192.859375 406.285156 L -26.699219 186.730469 Z M 83.078125 76.949219 " clip-rule="nonzero"/></clipPath></defs><g fill="#003366" fill-opacity="1"><g transform="translate(367.511708, 227.249985)"><g><path d="M 50.578125 -41.9375 C 50.578125 -48.019531 50.015625 -52.941406 48.890625 -56.703125 C 47.773438 -60.460938 46.265625 -63.34375 44.359375 -65.34375 C 42.460938 -67.34375 40.285156 -68.703125 37.828125 -69.421875 C 35.367188 -70.140625 32.800781 -70.5 30.125 -70.5 L 24.1875 -70.5 L 24.1875 -12.421875 L 30.1875 -12.421875 C 32.976562 -12.421875 35.601562 -12.859375 38.0625 -13.734375 C 40.53125 -14.617188 42.703125 -16.140625 44.578125 -18.296875 C 46.460938 -20.460938 47.929688 -23.460938 48.984375 -27.296875 C 50.046875 -31.140625 50.578125 -36.019531 50.578125 -41.9375 Z M 68.09375 -41.9375 C 68.09375 -33.414062 66.984375 -26.414062 64.765625 -20.9375 C 62.546875 -15.457031 59.554688 -11.195312 55.796875 -8.15625 C 52.035156 -5.113281 47.816406 -2.992188 43.140625 -1.796875 C 38.460938 -0.597656 33.660156 0 28.734375 0 L 7.4375 0 L 7.4375 -82.984375 L 27.359375 -82.984375 C 32.515625 -82.984375 37.523438 -82.441406 42.390625 -81.359375 C 47.253906 -80.273438 51.625 -78.265625 55.5 -75.328125 C 59.375 -72.390625 62.441406 -68.238281 64.703125 -62.875 C 66.960938 -57.519531 68.09375 -50.539062 68.09375 -41.9375 Z M 68.09375 -41.9375 "/></g></g></g><g fill="#003366" fill-opacity="1"><g transform="translate(439.511634, 227.249985)"><g><path d="M 60.59375 -16.921875 C 60.59375 -14.484375 60.941406 -12.710938 61.640625 -11.609375 C 62.347656 -10.503906 63.484375 -9.675781 65.046875 -9.125 L 61.625 1.6875 C 58.175781 1.320312 55.242188 0.484375 52.828125 -0.828125 C 50.410156 -2.148438 48.5625 -4.175781 47.28125 -6.90625 C 44.882812 -3.976562 41.84375 -1.785156 38.15625 -0.328125 C 34.476562 1.128906 30.640625 1.859375 26.640625 1.859375 C 20.160156 1.859375 15.007812 0.0078125 11.1875 -3.6875 C 7.363281 -7.382812 5.453125 -12.175781 5.453125 -18.0625 C 5.453125 -24.863281 8.113281 -30.09375 13.4375 -33.75 C 18.757812 -37.40625 26.300781 -39.234375 36.0625 -39.234375 L 44.8125 -39.234375 L 44.8125 -42.546875 C 44.8125 -46.265625 43.660156 -48.960938 41.359375 -50.640625 C 39.066406 -52.316406 35.78125 -53.15625 31.5 -53.15625 C 29.414062 -53.15625 26.84375 -52.875 23.78125 -52.3125 C 20.726562 -51.757812 17.582031 -50.941406 14.34375 -49.859375 L 10.5 -60.90625 C 14.539062 -62.425781 18.628906 -63.554688 22.765625 -64.296875 C 26.910156 -65.035156 30.660156 -65.40625 34.015625 -65.40625 C 43.015625 -65.40625 49.691406 -63.503906 54.046875 -59.703125 C 58.410156 -55.898438 60.59375 -50.519531 60.59375 -43.5625 Z M 31.921875 -9.90625 C 34.316406 -9.90625 36.722656 -10.5625 39.140625 -11.875 C 41.566406 -13.195312 43.457031 -15.078125 44.8125 -17.515625 L 44.8125 -29.703125 L 38.765625 -29.703125 C 32.960938 -29.703125 28.769531 -28.769531 26.1875 -26.90625 C 23.601562 -25.050781 22.3125 -22.398438 22.3125 -18.953125 C 22.3125 -16.078125 23.128906 -13.847656 24.765625 -12.265625 C 26.410156 -10.691406 28.796875 -9.90625 31.921875 -9.90625 Z M 31.921875 -9.90625 "/></g></g></g><g fill="#003366" fill-opacity="1"><g transform="translate(511.511561, 227.249985)"><g><path d="M 10.140625 0 L 10.140625 -11.15625 L 18.953125 -11.15625 L 18.953125 -52.4375 L 10.140625 -52.4375 L 10.140625 -63.546875 L 31.3125 -63.546875 L 34.3125 -49.015625 C 36.632812 -54.421875 39.554688 -58.484375 43.078125 -61.203125 C 46.597656 -63.921875 51.019531 -65.28125 56.34375 -65.28125 C 58.382812 -65.28125 60.191406 -65.128906 61.765625 -64.828125 C 63.347656 -64.523438 64.878906 -64.097656 66.359375 -63.546875 L 61.4375 -49.984375 C 60.238281 -50.296875 59.066406 -50.53125 57.921875 -50.6875 C 56.785156 -50.851562 55.519531 -50.9375 54.125 -50.9375 C 49.757812 -50.9375 45.957031 -49.234375 42.71875 -45.828125 C 39.476562 -42.429688 36.957031 -37.835938 35.15625 -32.046875 L 35.15625 -11.15625 L 47.875 -11.15625 L 47.875 0 Z M 52.6875 -38.515625 L 52.6875 -55.625 L 54.953125 -63.546875 L 66.359375 -63.546875 L 63.484375 -38.515625 Z M 52.6875 -38.515625 "/></g></g></g><g fill="#003366" fill-opacity="1"><g transform="translate(583.511487, 227.249985)"><g><path d="M 61.375 0 L 42.546875 0 L 36.1875 -43.921875 L 29.515625 0 L 11.046875 0 L 0.953125 -63.546875 L 16.078125 -63.546875 L 21.484375 -10.078125 L 29.21875 -55.5 L 43.921875 -55.5 L 51 -10.078125 L 56.453125 -63.546875 L 71.046875 -63.546875 Z M 61.375 0 "/></g></g></g><g fill="#003366" fill-opacity="1"><g transform="translate(655.511413, 227.249985)"><g><path d="M 46.3125 -63.546875 L 46.3125 -11.40625 L 63 -11.40625 L 63 0 L 11.640625 0 L 11.640625 -11.40625 L 30.125 -11.40625 L 30.125 -52.140625 L 12.234375 -52.140625 L 12.234375 -63.546875 Z M 35.9375 -95.765625 C 38.894531 -95.765625 41.296875 -94.84375 43.140625 -93 C 44.984375 -91.15625 45.90625 -88.894531 45.90625 -86.21875 C 45.90625 -83.457031 44.984375 -81.15625 43.140625 -79.3125 C 41.296875 -77.476562 38.894531 -76.5625 35.9375 -76.5625 C 32.976562 -76.5625 30.566406 -77.476562 28.703125 -79.3125 C 26.847656 -81.15625 25.921875 -83.457031 25.921875 -86.21875 C 25.921875 -88.894531 26.847656 -91.15625 28.703125 -93 C 30.566406 -94.84375 32.976562 -95.765625 35.9375 -95.765625 Z M 35.9375 -95.765625 "/></g></g></g><g fill="#003366" fill-opacity="1"><g transform="translate(727.511339, 227.249985)"><g><path d="M 9.546875 0 L 9.546875 -63.546875 L 23.640625 -63.546875 L 24.78125 -55.734375 C 27.539062 -58.941406 30.597656 -61.351562 33.953125 -62.96875 C 37.316406 -64.59375 40.957031 -65.40625 44.875 -65.40625 C 50.5625 -65.40625 54.921875 -63.753906 57.953125 -60.453125 C 60.992188 -57.148438 62.515625 -52.5 62.515625 -46.5 L 62.515625 0 L 46.3125 0 L 46.3125 -40.4375 C 46.3125 -43.5625 46.113281 -46.070312 45.71875 -47.96875 C 45.320312 -49.863281 44.570312 -51.222656 43.46875 -52.046875 C 42.363281 -52.867188 40.773438 -53.28125 38.703125 -53.28125 C 37.023438 -53.28125 35.414062 -52.921875 33.875 -52.203125 C 32.332031 -51.484375 30.878906 -50.492188 29.515625 -49.234375 C 28.160156 -47.972656 26.898438 -46.5625 25.734375 -45 L 25.734375 0 Z M 9.546875 0 "/></g></g></g><g fill="#000000" fill-opacity="1"><g transform="translate(799.499961, 227.249985)"><g><path d="M 23.453125 -10.6875 C 23.453125 -12.957031 24.007812 -15.039062 25.125 -16.9375 C 26.25 -18.84375 27.757812 -20.351562 29.65625 -21.46875 C 31.5625 -22.59375 33.65625 -23.15625 35.9375 -23.15625 C 38.300781 -23.15625 40.421875 -22.59375 42.296875 -21.46875 C 44.179688 -20.351562 45.679688 -18.84375 46.796875 -16.9375 C 47.921875 -15.039062 48.484375 -12.957031 48.484375 -10.6875 C 48.484375 -8.4375 47.921875 -6.351562 46.796875 -4.4375 C 45.679688 -2.519531 44.179688 -0.992188 42.296875 0.140625 C 40.421875 1.285156 38.300781 1.859375 35.9375 1.859375 C 33.65625 1.859375 31.5625 1.285156 29.65625 0.140625 C 27.757812 -0.992188 26.25 -2.519531 25.125 -4.4375 C 24.007812 -6.351562 23.453125 -8.4375 23.453125 -10.6875 Z M 23.453125 -10.6875 "/></g></g></g><g fill="#000000" fill-opacity="1"><g transform="translate(871.499887, 227.249985)"><g><path d="M 43.625 0 L 19.4375 -68.703125 C 19.632812 -67.179688 19.875 -65.207031 20.15625 -62.78125 C 20.4375 -60.363281 20.71875 -57.632812 21 -54.59375 C 21.28125 -51.5625 21.507812 -48.332031 21.6875 -44.90625 C 21.863281 -41.488281 21.953125 -38.019531 21.953125 -34.5 L 21.953125 0 L 7.4375 0 L 7.4375 -82.984375 L 28.734375 -82.984375 L 52.5625 -14.453125 C 52.238281 -16.535156 51.875 -19.265625 51.46875 -22.640625 C 51.070312 -26.023438 50.734375 -29.882812 50.453125 -34.21875 C 50.179688 -38.5625 50.046875 -43.21875 50.046875 -48.1875 L 50.046875 -82.984375 L 64.5625 -82.984375 L 64.5625 0 Z M 43.625 0 "/></g></g></g><g fill="#000000" fill-opacity="1"><g transform="translate(943.499814, 227.249985)"><g><path d="M 23.34375 -26.875 C 23.695312 -22.957031 24.613281 -19.78125 26.09375 -17.34375 C 27.570312 -14.90625 29.484375 -13.125 31.828125 -12 C 34.171875 -10.875 36.757812 -10.3125 39.59375 -10.3125 C 42.632812 -10.3125 45.492188 -10.789062 48.171875 -11.75 C 50.859375 -12.71875 53.5 -14.039062 56.09375 -15.71875 L 62.8125 -6.546875 C 59.851562 -4.054688 56.3125 -2.03125 52.1875 -0.46875 C 48.070312 1.082031 43.535156 1.859375 38.578125 1.859375 C 31.617188 1.859375 25.78125 0.429688 21.0625 -2.421875 C 16.34375 -5.285156 12.769531 -9.238281 10.34375 -14.28125 C 7.925781 -19.320312 6.71875 -25.140625 6.71875 -31.734375 C 6.71875 -38.015625 7.894531 -43.703125 10.25 -48.796875 C 12.613281 -53.898438 16.035156 -57.941406 20.515625 -60.921875 C 24.992188 -63.910156 30.394531 -65.40625 36.71875 -65.40625 C 42.5625 -65.40625 47.617188 -64.125 51.890625 -61.5625 C 56.171875 -59 59.472656 -55.316406 61.796875 -50.515625 C 64.117188 -45.710938 65.28125 -39.953125 65.28125 -33.234375 C 65.28125 -32.160156 65.257812 -31.050781 65.21875 -29.90625 C 65.175781 -28.769531 65.097656 -27.757812 64.984375 -26.875 Z M 36.78125 -54.0625 C 32.976562 -54.0625 29.863281 -52.703125 27.4375 -49.984375 C 25.019531 -47.265625 23.59375 -42.984375 23.15625 -37.140625 L 49.5625 -37.140625 C 49.476562 -42.421875 48.382812 -46.5625 46.28125 -49.5625 C 44.1875 -52.5625 41.019531 -54.0625 36.78125 -54.0625 Z M 36.78125 -54.0625 "/></g></g></g><g fill="#000000" fill-opacity="1"><g transform="translate(1015.49974, 227.249985)"><g><path d="M 64.6875 -3.546875 C 62.28125 -2.023438 59.382812 -0.742188 56 0.296875 C 52.625 1.335938 48.957031 1.859375 45 1.859375 C 37.15625 1.859375 31.273438 -0.164062 27.359375 -4.21875 C 23.441406 -8.28125 21.484375 -13.691406 21.484375 -20.453125 L 21.484375 -52.078125 L 7.734375 -52.078125 L 7.734375 -63.546875 L 21.484375 -63.546875 L 21.484375 -77.515625 L 37.6875 -79.4375 L 37.6875 -63.546875 L 58.5625 -63.546875 L 56.9375 -52.078125 L 37.6875 -52.078125 L 37.6875 -20.515625 C 37.6875 -17.234375 38.460938 -14.84375 40.015625 -13.34375 C 41.578125 -11.84375 44.117188 -11.09375 47.640625 -11.09375 C 49.921875 -11.09375 52.007812 -11.363281 53.90625 -11.90625 C 55.8125 -12.445312 57.539062 -13.140625 59.09375 -13.984375 Z M 64.6875 -3.546875 "/></g></g></g><g clip-path="url(#71a7792ad6)"><g clip-path="url(#092494f45e)"><path fill="#02284d" d="M 37.867188 31.5 L 348.570312 31.5 L 348.570312 342.203125 L 37.867188 342.203125 Z M 37.867188 31.5 " fill-opacity="1" fill-rule="nonzero"/></g></g><g clip-path="url(#74e113b518)"><g clip-path="url(#8f2f7d55f5)"><g clip-path="url(#4a9af45c6f)"><g clip-path="url(#854be5ee8e)"><path fill="#003366" d="M 83.078125 296.503906 C 143.707031 357.128906 242.003906 357.128906 302.632812 296.503906 L 83.082031 76.953125 C 22.457031 137.582031 22.453125 235.878906 83.078125 296.503906 Z M 83.078125 296.503906 " fill-opacity="1" fill-rule="nonzero"/></g></g></g></g><path fill="#000000" d="M 147.847656 184.894531 L 145.089844 185.320312 L 142.753906 186.589844 L 140.421875 188.28125 L 136.601562 192.519531 L 134.902344 194.636719 L 133.417969 196.332031 L 131.933594 197.605469 L 130.871094 198.238281 L 129.597656 199.085938 L 127.6875 200.144531 L 125.566406 201.414062 L 120.472656 204.382812 L 114.957031 207.554688 L 109.652344 210.734375 L 107.316406 212.003906 L 105.195312 213.277344 L 103.5 214.335938 L 102.226562 214.972656 L 101.164062 215.394531 L 100.953125 215.605469 L 100.953125 215.816406 L 101.164062 216.453125 L 101.589844 217.722656 L 102.011719 219.417969 L 102.648438 221.324219 L 103.285156 223.65625 L 104.132812 226.410156 L 105.195312 229.375 L 107.953125 236.152344 L 111.347656 243.777344 L 115.59375 252.035156 L 120.6875 260.507812 L 126.839844 268.984375 L 133.84375 277.242188 L 137.875 281.265625 L 141.90625 285.078125 L 146.363281 288.679688 L 151.242188 292.070312 L 156.125 295.246094 L 161.640625 298 L 167.15625 300.542969 L 173.101562 302.871094 L 179.464844 304.566406 L 186.042969 306.046875 L 193.046875 307.109375 L 200.261719 307.53125 L 205.566406 307.53125 L 210.871094 307.109375 L 215.964844 306.472656 L 220.84375 305.414062 L 225.300781 304.140625 L 229.96875 302.660156 L 238.246094 298.847656 L 246.097656 294.398438 L 252.886719 289.101562 L 259.253906 283.597656 L 264.984375 277.878906 L 269.863281 272.160156 L 274.105469 266.652344 L 277.503906 261.359375 L 280.472656 256.695312 L 282.808594 252.671875 L 283.65625 250.980469 L 284.929688 248.4375 L 285.351562 247.589844 L 285.566406 247.164062 L 285.566406 246.953125 L 285.351562 246.742188 L 284.503906 246.320312 L 283.445312 245.683594 L 281.957031 244.835938 L 278.140625 242.503906 L 273.683594 239.964844 L 269.015625 237.210938 L 264.984375 234.457031 L 263.285156 233.1875 L 261.800781 232.128906 L 260.738281 231.28125 L 260.101562 230.644531 L 259.464844 229.796875 L 259.039062 229.160156 L 258.828125 228.738281 L 259.679688 228.738281 L 260.953125 229.160156 L 261.375 229.160156 L 261.375 228.738281 L 260.527344 227.46875 L 259.679688 226.621094 L 258.828125 225.5625 L 257.554688 223.867188 L 258.191406 224.503906 L 258.828125 224.503906 L 259.464844 224.078125 L 259.679688 223.867188 L 259.253906 223.65625 L 258.617188 223.019531 L 257.980469 222.171875 L 257.554688 221.324219 L 257.128906 220.265625 L 256.28125 218.785156 L 255.433594 217.511719 L 255.007812 216.664062 L 255.433594 215.816406 L 255.644531 215.183594 L 255.222656 214.125 L 255.007812 213.066406 L 255.644531 212.429688 L 256.28125 212.003906 L 256.496094 212.003906 L 256.070312 211.582031 L 255.433594 210.523438 L 254.796875 209.042969 L 254.371094 207.554688 L 256.28125 206.921875 L 256.28125 206.710938 L 256.070312 206.074219 L 255.644531 203.957031 L 255.433594 203.324219 L 255.007812 202.472656 L 253.523438 200.78125 L 252.039062 198.660156 L 251.613281 197.605469 L 251.402344 196.753906 L 251.402344 196.121094 L 251.613281 195.90625 L 251.828125 195.90625 L 252.675781 196.542969 L 252.886719 196.121094 L 253.3125 193.578125 L 253.734375 192.519531 L 254.371094 191.671875 L 254.796875 190.613281 L 254.796875 189.34375 L 254.585938 188.492188 L 254.585938 188.070312 L 255.222656 188.070312 L 255.855469 188.28125 L 256.28125 188.28125 L 256.496094 187.859375 L 256.496094 186.800781 L 256.070312 185.320312 L 255.433594 184.46875 L 254.585938 183.835938 L 255.222656 184.257812 L 256.070312 184.46875 L 256.496094 184.683594 L 256.28125 184.257812 L 256.070312 182.988281 L 255.007812 179.8125 L 255.007812 178.328125 L 255.855469 176.210938 L 256.28125 174.09375 L 256.28125 173.246094 L 255.855469 172.398438 L 254.796875 170.914062 L 253.949219 169.007812 L 253.734375 166.890625 L 253.949219 164.347656 L 254.160156 162.867188 L 254.371094 160.960938 L 254.160156 156.9375 L 254.160156 155.027344 L 253.949219 153.546875 L 253.734375 152.488281 L 253.734375 152.0625 L 253.949219 151.851562 L 254.160156 151.214844 L 255.222656 149.3125 L 256.070312 146.980469 L 256.707031 145.074219 L 257.34375 143.804688 L 258.402344 143.167969 L 259.464844 143.167969 L 260.101562 143.59375 L 260.738281 144.015625 L 261.375 144.015625 L 262.011719 143.59375 L 262.222656 142.957031 L 262.222656 142.109375 L 262.4375 141.261719 L 262.4375 140.625 L 262.222656 139.992188 L 261.585938 139.144531 L 259.890625 136.601562 L 259.679688 136.179688 L 259.679688 132.578125 L 259.464844 128.765625 L 259.253906 124.316406 L 258.617188 114.996094 L 257.980469 110.972656 L 257.554688 109.492188 L 257.128906 108.21875 L 256.707031 106.949219 L 255.855469 105.464844 L 253.949219 101.65625 L 251.1875 97.207031 L 247.792969 92.332031 L 244.1875 87.25 L 240.367188 82.589844 L 236.125 78.566406 L 232.089844 75.601562 L 229.96875 74.332031 L 227.421875 73.058594 L 221.480469 70.519531 L 214.265625 68.1875 L 205.992188 66.496094 L 201.746094 66.070312 L 197.078125 65.859375 L 192.410156 65.859375 L 187.53125 66.28125 L 182.648438 67.128906 L 177.554688 68.398438 L 172.25 70.09375 L 167.15625 72.425781 L 162.277344 74.964844 L 158.035156 77.71875 L 154.214844 80.472656 L 151.03125 83.4375 L 148.058594 86.191406 L 145.726562 89.15625 L 143.605469 91.910156 L 141.695312 94.875 L 138.9375 100.171875 L 136.8125 105.042969 L 134.902344 108.855469 L 133.207031 111.820312 L 131.722656 113.726562 L 130.660156 114.996094 L 130.234375 115.632812 L 130.449219 115.84375 L 131.296875 115.632812 L 132.570312 114.996094 L 132.78125 114.996094 L 132.78125 115.632812 L 132.355469 116.480469 L 131.507812 117.539062 L 129.597656 119.65625 L 128.539062 120.503906 L 127.476562 120.71875 L 126.628906 120.929688 L 126.414062 121.140625 L 126.628906 121.988281 L 126.839844 122.621094 L 126.628906 122.835938 L 125.777344 122.835938 L 125.566406 123.46875 L 125.566406 124.105469 L 125.777344 124.527344 L 126.414062 124.953125 L 128.113281 125.164062 L 130.660156 124.742188 L 130.449219 125.589844 L 130.023438 126.222656 L 128.324219 127.28125 L 126.203125 127.707031 L 124.503906 127.917969 L 123.871094 127.917969 L 123.65625 128.339844 L 123.65625 129.824219 L 123.234375 130.25 L 122.597656 130.25 L 121.960938 130.460938 L 121.960938 130.882812 L 122.171875 131.730469 L 123.019531 132.367188 L 124.929688 133.636719 L 126.203125 133.847656 L 127.6875 133.636719 L 127.265625 134.90625 L 126.414062 136.179688 L 124.929688 137.238281 L 122.597656 137.875 L 123.445312 138.71875 L 124.503906 139.144531 L 125.566406 139.144531 L 125.140625 139.566406 L 123.871094 140.414062 L 122.597656 141.050781 L 121.324219 141.472656 L 121.109375 141.683594 L 121.109375 142.109375 L 121.746094 143.59375 L 123.445312 145.074219 L 124.503906 145.496094 L 125.777344 145.710938 L 124.71875 146.980469 L 123.445312 147.40625 L 121.746094 147.40625 L 121.746094 147.617188 L 122.171875 147.828125 L 123.445312 148.886719 L 124.71875 149.734375 L 125.777344 150.160156 L 125.992188 150.371094 L 126.203125 151.003906 L 126.414062 152.699219 L 126.839844 154.394531 L 127.265625 155.027344 L 127.6875 155.242188 L 128.539062 155.878906 L 128.75 157.148438 L 128.324219 158.207031 L 127.6875 158.628906 L 126.839844 158.84375 L 126.203125 159.054688 L 126.203125 159.265625 L 126.839844 159.691406 L 127.902344 160.324219 L 130.234375 161.171875 L 131.507812 161.171875 L 132.570312 160.960938 L 134.054688 160.960938 L 135.539062 161.808594 L 136.8125 162.867188 L 138.300781 163.289062 L 140.847656 163.925781 L 142.96875 164.984375 L 143.390625 165.621094 L 144.027344 166.679688 L 145.089844 169.855469 L 146.148438 172.820312 L 146.785156 174.09375 L 147.210938 174.726562 Z M 147.847656 184.894531 " fill-opacity="1" fill-rule="evenodd"/><path fill="#003366" d="M 148.484375 185.53125 L 146.574219 186.375 L 145.089844 187.859375 L 143.816406 189.976562 L 143.179688 192.519531 L 142.753906 195.273438 L 142.542969 198.449219 L 142.96875 205.652344 L 144.453125 213.699219 L 146.574219 221.75 L 149.121094 230.011719 L 152.089844 237.421875 L 153.789062 241.445312 L 156.125 245.894531 L 158.882812 250.980469 L 162.066406 256.484375 L 168.644531 267.921875 L 175.859375 279.570312 L 179.253906 285.078125 L 182.4375 290.375 L 185.40625 295.035156 L 188.167969 299.269531 L 190.289062 302.660156 L 191.984375 305.203125 L 192.621094 306.261719 L 193.046875 306.894531 L 193.472656 307.320312 L 193.472656 307.53125 L 199.835938 307.53125 L 207.476562 307.109375 L 211.082031 306.894531 L 214.054688 306.472656 L 215.117188 306.261719 L 215.753906 306.046875 L 216.390625 305.414062 L 217.023438 304.140625 L 217.449219 302.234375 L 218.085938 300.117188 L 219.359375 294.609375 L 220.632812 288.679688 L 221.695312 282.539062 L 222.117188 279.785156 L 222.542969 277.453125 L 222.753906 275.335938 L 222.964844 273.851562 L 223.179688 272.796875 L 223.179688 272.371094 L 222.964844 272.160156 L 222.117188 271.734375 L 220.84375 270.890625 L 219.148438 269.828125 L 217.238281 268.347656 L 214.691406 266.652344 L 211.933594 264.957031 L 208.960938 262.839844 L 202.171875 257.96875 L 194.746094 252.25 L 187.105469 246.105469 L 179.253906 239.542969 L 171.613281 232.761719 L 164.398438 225.773438 L 158.035156 218.570312 L 155.273438 215.183594 L 152.941406 211.792969 L 150.816406 208.40625 L 149.121094 205.015625 L 147.847656 201.839844 L 147 198.660156 L 146.785156 195.699219 L 147 192.730469 L 147.847656 190.1875 L 149.332031 187.648438 Z M 148.484375 185.53125 " fill-opacity="1" fill-rule="evenodd"/><path fill="#02284d" d="M 153.789062 183.199219 L 153.363281 185.53125 L 152.515625 188.070312 L 150.816406 193.15625 L 149.96875 195.699219 L 149.332031 197.8125 L 149.332031 199.71875 L 149.757812 201.414062 L 151.03125 203.957031 L 152.089844 206.074219 L 152.941406 208.195312 L 153.578125 209.675781 L 154 210.945312 L 154.214844 212.003906 L 154.425781 212.429688 L 154.425781 213.699219 L 154.214844 215.183594 L 154 216.878906 L 153.152344 220.691406 L 152.304688 222.597656 L 151.242188 224.289062 L 151.878906 224.289062 L 152.515625 224.503906 L 153.789062 225.773438 L 155.910156 227.46875 L 157.183594 228.105469 L 158.882812 228.527344 L 158.671875 229.160156 L 158.035156 230.433594 L 157.398438 232.128906 L 157.183594 234.457031 L 157.609375 234.667969 L 158.882812 235.09375 L 159.945312 235.726562 L 161.640625 237.421875 L 162.488281 238.691406 L 162.914062 240.175781 L 163.125 241.871094 L 163.125 242.71875 L 162.914062 243.140625 L 162.703125 243.351562 L 162.488281 243.777344 L 162.277344 244.625 L 162.488281 246.105469 L 162.703125 247.378906 L 163.125 249.074219 L 163.550781 250.34375 L 164.398438 251.613281 L 168.644531 255.425781 L 169.492188 256.484375 L 170.128906 257.753906 L 170.554688 258.605469 L 171.402344 259.660156 L 173.523438 262.203125 L 175.859375 264.535156 L 176.707031 265.59375 L 177.132812 266.441406 L 178.191406 268.347656 L 179.679688 270.253906 L 183.496094 273.851562 L 187.953125 277.03125 L 192.199219 279.785156 L 192.835938 281.265625 L 193.683594 282.328125 L 194.957031 282.75 L 196.441406 282.960938 L 199.414062 282.75 L 202.382812 282.328125 L 202.808594 282.328125 L 202.59375 282.75 L 202.171875 283.382812 L 202.59375 283.597656 L 204.71875 284.019531 L 206.414062 284.234375 L 207.6875 284.234375 L 208.539062 283.808594 L 210.023438 283.808594 L 212.144531 284.019531 L 216.601562 284.019531 L 221.054688 283.382812 L 222.964844 282.75 L 224.453125 281.691406 L 226.363281 282.328125 L 227.847656 282.960938 L 228.910156 283.171875 L 229.757812 283.382812 L 230.816406 282.960938 L 232.304688 281.480469 L 233.152344 282.328125 L 234 282.539062 L 235.273438 282.113281 L 236.546875 281.265625 L 239.304688 278.515625 L 242.066406 274.910156 L 242.488281 274.703125 L 242.914062 274.910156 L 243.550781 275.972656 L 244.398438 277.242188 L 244.613281 277.453125 L 245.035156 277.242188 L 245.460938 276.394531 L 245.671875 275.335938 L 245.671875 274.277344 L 246.097656 273.429688 L 247.160156 272.371094 L 248.429688 271.734375 L 251.1875 271.3125 L 253.734375 270.675781 L 254.796875 270.253906 L 255.644531 269.191406 L 256.496094 267.710938 L 258.191406 265.171875 L 259.039062 263.6875 L 259.464844 262.628906 L 259.890625 261.144531 L 262.011719 253.519531 L 262.011719 251.191406 L 261.375 248.4375 L 260.953125 245.894531 L 260.738281 243.777344 L 261.164062 242.082031 L 261.375 240.8125 L 261.800781 240.175781 L 262.222656 239.753906 L 262.859375 239.542969 L 263.074219 239.753906 L 263.074219 239.542969 L 262.859375 238.691406 L 262.4375 236.363281 L 261.375 233.398438 L 259.890625 230.644531 L 259.253906 229.796875 L 258.828125 229.160156 L 258.828125 228.738281 L 259.679688 228.738281 L 260.953125 229.160156 L 261.375 229.160156 L 261.375 228.738281 L 260.953125 228.105469 L 260.3125 227.46875 L 257.34375 223.867188 L 257.980469 224.503906 L 258.828125 224.503906 L 259.464844 224.078125 L 259.679688 223.867188 L 259.253906 223.65625 L 258.617188 223.019531 L 257.765625 222.171875 L 257.34375 221.324219 L 256.917969 220.265625 L 256.070312 218.785156 L 255.222656 217.511719 L 254.796875 216.664062 L 255.007812 216.242188 L 255.433594 215.816406 L 255.433594 215.183594 L 255.222656 214.125 L 255.007812 213.066406 L 255.433594 212.429688 L 256.070312 212.003906 L 256.496094 212.003906 L 256.070312 211.582031 L 255.433594 210.523438 L 254.585938 209.042969 L 254.160156 207.554688 L 255.222656 207.34375 L 255.855469 207.136719 L 256.070312 206.921875 L 256.070312 206.710938 L 255.855469 206.074219 L 255.433594 203.957031 L 255.222656 203.324219 L 254.585938 202.472656 L 252.886719 200.78125 L 250.976562 198.660156 L 250.339844 197.605469 L 250.128906 196.753906 L 250.128906 196.121094 L 250.339844 195.90625 L 250.554688 195.90625 L 251.402344 196.542969 L 251.613281 196.121094 L 251.828125 194.847656 L 251.828125 193.578125 L 252.25 192.519531 L 252.460938 191.886719 L 252.25 190.613281 L 250.976562 187.4375 L 249.28125 184.046875 L 248.644531 182.777344 L 248.21875 181.929688 L 248.21875 180.65625 L 248.855469 179.386719 L 249.28125 178.117188 L 249.066406 177.269531 L 248.644531 176.632812 L 248.21875 175.785156 L 248.429688 174.515625 L 248.855469 172.820312 L 249.703125 171.125 L 251.402344 167.527344 L 252.675781 164.347656 L 252.886719 162.867188 L 252.886719 156.9375 L 252.675781 155.027344 L 252.460938 153.546875 L 252.25 152.488281 L 252.25 152.0625 L 252.460938 151.851562 L 252.675781 151.214844 L 253.734375 149.3125 L 254.796875 146.980469 L 255.433594 145.074219 L 255.855469 144.4375 L 256.496094 143.59375 L 258.617188 142.109375 L 260.3125 140.839844 L 260.953125 140.414062 L 260.953125 139.992188 L 260.3125 139.144531 L 258.617188 136.601562 L 258.402344 136.179688 L 258.402344 132.578125 L 258.191406 128.765625 L 257.980469 124.316406 L 257.34375 114.996094 L 256.707031 110.972656 L 256.496094 109.492188 L 256.070312 108.21875 L 255.433594 106.949219 L 254.796875 105.464844 L 252.886719 101.867188 L 250.339844 97.628906 L 247.582031 93.179688 L 244.1875 88.523438 L 240.792969 84.285156 L 237.394531 80.683594 L 234 77.929688 L 231.878906 76.660156 L 229.332031 75.179688 L 226.574219 73.695312 L 223.390625 72.425781 L 219.785156 70.941406 L 216.175781 69.882812 L 207.902344 67.976562 L 203.445312 67.339844 L 198.777344 66.917969 L 194.109375 66.917969 L 189.226562 67.128906 L 184.132812 67.976562 L 179.253906 69.246094 L 173.949219 70.941406 L 168.855469 73.058594 L 163.976562 75.601562 L 159.519531 78.355469 L 155.699219 81.109375 L 152.304688 83.863281 L 149.332031 86.828125 L 146.785156 89.582031 L 144.453125 92.332031 L 142.542969 95.089844 L 139.574219 100.382812 L 137.238281 105.042969 L 135.328125 108.855469 L 133.417969 111.820312 L 131.933594 113.726562 L 130.871094 114.996094 L 130.449219 115.632812 L 130.660156 115.84375 L 131.507812 115.632812 L 132.78125 114.996094 L 132.992188 114.996094 L 132.992188 115.632812 L 132.570312 116.480469 L 131.722656 117.539062 L 129.8125 119.65625 L 128.75 120.503906 L 127.6875 120.71875 L 126.839844 120.929688 L 126.628906 121.140625 L 126.839844 121.988281 L 126.839844 122.621094 L 126.628906 122.835938 L 125.992188 122.835938 L 125.777344 123.46875 L 125.777344 124.105469 L 125.992188 124.527344 L 126.628906 124.953125 L 128.324219 125.164062 L 130.871094 124.742188 L 130.660156 125.589844 L 130.234375 126.222656 L 128.539062 127.28125 L 126.414062 127.707031 L 124.71875 127.917969 L 125.140625 128.128906 L 126.628906 128.554688 L 128.960938 129.398438 L 131.722656 130.035156 L 138.085938 131.308594 L 140.847656 131.730469 L 143.390625 131.519531 L 141.695312 134.695312 L 140.632812 137.875 L 140.210938 141.050781 L 140.421875 144.015625 L 141.269531 146.980469 L 142.332031 149.523438 L 145.511719 154.605469 L 149.121094 158.628906 L 152.941406 161.808594 L 154.425781 163.078125 L 155.699219 163.925781 L 156.546875 164.5625 L 156.972656 164.984375 Z M 153.789062 183.199219 " fill-opacity="1" fill-rule="evenodd"/><path fill="#003366" d="M 195.167969 75.8125 L 198.140625 73.695312 L 200.898438 72.636719 L 203.867188 72 L 206.839844 72 L 212.355469 73.273438 L 217.023438 75.179688 L 218.296875 75.8125 L 219.996094 76.660156 L 224.027344 78.777344 L 228.695312 81.742188 L 233.363281 85.132812 L 237.394531 88.734375 L 239.304688 90.429688 L 240.578125 92.332031 L 241.429688 94.242188 L 242.066406 95.933594 L 241.851562 97.628906 L 241.214844 99.324219 L 240.367188 100.808594 L 239.941406 102.289062 L 239.730469 104.617188 L 240.367188 106.3125 L 241.214844 107.796875 L 242.277344 108.855469 L 242.914062 109.492188 L 242.914062 110.125 L 242.488281 110.550781 L 241.640625 110.761719 L 239.730469 111.183594 L 238.246094 111.398438 L 235.273438 111.609375 L 232.941406 111.609375 L 230.179688 112.457031 L 228.484375 112.878906 L 226.789062 113.089844 L 222.964844 112.457031 L 221.054688 112.03125 L 219.570312 111.609375 L 218.085938 111.398438 L 217.023438 111.183594 L 216.390625 111.183594 L 216.390625 111.398438 L 216.8125 111.398438 L 217.449219 111.609375 L 219.785156 112.246094 L 222.542969 112.667969 L 224.875 113.089844 L 226.789062 113.726562 L 229.121094 113.9375 L 230.605469 113.9375 L 232.726562 113.726562 L 235.0625 113.726562 L 236.972656 113.9375 L 238.667969 114.574219 L 240.15625 115.210938 L 241.214844 116.054688 L 241.851562 116.902344 L 242.066406 117.75 L 241.640625 118.386719 L 241.003906 119.023438 L 241.003906 119.445312 L 241.429688 120.71875 L 242.703125 121.773438 L 244.613281 123.46875 L 245.886719 125.375 L 246.519531 127.492188 L 247.371094 128.765625 L 248.21875 129.1875 L 249.28125 129.398438 L 250.128906 130.25 L 250.554688 131.09375 L 250.765625 132.578125 L 249.703125 133.847656 L 248.007812 134.273438 L 246.945312 134.058594 L 246.308594 133.425781 L 245.25 131.519531 L 244.1875 129.824219 L 243.550781 129.1875 L 241.003906 129.1875 L 238.882812 128.976562 L 236.972656 128.128906 L 235.910156 126.648438 L 235.488281 126.011719 L 235.273438 126.011719 L 235.0625 126.222656 L 234.636719 126.859375 L 234 127.707031 L 232.941406 128.339844 L 231.667969 128.765625 L 229.757812 128.765625 L 228.484375 128.976562 L 226.789062 129.398438 L 224.664062 130.25 L 222.542969 131.519531 L 217.238281 133.847656 L 211.71875 136.390625 L 206.414062 137.875 L 204.082031 138.296875 L 201.957031 138.296875 L 200.050781 137.660156 L 198.5625 136.601562 L 197.503906 134.90625 L 196.867188 132.367188 L 196.230469 130.882812 L 195.382812 129.824219 L 192.835938 128.554688 L 191.5625 127.707031 L 190.925781 126.222656 L 190.714844 124.105469 L 190.925781 122.621094 L 191.347656 120.929688 L 191.773438 119.234375 L 191.5625 117.539062 L 190.714844 114.785156 L 189.015625 112.457031 L 187.105469 110.550781 L 184.984375 108.433594 L 183.285156 106.101562 L 182.4375 103.347656 L 182.4375 101.65625 L 182.859375 99.960938 L 184.984375 92.757812 L 187.53125 86.402344 L 189.015625 83.4375 L 190.714844 80.683594 L 192.835938 78.144531 Z M 195.167969 75.8125 " fill-opacity="1" fill-rule="evenodd"/><path fill="#003366" d="M 175.648438 116.691406 L 177.980469 119.445312 L 179.253906 122.410156 L 180.101562 125.589844 L 180.527344 128.554688 L 180.949219 131.09375 L 181.375 133 L 182.222656 134.058594 L 182.859375 134.273438 L 183.710938 134.058594 L 185.621094 133.847656 L 187.316406 134.273438 L 188.804688 135.332031 L 190.289062 136.8125 L 191.347656 138.507812 L 192.199219 140.414062 L 192.621094 142.109375 L 192.621094 144.015625 L 193.046875 144.226562 L 193.894531 144.226562 L 194.746094 144.015625 L 196.019531 143.59375 L 197.292969 142.957031 L 200.683594 141.683594 L 204.292969 140.414062 L 208.324219 139.566406 L 212.144531 139.566406 L 214.054688 139.992188 L 215.753906 140.625 L 217.238281 141.472656 L 218.296875 142.320312 L 218.933594 142.957031 L 219.148438 143.59375 L 218.722656 144.863281 L 217.238281 145.710938 L 215.117188 146.558594 L 212.570312 146.980469 L 206.414062 146.980469 L 205.777344 147.191406 L 205.777344 147.828125 L 205.992188 148.675781 L 206.203125 150.792969 L 205.777344 151.851562 L 204.71875 152.910156 L 204.082031 153.335938 L 203.867188 153.757812 L 204.082031 154.394531 L 204.71875 154.605469 L 205.355469 155.242188 L 205.566406 155.878906 L 205.355469 156.511719 L 204.929688 157.148438 L 203.867188 157.996094 L 202.59375 159.054688 L 200.683594 160.535156 L 198.140625 162.019531 L 195.59375 163.714844 L 193.683594 165.195312 L 191.984375 166.890625 L 190.925781 168.160156 L 190.078125 169.433594 L 189.441406 170.703125 L 188.589844 172.1875 L 188.378906 172.398438 L 187.953125 172.609375 L 187.316406 172.1875 L 186.679688 171.550781 L 185.832031 170.28125 L 184.347656 168.796875 L 182.648438 166.679688 L 180.527344 164.136719 L 178.191406 161.171875 L 176.496094 158.417969 L 175.011719 155.453125 L 173.738281 152.488281 L 172.25 146.558594 L 171.613281 140.625 L 171.613281 134.90625 L 172.25 129.1875 L 173.101562 123.894531 L 174.160156 118.808594 Z M 175.648438 116.691406 " fill-opacity="1" fill-rule="evenodd"/><path fill="#000000" d="M 199.625 143.167969 L 198.988281 143.804688 L 198.140625 144.4375 L 197.078125 144.863281 L 196.230469 145.074219 L 196.019531 145.074219 L 196.230469 145.285156 L 197.078125 145.710938 L 198.351562 146.34375 L 199.199219 146.980469 L 199.625 146.769531 L 200.261719 146.132812 L 201.535156 145.496094 L 203.019531 145.496094 L 204.503906 145.921875 L 205.355469 146.34375 L 205.777344 146.558594 L 205.992188 146.558594 L 205.566406 144.652344 L 207.265625 143.59375 L 207.476562 144.015625 L 208.324219 144.652344 L 209.386719 145.285156 L 211.082031 145.496094 L 212.78125 144.863281 L 213.628906 144.015625 L 214.054688 143.167969 L 214.054688 142.746094 L 214.480469 142.957031 L 215.328125 143.59375 L 216.175781 144.4375 L 216.390625 145.074219 L 215.117188 145.921875 L 214.265625 146.34375 L 212.355469 146.769531 L 210.445312 146.980469 L 208.539062 146.980469 L 208.539062 147.191406 L 209.171875 147.617188 L 210.660156 148.039062 L 212.355469 148.25 L 215.964844 147.40625 L 217.664062 146.769531 L 218.722656 146.558594 L 219.359375 146.769531 L 220.207031 147.40625 L 221.054688 147.828125 L 221.90625 147.40625 L 223.179688 146.769531 L 224.664062 146.980469 L 226.148438 146.558594 L 226.574219 146.132812 L 227 145.285156 L 227.636719 143.59375 L 227.636719 142.53125 L 227.421875 141.898438 L 226.574219 141.472656 L 225.9375 141.050781 L 225.9375 140.625 L 226.363281 139.992188 L 227.210938 139.355469 L 228.058594 138.507812 L 228.484375 137.660156 L 228.484375 136.601562 L 228.273438 134.695312 L 228.058594 133 L 227.847656 132.367188 L 227.421875 132.15625 L 226.789062 132.15625 L 226.789062 134.695312 L 226.574219 135.964844 L 225.9375 136.601562 L 225.515625 136.390625 L 225.515625 135.753906 L 225.722656 135.121094 L 225.722656 134.90625 L 225.089844 134.273438 L 224.664062 133 L 224.242188 132.789062 L 223.816406 133.214844 L 223.179688 133.425781 L 222.542969 133.214844 L 221.269531 132.367188 L 219.359375 131.941406 L 218.296875 131.519531 L 217.449219 130.882812 L 216.8125 130.460938 L 216.175781 130.460938 L 215.539062 130.882812 L 215.117188 131.308594 L 214.054688 131.519531 L 213.417969 131.941406 L 212.570312 133.636719 L 211.71875 134.058594 L 210.871094 134.058594 L 210.445312 134.484375 L 210.023438 134.695312 L 210.234375 134.484375 L 210.445312 133.847656 L 211.933594 132.789062 L 212.992188 131.730469 L 213.207031 131.308594 L 213.207031 131.09375 L 212.78125 131.09375 L 211.507812 131.308594 L 210.234375 131.730469 L 209.171875 132.578125 L 208.75 133 L 208.75 133.214844 L 209.171875 133 L 210.445312 132.15625 L 210.445312 132.367188 L 210.234375 133 L 209.386719 133.636719 L 208.539062 133.847656 L 207.476562 133.847656 L 206.628906 134.484375 L 205.777344 135.332031 L 203.230469 137.027344 L 202.382812 137.449219 L 201.746094 137.449219 L 201.746094 137.027344 L 202.59375 136.179688 L 205.140625 134.90625 L 205.992188 134.273438 L 207.050781 133.214844 L 207.476562 133 L 207.6875 132.789062 L 207.476562 132.789062 L 206.628906 133 L 205.566406 133.425781 L 204.082031 134.273438 L 202.808594 135.121094 L 201.746094 135.753906 L 200.683594 136.601562 L 199.835938 137.660156 L 198.777344 138.933594 L 197.503906 139.566406 L 196.019531 139.992188 L 194.320312 140.414062 L 192.835938 141.261719 L 191.984375 142.109375 L 192.410156 143.167969 L 193.046875 143.59375 L 193.894531 143.804688 L 196.019531 144.015625 L 197.714844 143.804688 L 198.777344 143.378906 L 199.199219 143.167969 Z M 199.625 143.167969 " fill-opacity="1" fill-rule="evenodd"/><path fill="#003366" d="M 202.59375 143.59375 L 202.808594 143.378906 L 203.65625 143.167969 L 206.203125 141.898438 L 209.386719 140.839844 L 211.082031 140.414062 L 212.355469 140.414062 L 213.628906 140.625 L 214.265625 140.839844 L 214.691406 141.050781 L 214.902344 141.050781 L 214.265625 140.414062 L 212.144531 139.355469 L 210.660156 139.144531 L 208.539062 139.355469 L 207.050781 139.777344 L 205.566406 140.414062 L 203.867188 141.472656 L 202.171875 142.746094 Z M 202.59375 143.59375 " fill-opacity="1" fill-rule="evenodd"/><path fill="#003366" d="M 209.171875 143.167969 C 209.171875 142.699219 209.503906 142.320312 209.917969 142.320312 C 210.328125 142.320312 210.660156 142.699219 210.660156 143.167969 C 210.660156 143.640625 210.328125 144.015625 209.917969 144.015625 C 209.503906 144.015625 209.171875 143.640625 209.171875 143.167969 Z M 209.171875 143.167969 " fill-opacity="1" fill-rule="evenodd"/><path fill="#000000" d="M 193.894531 138.296875 L 195.167969 138.085938 L 196.230469 137.238281 L 197.714844 135.542969 L 197.925781 135.121094 L 197.925781 135.542969 L 197.078125 137.449219 L 196.867188 137.660156 L 197.503906 137.027344 L 199.199219 134.695312 L 200.261719 133.847656 L 203.65625 132.15625 L 205.140625 131.308594 L 205.355469 130.882812 L 204.929688 131.09375 L 204.292969 131.308594 L 202.382812 132.367188 L 199.625 133.214844 L 198.351562 133.636719 L 197.503906 134.273438 L 196.230469 135.542969 L 194.746094 137.027344 L 193.683594 137.449219 L 192.199219 137.875 Z M 193.894531 138.296875 " fill-opacity="1" fill-rule="evenodd"/><path fill="#000000" d="M 217.875 146.558594 L 217.449219 148.039062 L 216.601562 149.523438 L 214.265625 152.488281 L 211.71875 154.816406 L 210.660156 155.664062 L 209.808594 156.089844 L 209.386719 156.089844 L 210.234375 154.816406 L 210.871094 154.183594 L 211.933594 152.910156 L 212.992188 151.214844 L 213.84375 149.734375 L 214.054688 148.675781 L 213.417969 147.828125 Z M 217.875 146.558594 " fill-opacity="1" fill-rule="evenodd"/><path fill="#003366" d="M 244.824219 203.324219 L 245.035156 206.074219 L 245.460938 208.617188 L 246.097656 210.523438 L 246.945312 212.429688 L 249.28125 214.972656 L 251.402344 216.878906 L 253.3125 218.996094 L 254.371094 221.324219 L 255.007812 223.441406 L 255.222656 225.136719 L 255.222656 225.5625 L 255.007812 225.347656 L 254.796875 224.714844 L 254.371094 223.867188 L 252.886719 221.75 L 250.765625 219.628906 L 249.917969 219.207031 L 249.703125 219.417969 L 249.917969 220.265625 L 250.339844 221.535156 L 250.976562 223.230469 L 251.828125 224.925781 L 252.25 226.621094 L 252.460938 228.105469 L 252.25 228.949219 L 252.039062 228.949219 L 251.613281 228.105469 L 250.976562 226.621094 L 249.066406 223.019531 L 248.007812 221.324219 L 246.734375 219.84375 L 245.671875 218.570312 L 244.824219 217.089844 L 244.1875 214.125 L 244.1875 210.734375 L 244.613281 207.554688 Z M 244.824219 203.324219 " fill-opacity="1" fill-rule="evenodd"/><path fill="#003366" d="M 233.578125 146.132812 L 235.0625 148.464844 L 236.335938 151.003906 L 237.609375 156.300781 L 238.03125 158.84375 L 238.246094 161.171875 L 238.457031 163.078125 L 238.457031 164.347656 L 238.882812 167.738281 L 238.667969 168.585938 L 238.03125 169.21875 L 236.972656 169.644531 L 235.488281 169.855469 L 232.304688 170.066406 L 229.546875 170.492188 L 224.664062 171.550781 L 223.390625 171.761719 L 222.117188 171.125 L 221.269531 170.28125 L 220.632812 169.21875 L 220.632812 167.738281 L 220.84375 166.46875 L 221.90625 165.195312 L 223.390625 164.347656 L 225.300781 164.347656 L 227.421875 164.984375 L 228.910156 165.40625 L 229.332031 165.40625 L 229.546875 164.773438 L 229.121094 163.714844 L 227.636719 162.230469 L 227.421875 160.75 L 227.210938 160.113281 L 226.789062 159.902344 L 226.148438 160.113281 L 225.515625 160.535156 L 223.390625 161.808594 L 221.054688 163.078125 L 219.785156 163.925781 L 218.085938 165.195312 L 214.265625 168.796875 L 209.808594 171.972656 L 207.476562 173.035156 L 204.929688 173.457031 L 202.59375 173.246094 L 200.683594 173.035156 L 199.199219 172.398438 L 198.140625 171.761719 L 197.714844 170.703125 L 197.925781 169.433594 L 198.988281 167.949219 L 200.898438 166.042969 L 203.230469 164.347656 L 205.777344 162.867188 L 207.902344 161.808594 L 210.234375 160.960938 L 212.144531 160.113281 L 213.628906 159.054688 L 214.902344 157.78125 L 215.753906 156.089844 L 216.175781 155.242188 L 216.390625 154.816406 L 217.449219 154.816406 L 218.511719 155.242188 L 219.570312 156.300781 L 220.84375 157.148438 L 222.117188 157.570312 L 223.605469 157.359375 L 224.242188 156.9375 L 224.875 156.089844 L 227.210938 152.488281 L 229.121094 149.523438 L 230.605469 147.191406 L 232.089844 145.710938 Z M 233.578125 146.132812 " fill-opacity="1" fill-rule="evenodd"/><path fill="#003366" d="M 242.277344 162.867188 L 243.339844 164.773438 L 244.1875 166.46875 L 244.398438 167.949219 L 244.398438 169.433594 L 243.976562 170.703125 L 243.339844 171.761719 L 241.429688 173.246094 L 240.578125 173.457031 L 240.578125 172.820312 L 241.003906 172.398438 L 241.429688 171.125 L 242.488281 167.738281 L 242.703125 166.042969 L 242.066406 164.136719 Z M 242.277344 162.867188 " fill-opacity="1" fill-rule="evenodd"/><path fill="#003366" d="M 240.15625 178.117188 L 242.488281 180.65625 L 244.398438 182.777344 L 245.886719 184.257812 L 247.160156 185.320312 L 248.644531 186.164062 L 250.128906 187.648438 L 251.1875 189.128906 L 251.613281 191.039062 L 251.613281 192.941406 L 252.039062 194.214844 L 252.25 195.273438 L 252.25 195.484375 L 251.828125 195.0625 L 251.1875 194 L 249.492188 190.824219 L 249.28125 190.402344 L 249.066406 190.402344 L 248.855469 191.039062 L 248.644531 191.886719 L 247.792969 194.425781 L 246.945312 195.699219 L 245.886719 196.753906 L 245.035156 197.390625 L 244.824219 197.179688 L 245.035156 196.332031 L 245.460938 195.0625 L 246.519531 192.09375 L 246.945312 190.613281 L 246.945312 189.554688 L 246.734375 188.917969 L 246.308594 189.765625 L 245.671875 190.824219 L 244.824219 191.671875 L 244.398438 191.671875 L 244.613281 191.039062 L 244.613281 190.613281 L 244.824219 189.976562 L 245.035156 188.917969 L 244.824219 188.492188 L 244.398438 189.128906 L 243.761719 189.765625 L 242.914062 190.402344 L 242.488281 190.402344 L 242.488281 189.554688 L 242.066406 187.859375 L 241.851562 187.859375 L 241.003906 189.128906 L 240.15625 189.554688 L 239.09375 189.34375 L 238.457031 188.917969 L 238.246094 188.070312 L 238.246094 187.011719 L 237.609375 187.648438 L 236.335938 188.707031 L 234.851562 189.128906 L 234.425781 188.917969 L 234.425781 188.707031 L 235.0625 188.070312 L 235.699219 187.222656 L 237.609375 185.105469 L 238.246094 183.625 L 238.457031 182.140625 L 238.667969 180.871094 L 238.667969 180.445312 L 239.304688 180.445312 L 239.730469 180.65625 L 239.941406 180.65625 L 240.15625 180.023438 Z M 240.15625 178.117188 " fill-opacity="1" fill-rule="evenodd"/><path fill="#003366" d="M 151.242188 136.179688 L 150.605469 138.296875 L 149.332031 140.414062 L 147.847656 142.109375 L 147.421875 142.53125 L 147.210938 142.53125 L 147.421875 142.320312 L 148.273438 142.109375 L 151.03125 141.261719 L 154 140.414062 L 155.0625 140.203125 L 155.699219 139.777344 L 155.910156 139.777344 L 155.910156 140.203125 L 155.699219 141.050781 L 155.0625 142.109375 L 153.578125 144.4375 L 152.726562 145.496094 L 151.667969 146.132812 L 151.03125 146.558594 L 150.816406 146.558594 L 151.453125 146.558594 L 152.304688 146.34375 L 155.273438 145.496094 L 158.671875 144.4375 L 159.308594 144.226562 L 159.730469 144.226562 L 159.945312 144.4375 L 159.308594 145.285156 L 158.246094 146.132812 L 155.273438 148.25 L 153.789062 148.886719 L 152.726562 149.3125 L 152.089844 149.523438 L 152.941406 149.945312 L 154.636719 150.160156 L 156.125 150.160156 L 156.761719 150.371094 L 156.761719 151.214844 L 155.910156 152.0625 L 154.425781 152.910156 L 153.789062 153.335938 L 153.789062 153.546875 L 154.636719 153.96875 L 156.125 153.96875 L 157.398438 153.546875 L 158.246094 153.335938 L 158.671875 154.183594 L 158.457031 155.664062 L 157.609375 157.570312 L 157.183594 158.417969 L 157.183594 159.054688 L 157.609375 159.476562 L 158.246094 159.691406 L 159.945312 159.265625 L 160.792969 158.628906 L 161.429688 157.570312 L 162.066406 156.722656 L 162.703125 156.511719 L 163.125 156.9375 L 163.550781 157.996094 L 163.761719 159.054688 L 163.550781 160.535156 L 163.125 162.230469 L 162.066406 163.925781 L 161.21875 165.195312 L 161.003906 166.253906 L 161.21875 166.679688 L 161.855469 166.890625 L 163.550781 166.679688 L 165.25 165.40625 L 165.671875 165.195312 L 165.460938 165.832031 L 164.613281 166.890625 L 163.339844 168.585938 L 160.367188 172.1875 L 158.671875 173.667969 L 156.972656 174.9375 L 155.910156 175.574219 L 155.910156 176 L 156.761719 175.785156 L 158.035156 175.574219 L 161.003906 174.304688 L 162.488281 173.667969 L 163.550781 172.820312 L 164.1875 172.398438 L 164.398438 172.398438 L 164.1875 173.035156 L 163.761719 173.667969 L 162.914062 174.726562 L 161.640625 176 L 158.882812 178.328125 L 158.246094 178.75 L 158.035156 179.175781 L 158.035156 179.386719 L 158.882812 179.175781 L 160.15625 178.539062 L 163.339844 176.84375 L 164.613281 176 L 165.460938 175.363281 L 166.097656 174.9375 L 166.523438 175.152344 L 166.523438 176.632812 L 166.097656 177.480469 L 165.25 178.75 L 163.761719 179.8125 L 162.066406 180.871094 L 161.21875 181.292969 L 160.582031 181.71875 L 160.367188 182.351562 L 161.003906 182.777344 L 162.066406 182.988281 L 165.25 182.988281 L 166.734375 182.777344 L 167.792969 182.5625 L 168.007812 182.5625 L 168.21875 182.777344 L 168.007812 184.046875 L 167.15625 185.742188 L 165.886719 187.859375 L 162.703125 192.519531 L 161.003906 194.636719 L 159.519531 196.332031 L 158.671875 197.8125 L 158.246094 199.085938 L 158.457031 200.566406 L 159.308594 203.109375 L 159.945312 203.957031 L 160.15625 204.59375 L 160.15625 204.804688 L 159.945312 204.382812 L 159.945312 202.050781 L 160.15625 200.355469 L 160.792969 198.660156 L 161.640625 196.96875 L 162.914062 195.699219 L 164.613281 194.636719 L 166.097656 194.214844 L 166.734375 194 L 166.734375 194.214844 L 166.308594 194.847656 L 165.460938 195.699219 L 164.613281 196.96875 L 163.761719 198.449219 L 163.339844 200.144531 L 162.703125 203.53125 L 162.703125 206.285156 L 162.914062 207.136719 L 163.339844 207.554688 L 164.1875 207.554688 L 165.25 206.710938 L 166.523438 205.863281 L 168.007812 205.652344 L 169.28125 205.863281 L 170.34375 206.5 L 171.1875 207.769531 L 171.613281 209.253906 L 171.402344 211.160156 L 170.34375 213.277344 L 169.28125 215.394531 L 168.855469 216.878906 L 168.855469 218.148438 L 169.492188 218.785156 L 170.34375 218.996094 L 171.613281 218.996094 L 173.3125 218.785156 L 175.222656 218.148438 L 176.070312 217.9375 L 176.707031 218.148438 L 177.554688 218.996094 L 177.554688 220.265625 L 177.34375 222.171875 L 175.859375 225.984375 L 175.222656 227.46875 L 174.796875 228.316406 L 174.796875 228.738281 L 175.011719 229.160156 L 175.859375 229.160156 L 176.917969 228.738281 L 177.554688 228.105469 L 177.769531 227.890625 L 177.980469 228.105469 L 178.191406 229.160156 L 178.617188 230.644531 L 178.617188 231.917969 L 179.042969 232.550781 L 179.890625 233.398438 L 180.949219 233.824219 L 181.800781 233.398438 L 182.859375 233.1875 L 184.347656 233.824219 L 184.984375 235.304688 L 185.195312 236.363281 L 184.769531 237.632812 L 183.710938 240.601562 L 182.859375 243.988281 L 182.222656 245.683594 L 181.375 247.164062 L 179.890625 248.222656 L 178.191406 249.285156 L 176.707031 250.128906 L 176.070312 250.765625 L 176.070312 251.191406 L 176.707031 251.402344 L 177.769531 251.402344 L 180.3125 250.554688 L 181.585938 249.707031 L 182.4375 249.285156 L 183.074219 249.496094 L 183.074219 250.128906 L 182.859375 251.402344 L 181.375 253.941406 L 180.3125 255.214844 L 178.828125 256.0625 L 177.980469 256.484375 L 177.980469 256.910156 L 178.828125 257.332031 L 183.074219 257.332031 L 184.558594 257.121094 L 185.40625 256.695312 L 185.832031 256.484375 L 186.042969 256.910156 L 186.042969 259.238281 L 185.195312 262.628906 L 183.710938 266.652344 L 183.496094 267.5 L 183.285156 267.921875 L 183.496094 268.347656 L 184.347656 267.921875 L 185.40625 267.078125 L 187.53125 264.324219 L 188.589844 262.839844 L 189.015625 261.78125 L 189.226562 261.144531 L 189.652344 261.566406 L 189.863281 262.417969 L 190.078125 263.898438 L 190.078125 267.921875 L 189.441406 273.003906 L 189.226562 274.066406 L 189.015625 274.910156 L 189.226562 275.761719 L 189.863281 275.972656 L 190.5 275.335938 L 192.410156 273.21875 L 193.257812 271.945312 L 193.894531 271.097656 L 194.320312 270.890625 L 194.957031 271.523438 L 195.382812 272.582031 L 195.59375 274.066406 L 196.019531 277.664062 L 196.230469 279.148438 L 196.230469 280.207031 L 196.65625 280.84375 L 197.503906 281.480469 L 200.472656 281.480469 L 201.957031 281.054688 L 203.445312 280.421875 L 204.292969 279.359375 L 204.71875 278.089844 L 204.929688 277.453125 L 205.355469 277.242188 L 206.839844 277.03125 L 208.960938 277.453125 L 211.296875 277.878906 L 214.054688 278.515625 L 216.390625 278.726562 L 218.511719 278.300781 L 219.148438 277.878906 L 219.785156 277.03125 L 221.269531 273.003906 L 222.753906 268.558594 L 224.664062 264.535156 L 225.722656 262.839844 L 227 261.78125 L 228.058594 260.507812 L 228.695312 258.605469 L 229.121094 256.273438 L 229.121094 253.730469 L 228.484375 248.859375 L 228.058594 246.953125 L 227.636719 245.683594 L 227.421875 245.472656 L 227.636719 245.472656 L 227.636719 245.683594 L 228.058594 246.320312 L 228.910156 248.4375 L 229.757812 251.191406 L 230.179688 254.367188 L 230.394531 257.96875 L 229.546875 261.78125 L 228.910156 263.6875 L 227.847656 265.378906 L 226.789062 267.078125 L 226.148438 268.347656 L 225.300781 270.890625 L 225.515625 272.796875 L 226.148438 274.066406 L 227 275.125 L 228.058594 275.546875 L 228.910156 275.972656 L 229.121094 275.972656 L 228.910156 275.546875 L 228.273438 274.488281 L 228.273438 272.796875 L 228.484375 271.734375 L 229.121094 270.464844 L 229.96875 269.40625 L 230.605469 269.191406 L 231.03125 269.617188 L 231.667969 270.464844 L 232.304688 273.429688 L 232.726562 276.605469 L 232.941406 277.664062 L 233.152344 278.089844 L 233.578125 277.664062 L 233.789062 276.605469 L 234 274.066406 L 234.214844 271.734375 L 234.214844 271.097656 L 234.425781 270.890625 L 235.273438 271.3125 L 236.757812 274.066406 L 236.972656 274.488281 L 237.394531 274.703125 L 238.03125 274.488281 L 238.457031 274.066406 L 239.730469 272.371094 L 241.214844 269.828125 L 242.277344 268.769531 L 243.761719 268.347656 L 249.492188 268.347656 L 251.1875 267.710938 L 252.675781 266.441406 L 253.3125 265.378906 L 253.734375 264.109375 L 254.160156 261.359375 L 253.949219 258.390625 L 253.3125 255.636719 L 252.460938 253.097656 L 249.492188 248.222656 L 246.097656 243.988281 L 244.613281 242.082031 L 243.976562 240.386719 L 243.339844 237.210938 L 242.914062 235.726562 L 242.277344 234.457031 L 241.003906 233.398438 L 239.09375 232.339844 L 236.972656 231.28125 L 235.488281 229.796875 L 234.425781 228.105469 L 233.789062 226.410156 L 233.578125 224.925781 L 233.363281 223.65625 L 233.363281 222.382812 L 233.578125 222.597656 L 234 223.441406 L 235.273438 225.773438 L 237.183594 228.105469 L 238.246094 229.160156 L 239.09375 229.796875 L 239.730469 229.796875 L 239.941406 229.375 L 239.941406 228.738281 L 239.730469 227.679688 L 239.09375 225.347656 L 238.667969 224.289062 L 238.667969 222.808594 L 238.882812 222.597656 L 239.730469 223.019531 L 241.003906 223.867188 L 242.914062 224.289062 L 243.550781 224.289062 L 243.761719 223.867188 L 243.339844 223.441406 L 242.914062 222.597656 L 242.277344 221.324219 L 241.851562 219.628906 L 241.640625 217.300781 L 241.851562 214.546875 L 242.277344 211.582031 L 242.277344 208.617188 L 241.640625 203.746094 L 240.792969 199.71875 L 240.792969 198.238281 L 241.003906 196.96875 L 241.429688 196.121094 L 241.429688 195.484375 L 241.214844 195.0625 L 240.792969 195.0625 L 239.304688 195.273438 L 237.183594 196.121094 L 235.910156 196.332031 L 234.636719 196.332031 L 232.089844 195.699219 L 229.332031 194.425781 L 226.363281 193.15625 L 222.964844 192.519531 L 219.570312 192.09375 L 216.8125 191.886719 L 215.753906 191.886719 L 215.753906 195.90625 L 216.601562 199.933594 L 217.238281 201.839844 L 218.296875 203.746094 L 219.148438 205.226562 L 219.359375 206.285156 L 219.148438 206.710938 L 218.511719 206.921875 L 217.875 206.710938 L 217.023438 206.074219 L 215.539062 204.382812 L 215.117188 203.746094 L 214.902344 203.53125 L 214.691406 203.957031 L 214.691406 204.804688 L 214.902344 206.5 L 215.117188 207.136719 L 215.117188 207.554688 L 214.902344 207.34375 L 213.84375 206.074219 L 212.570312 204.167969 L 211.71875 201.203125 L 211.507812 200.566406 L 211.507812 200.144531 L 211.296875 200.355469 L 211.082031 201.625 L 210.871094 203.109375 L 210.660156 206.710938 L 210.660156 208.40625 L 210.445312 207.769531 L 210.023438 206.5 L 208.324219 203.109375 L 206.628906 201.414062 L 204.503906 199.507812 L 203.65625 198.449219 L 203.230469 197.390625 L 203.230469 196.332031 L 203.65625 195.0625 L 205.140625 192.730469 L 206.203125 190.402344 L 207.476562 188.707031 L 209.171875 187.648438 L 210.023438 187.222656 L 210.660156 186.800781 L 211.082031 185.53125 L 211.507812 184.046875 L 212.570312 182.777344 L 213.207031 182.5625 L 213.84375 182.5625 L 214.054688 183.199219 L 214.054688 184.257812 L 214.265625 184.683594 L 215.117188 184.683594 L 217.023438 184.46875 L 219.148438 184.257812 L 220.632812 184.046875 L 221.480469 184.257812 L 222.328125 186.375 L 222.753906 186.800781 L 224.664062 186.589844 L 226.574219 186.164062 L 227.636719 186.375 L 229.121094 187.222656 L 230.816406 187.859375 L 232.515625 187.648438 L 233.152344 187.011719 L 233.578125 186.164062 L 233.789062 183.835938 L 233.152344 181.292969 L 232.726562 180.445312 L 231.878906 179.8125 L 230.394531 179.386719 L 229.546875 179.597656 L 229.121094 180.234375 L 229.121094 181.082031 L 228.910156 181.503906 L 228.484375 180.871094 L 227.847656 179.8125 L 227 178.539062 L 226.574219 178.117188 L 226.363281 178.117188 L 226.148438 178.75 L 225.9375 180.871094 L 225.722656 181.082031 L 225.089844 180.445312 L 223.390625 178.328125 L 222.753906 178.117188 L 222.328125 178.539062 L 221.90625 179.597656 L 221.269531 181.082031 L 220.84375 181.503906 L 220.421875 181.71875 L 219.996094 181.082031 L 219.570312 179.8125 L 219.148438 178.328125 L 218.933594 177.90625 L 218.722656 177.90625 L 218.511719 178.75 L 217.875 180.023438 L 217.238281 180.65625 L 216.175781 181.082031 L 215.117188 181.292969 L 214.265625 181.082031 L 213.628906 180.65625 L 213.417969 180.023438 L 213.417969 178.328125 L 214.265625 176.632812 L 214.480469 176.210938 L 214.054688 176.421875 L 212.992188 177.058594 L 211.71875 178.117188 L 208.75 180.871094 L 207.476562 182.351562 L 205.992188 185.320312 L 205.777344 185.742188 L 205.566406 185.320312 L 205.566406 182.777344 L 205.777344 181.082031 L 205.566406 180.65625 L 205.140625 180.871094 L 204.292969 181.292969 L 203.445312 182.140625 L 202.808594 183.410156 L 202.171875 185.320312 L 201.746094 187.859375 L 201.746094 193.792969 L 201.324219 194.636719 L 201.109375 195.273438 L 200.050781 195.699219 L 198.777344 195.273438 L 197.503906 194.214844 L 196.019531 192.519531 L 194.957031 190.613281 L 194.320312 188.707031 L 193.683594 187.4375 L 192.835938 186.800781 L 191.5625 186.589844 L 190.5 186.800781 L 188.589844 187.4375 L 188.167969 187.4375 L 188.167969 186.800781 L 187.953125 185.742188 L 187.316406 184.046875 L 184.984375 180.445312 L 182.859375 176.632812 L 182.222656 174.9375 L 182.4375 173.457031 L 182.648438 172.398438 L 182.4375 171.550781 L 180.738281 170.492188 L 179.253906 169.433594 L 179.042969 168.585938 L 179.464844 167.527344 L 179.890625 165.832031 L 179.679688 163.714844 L 179.042969 161.382812 L 177.980469 159.054688 L 176.496094 156.9375 L 175.011719 155.664062 L 173.523438 155.027344 L 172.675781 155.242188 L 172.039062 155.664062 L 170.980469 156.722656 L 170.34375 156.9375 L 169.917969 156.722656 L 169.917969 156.089844 L 170.554688 153.96875 L 171.402344 151.851562 L 171.613281 151.214844 L 171.613281 150.792969 L 170.765625 150.792969 L 169.492188 151.214844 L 168.21875 151.429688 L 167.792969 151.214844 L 167.792969 151.003906 L 168.644531 149.734375 L 170.128906 148.039062 L 170.980469 146.132812 L 170.980469 145.496094 L 170.765625 145.285156 L 169.492188 145.921875 L 167.582031 146.980469 L 165.25 148.039062 L 164.613281 148.039062 L 164.613281 147.617188 L 165.25 146.558594 L 166.308594 145.496094 L 168.644531 142.746094 L 169.28125 141.683594 L 169.707031 141.050781 L 169.492188 140.414062 L 168.644531 140.203125 L 167.582031 140.625 L 166.097656 141.472656 L 164.824219 142.109375 L 163.976562 142.53125 L 163.339844 142.957031 L 162.488281 144.015625 L 162.066406 144.4375 L 162.277344 144.015625 L 162.488281 143.167969 L 163.125 141.261719 L 163.550781 139.566406 L 163.550781 138.933594 L 163.125 138.71875 L 162.277344 139.144531 L 161.855469 139.566406 L 161.21875 139.992188 L 160.15625 140.625 L 159.945312 140.625 L 160.15625 139.992188 L 161.855469 138.296875 L 164.1875 135.964844 L 166.523438 133.847656 L 166.945312 133.425781 L 166.523438 133.636719 L 165.460938 134.273438 L 163.761719 135.332031 L 159.519531 137.027344 L 157.183594 137.238281 L 155.0625 137.027344 L 154.851562 136.8125 L 155.0625 136.390625 L 155.910156 135.121094 L 157.183594 133.636719 L 158.035156 132.15625 Z M 151.242188 136.179688 " fill-opacity="1" fill-rule="evenodd"/><path fill="#000000" d="M 222.117188 163.5 L 221.269531 164.5625 L 220.421875 166.042969 L 219.996094 167.738281 L 219.785156 169.433594 L 219.996094 171.125 L 220.84375 172.820312 L 221.90625 173.878906 L 223.605469 174.726562 L 225.089844 174.9375 L 226.574219 174.9375 L 228.910156 174.304688 L 230.605469 173.878906 L 231.453125 173.878906 L 232.304688 174.304688 L 232.941406 174.726562 L 232.941406 175.152344 L 232.515625 175.363281 L 231.03125 175.152344 L 228.695312 175.152344 L 228.484375 175.574219 L 228.910156 176.421875 L 229.546875 177.480469 L 229.96875 178.539062 L 230.179688 178.964844 L 230.394531 178.964844 L 230.816406 178.539062 L 230.816406 177.691406 L 231.03125 177.90625 L 231.878906 178.964844 L 232.515625 180.65625 L 232.726562 181.929688 L 232.726562 182.140625 L 232.941406 182.140625 L 233.152344 181.503906 L 233.578125 178.964844 L 233.578125 178.328125 L 234 178.539062 L 234.851562 179.597656 L 235.0625 180.023438 L 235.273438 180.234375 L 235.488281 179.8125 L 235.273438 178.539062 L 235.273438 178.117188 L 235.488281 178.328125 L 236.125 180.023438 L 236.335938 182.140625 L 235.910156 182.988281 L 235.0625 183.625 L 234.214844 184.046875 L 234 184.257812 L 234.425781 184.683594 L 235.0625 185.105469 L 235.0625 185.53125 L 234.851562 186.164062 L 234.636719 186.589844 L 234.851562 186.589844 L 235.488281 186.164062 L 236.125 185.53125 L 237.609375 183.410156 L 238.246094 180.871094 L 238.246094 178.964844 L 238.667969 177.480469 L 239.304688 176.421875 L 240.792969 175.574219 L 242.703125 174.515625 L 244.1875 172.820312 L 245.035156 170.492188 L 245.25 169.007812 L 245.035156 167.3125 L 244.1875 164.347656 L 242.914062 162.230469 L 241.851562 160.113281 L 241.003906 157.359375 L 240.578125 154.183594 L 239.730469 151.851562 L 239.09375 150.160156 L 238.882812 149.734375 L 238.882812 149.523438 L 239.09375 149.734375 L 239.519531 149.945312 L 241.003906 150.371094 L 241.429688 150.160156 L 241.003906 149.734375 L 240.578125 149.097656 L 240.367188 148.464844 L 241.429688 147.40625 L 242.066406 146.980469 L 242.277344 146.769531 L 242.488281 147.40625 L 243.125 148.675781 L 244.398438 149.734375 L 245.035156 149.945312 L 246.097656 149.945312 L 247.792969 149.3125 L 248.644531 148.464844 L 249.066406 147.828125 L 249.066406 147.40625 L 249.28125 147.617188 L 249.917969 148.25 L 250.554688 149.097656 L 250.339844 149.734375 L 249.066406 150.582031 L 248.644531 150.792969 L 248.007812 151.003906 L 247.792969 151.003906 L 248.007812 151.003906 L 249.066406 151.214844 L 251.613281 151.003906 L 252.460938 150.371094 L 252.886719 149.523438 L 253.097656 148.464844 L 253.3125 147.191406 L 253.097656 146.558594 L 252.675781 145.710938 L 250.554688 144.226562 L 248.007812 142.957031 L 246.734375 142.53125 L 245.886719 142.320312 L 243.761719 142.53125 L 241.851562 143.378906 L 240.367188 144.015625 L 239.730469 144.4375 L 239.730469 144.015625 L 239.941406 143.167969 L 240.792969 141.261719 L 241.640625 140.839844 L 242.703125 140.839844 L 244.824219 140.625 L 245.671875 140.414062 L 246.734375 140.625 L 248.21875 141.050781 L 248.644531 141.472656 L 249.28125 141.898438 L 249.917969 142.109375 L 252.886719 142.109375 L 254.160156 141.898438 L 254.371094 141.898438 L 254.160156 142.320312 L 253.734375 142.957031 L 253.097656 143.167969 L 252.886719 143.378906 L 254.160156 144.226562 L 254.585938 144.863281 L 254.796875 145.285156 L 255.644531 145.074219 L 256.496094 144.4375 L 257.34375 143.59375 L 257.765625 142.53125 L 257.554688 141.472656 L 257.128906 140.625 L 256.496094 140.203125 L 256.28125 140.203125 L 256.496094 140.203125 L 257.34375 140.414062 L 258.617188 141.050781 L 259.253906 141.683594 L 259.253906 141.898438 L 259.464844 141.683594 L 259.464844 140.839844 L 258.828125 139.566406 L 257.554688 138.296875 L 256.28125 137.238281 L 255.855469 136.601562 L 255.433594 136.390625 L 254.585938 136.601562 L 252.460938 137.449219 L 251.1875 137.449219 L 250.128906 137.027344 L 249.917969 136.8125 L 249.703125 136.8125 L 250.554688 137.449219 L 252.25 138.507812 L 254.371094 139.144531 L 255.222656 139.355469 L 254.796875 139.144531 L 254.160156 139.144531 L 252.039062 138.71875 L 250.554688 138.085938 L 249.917969 137.449219 L 249.28125 137.027344 L 247.582031 137.027344 L 247.160156 136.8125 L 246.308594 135.964844 L 244.824219 135.753906 L 243.761719 135.753906 L 244.1875 135.964844 L 246.734375 137.238281 L 247.371094 137.875 L 247.792969 138.507812 L 248.429688 138.933594 L 249.28125 139.566406 L 249.917969 139.777344 L 249.492188 139.777344 L 248.429688 139.566406 L 247.160156 139.144531 L 246.519531 138.507812 L 245.886719 137.449219 L 245.035156 137.027344 L 243.976562 136.8125 L 242.066406 136.179688 L 241.003906 135.121094 L 241.003906 134.273438 L 241.429688 133.214844 L 242.277344 131.941406 L 243.339844 131.09375 L 243.550781 130.882812 L 243.125 130.882812 L 241.851562 131.730469 L 240.15625 133.636719 L 239.519531 134.90625 L 239.09375 136.390625 L 238.457031 137.660156 L 237.183594 138.507812 L 235.488281 138.933594 L 233.152344 138.933594 L 232.941406 139.355469 L 233.363281 140.203125 L 235.488281 142.53125 L 235.910156 142.957031 L 235.910156 144.226562 L 235.699219 145.074219 L 235.699219 146.769531 L 235.910156 147.617188 L 236.546875 148.675781 L 238.246094 151.851562 L 239.519531 155.453125 L 239.941406 157.359375 L 240.367188 158.84375 L 240.578125 160.113281 L 241.429688 161.808594 L 242.066406 163.078125 L 242.914062 164.347656 L 243.550781 165.832031 L 244.398438 169.007812 L 244.1875 170.703125 L 243.339844 171.972656 L 241.214844 174.09375 L 239.304688 175.363281 L 237.609375 175.785156 L 236.546875 175.574219 L 235.488281 174.515625 L 235.0625 173.878906 L 234.425781 173.035156 L 233.152344 171.761719 L 232.304688 171.550781 L 231.242188 171.550781 L 229.121094 172.1875 L 227.210938 173.035156 L 225.300781 173.457031 L 223.390625 172.820312 L 221.90625 171.339844 L 221.054688 169.433594 L 221.054688 167.101562 L 221.90625 164.5625 Z M 222.117188 163.5 " fill-opacity="1" fill-rule="evenodd"/><path fill="#003366" d="M 243.976562 147.191406 C 243.976562 146.722656 244.304688 146.34375 244.71875 146.34375 C 245.132812 146.34375 245.460938 146.722656 245.460938 147.191406 C 245.460938 147.664062 245.132812 148.039062 244.71875 148.039062 C 244.304688 148.039062 243.976562 147.664062 243.976562 147.191406 Z M 243.976562 147.191406 " fill-opacity="1" fill-rule="evenodd"/><path fill="#003366" d="M 241.851562 145.496094 L 243.125 144.863281 L 244.824219 144.4375 L 246.945312 144.4375 L 249.28125 144.863281 L 250.128906 145.074219 L 249.28125 144.226562 L 248.007812 143.804688 L 244.824219 143.167969 L 243.125 143.378906 L 241.851562 144.226562 Z M 241.851562 145.496094 " fill-opacity="1" fill-rule="evenodd"/><path fill="#000000" d="M 249.703125 151.640625 L 249.066406 152.277344 L 248.429688 152.699219 L 246.734375 152.910156 L 245.035156 152.699219 L 244.398438 152.488281 L 244.1875 152.488281 L 244.398438 152.699219 L 245.25 153.335938 L 246.097656 153.757812 L 246.734375 153.96875 L 247.160156 154.183594 L 247.371094 154.816406 L 247.371094 156.300781 L 247.582031 156.511719 L 248.007812 156.300781 L 249.28125 155.242188 L 250.976562 153.757812 L 251.828125 152.0625 Z M 249.703125 151.640625 " fill-opacity="1" fill-rule="evenodd"/><path fill="#02284d" d="M 252.675781 164.136719 L 252.886719 166.890625 L 253.734375 169.855469 L 254.796875 172.1875 L 255.433594 173.035156 L 255.855469 173.457031 L 256.070312 173.457031 L 255.433594 173.246094 L 253.734375 172.1875 L 253.523438 171.972656 L 253.734375 172.398438 L 254.371094 173.457031 L 254.585938 174.304688 L 255.007812 175.152344 L 255.007812 176.421875 L 254.796875 176.84375 L 254.585938 176.84375 L 254.585938 176.210938 L 254.160156 175.152344 L 253.097656 173.878906 L 251.828125 172.609375 L 251.1875 170.914062 L 250.976562 169.21875 L 251.1875 167.738281 L 251.402344 167.527344 L 251.402344 167.949219 L 251.613281 168.796875 L 251.613281 170.066406 L 252.25 172.820312 L 252.460938 174.09375 L 253.097656 174.726562 L 253.949219 176 L 254.371094 177.480469 L 254.160156 178.75 L 254.160156 179.386719 L 254.160156 178.964844 L 253.949219 177.90625 L 252.886719 175.574219 L 252.675781 175.363281 L 252.675781 175.785156 L 252.886719 177.269531 L 253.523438 179.386719 L 254.796875 181.082031 L 255.433594 181.503906 L 255.433594 182.140625 L 255.007812 182.140625 L 254.371094 181.929688 L 253.734375 181.503906 L 252.675781 180.445312 L 251.613281 179.175781 L 250.554688 177.691406 L 249.703125 176.421875 L 248.855469 174.515625 L 248.21875 173.035156 L 247.792969 172.1875 L 247.582031 172.1875 L 247.582031 173.035156 L 247.792969 174.09375 L 248.21875 175.574219 L 249.917969 179.175781 L 252.460938 182.777344 L 253.734375 184.257812 L 254.371094 185.320312 L 254.796875 186.164062 L 255.007812 186.800781 L 255.007812 187.4375 L 254.796875 187.4375 L 254.585938 187.011719 L 253.949219 186.164062 L 253.097656 185.105469 L 252.25 184.46875 L 251.613281 184.257812 L 250.976562 183.625 L 249.917969 181.929688 L 249.066406 180.234375 L 248.644531 179.8125 L 248.644531 179.597656 L 248.855469 179.8125 L 249.28125 180.65625 L 250.976562 183.410156 L 252.460938 186.375 L 252.886719 187.4375 L 253.097656 188.28125 L 252.886719 188.492188 L 252.460938 188.070312 L 251.828125 187.4375 L 250.976562 186.375 L 248.855469 184.046875 L 247.582031 183.199219 L 246.308594 182.5625 L 245.460938 181.71875 L 245.25 179.8125 L 245.671875 177.269531 L 246.308594 174.726562 L 247.371094 171.972656 L 248.429688 169.433594 L 249.492188 167.527344 L 250.339844 166.679688 Z M 252.675781 164.136719 " fill-opacity="1" fill-rule="evenodd"/><path fill="#02284d" d="M 136.390625 126.648438 L 135.539062 127.917969 L 134.480469 129.1875 L 131.507812 131.09375 L 127.902344 131.941406 L 126.203125 131.941406 L 124.71875 131.519531 L 124.082031 131.308594 L 123.65625 131.09375 L 124.292969 131.519531 L 125.355469 132.15625 L 128.324219 133 L 129.597656 133.214844 L 130.871094 133.214844 L 130.871094 133.636719 L 130.234375 135.121094 L 128.960938 136.8125 L 126.839844 137.875 L 125.992188 138.085938 L 125.777344 138.296875 L 126.203125 138.507812 L 127.050781 138.507812 L 129.175781 138.296875 L 130.234375 137.875 L 131.296875 137.027344 L 133.207031 135.121094 L 135.117188 133 L 136.8125 130.460938 L 137.875 127.492188 Z M 136.390625 126.648438 " fill-opacity="1" fill-rule="evenodd"/><path fill="#02284d" d="M 133.207031 137.238281 L 132.78125 138.085938 L 131.933594 138.933594 L 129.597656 140.203125 L 126.839844 140.839844 L 124.71875 140.839844 L 124.082031 140.625 L 123.871094 140.839844 L 124.082031 141.261719 L 125.140625 141.683594 L 126.628906 142.109375 L 127.050781 142.320312 L 127.265625 142.320312 L 126.839844 142.746094 L 125.140625 142.957031 L 123.019531 142.746094 L 122.382812 142.746094 L 122.597656 143.167969 L 123.65625 143.804688 L 125.140625 144.226562 L 127.050781 144.4375 L 129.175781 143.804688 L 131.296875 142.320312 L 132.355469 141.261719 L 133.207031 139.777344 Z M 133.207031 137.238281 " fill-opacity="1" fill-rule="evenodd"/><path fill="#02284d" d="M 133.628906 140.203125 L 132.570312 143.167969 L 130.449219 145.921875 L 127.902344 147.828125 L 126.839844 148.25 L 125.566406 148.464844 L 124.929688 148.464844 L 124.929688 148.675781 L 125.777344 148.886719 L 126.839844 148.886719 L 129.386719 148.25 L 130.660156 147.40625 L 131.507812 146.132812 L 131.933594 145.074219 L 132.144531 144.863281 L 132.144531 145.496094 L 131.933594 146.34375 L 130.871094 149.097656 L 129.8125 150.160156 L 128.75 151.003906 L 127.902344 151.429688 L 127.902344 151.640625 L 128.539062 151.640625 L 129.597656 151.214844 L 130.871094 150.160156 L 132.144531 148.464844 L 133.417969 145.921875 L 134.265625 142.53125 Z M 133.628906 140.203125 " fill-opacity="1" fill-rule="evenodd"/><path fill="#000000" d="M 196.441406 73.90625 L 193.046875 74.117188 L 189.863281 74.964844 L 186.894531 76.238281 L 184.347656 77.71875 L 179.464844 81.742188 L 175.433594 86.191406 L 171.613281 90.851562 L 168.21875 95.089844 L 166.308594 96.78125 L 164.613281 98.265625 L 162.703125 99.324219 L 160.792969 99.960938 L 163.125 98.476562 L 165.25 96.78125 L 168.855469 92.546875 L 171.824219 88.308594 L 172.886719 86.402344 L 173.949219 84.710938 L 176.070312 81.957031 L 179.042969 79.625 L 181.375 78.144531 L 182.222656 77.71875 L 182.4375 77.507812 L 182.011719 77.507812 L 180.949219 77.929688 L 179.464844 78.355469 L 177.769531 78.992188 L 173.738281 80.894531 L 171.824219 82.167969 L 170.128906 83.648438 L 170.554688 83.015625 L 171.1875 82.378906 L 172.886719 80.261719 L 174.796875 78.566406 L 175.433594 77.929688 L 176.070312 77.71875 L 176.28125 77.71875 L 170.765625 77.71875 L 169.28125 77.929688 L 168.21875 77.929688 L 166.734375 78.144531 L 165.886719 78.566406 L 164.824219 79.203125 L 163.339844 80.472656 L 161.003906 82.378906 L 158.246094 84.710938 L 155.0625 87.460938 L 148.695312 93.179688 L 145.9375 95.722656 L 143.605469 98.050781 L 142.96875 98.902344 L 142.542969 99.324219 L 142.332031 99.535156 L 142.542969 99.535156 L 143.816406 98.6875 L 145.511719 97.207031 L 149.546875 93.394531 L 151.453125 91.910156 L 152.726562 90.851562 L 153.363281 90.429688 L 153.789062 90.429688 L 153.578125 90.851562 L 153.363281 91.699219 L 152.089844 93.394531 L 150.394531 94.875 L 149.96875 95.089844 L 150.183594 95.089844 L 151.242188 94.664062 L 152.726562 94.027344 L 154.636719 92.96875 L 156.761719 91.488281 L 161.429688 87.886719 L 160.15625 90.214844 L 158.882812 92.121094 L 155.910156 95.089844 L 152.726562 97.207031 L 149.332031 99.324219 L 148.695312 99.746094 L 148.273438 100.171875 L 148.273438 100.382812 L 148.484375 100.382812 L 149.757812 100.171875 L 151.667969 99.324219 L 153.789062 98.265625 L 156.335938 96.78125 L 158.671875 95.089844 L 160.792969 93.179688 L 159.945312 94.875 L 158.671875 96.570312 L 155.0625 99.960938 L 150.816406 102.714844 L 148.695312 103.773438 L 146.785156 104.617188 L 143.390625 105.890625 L 140.847656 107.371094 L 135.964844 110.761719 L 133.628906 112.246094 L 132.144531 113.304688 L 130.234375 113.9375 L 130.871094 113.726562 L 131.933594 113.726562 L 133.417969 113.515625 L 136.8125 112.878906 L 140.210938 111.820312 L 141.269531 111.398438 L 141.695312 111.609375 L 141.480469 112.246094 L 140.847656 113.089844 L 138.511719 114.996094 L 135.964844 116.691406 L 135.328125 117.117188 L 135.328125 116.902344 L 136.175781 116.269531 L 137.664062 115.632812 L 141.269531 113.726562 L 143.390625 112.878906 L 145.511719 112.457031 L 149.757812 112.03125 L 154.425781 111.183594 L 159.730469 109.914062 L 162.703125 108.855469 L 165.886719 107.796875 L 169.28125 106.3125 L 172.675781 104.195312 L 175.859375 101.65625 L 179.042969 98.6875 L 181.585938 95.722656 L 183.710938 92.96875 L 185.40625 90.214844 L 186.257812 87.675781 L 182.859375 91.0625 L 179.890625 94.242188 L 178.617188 95.722656 L 177.34375 96.996094 L 176.496094 97.628906 L 175.648438 98.050781 L 175.433594 97.839844 L 175.648438 96.996094 L 176.496094 95.511719 L 177.769531 93.816406 L 179.042969 91.910156 L 180.527344 90.003906 L 181.800781 88.097656 L 182.859375 86.617188 L 184.984375 84.074219 L 187.316406 81.957031 L 189.226562 80.472656 L 189.863281 80.050781 L 190.078125 79.835938 L 189.652344 80.050781 L 188.167969 80.894531 L 186.042969 82.167969 L 183.710938 83.863281 L 181.164062 85.980469 L 178.617188 88.523438 L 176.496094 91.488281 L 174.796875 94.875 L 173.3125 97.839844 L 171.613281 99.746094 L 169.917969 100.808594 L 168.21875 101.230469 L 166.523438 101.230469 L 165.25 101.019531 L 164.398438 100.808594 L 163.976562 100.59375 L 164.1875 100.382812 L 164.613281 99.535156 L 165.460938 98.476562 L 166.734375 97.207031 L 169.917969 93.394531 L 173.738281 89.371094 L 177.980469 85.132812 L 182.222656 81.320312 L 184.347656 79.625 L 186.257812 78.355469 L 188.167969 77.507812 L 189.652344 77.085938 Z M 196.441406 73.90625 " fill-opacity="1" fill-rule="evenodd"/><path fill="#000000" d="M 175.222656 104.617188 L 174.160156 108.007812 L 172.886719 110.761719 L 171.402344 113.304688 L 169.492188 115.421875 L 167.371094 117.117188 L 164.613281 118.386719 L 161.640625 119.234375 L 158.246094 119.65625 L 154.636719 120.082031 L 151.03125 120.929688 L 147.636719 121.988281 L 144.664062 123.046875 L 141.90625 124.105469 L 140.847656 124.742188 L 139.785156 125.164062 L 138.511719 125.800781 L 137.875 126.011719 L 138.300781 125.589844 L 139.574219 124.742188 L 141.695312 123.46875 L 144.242188 121.988281 L 149.757812 119.023438 L 152.304688 118.175781 L 154.425781 117.75 L 158.882812 117.539062 L 163.550781 117.117188 L 165.671875 116.480469 L 167.582031 115.84375 L 168.855469 114.785156 L 169.707031 113.726562 L 169.917969 112.878906 L 169.707031 112.457031 L 169.066406 112.667969 L 167.792969 113.304688 L 166.308594 114.152344 L 164.398438 114.785156 L 162.066406 115.421875 L 159.519531 115.632812 L 158.035156 115.632812 L 158.671875 115.421875 L 159.519531 115.210938 L 160.582031 114.996094 L 163.761719 114.152344 L 167.15625 112.457031 L 170.34375 110.335938 L 171.613281 108.855469 L 172.886719 107.160156 L 173.738281 105.253906 L 174.160156 102.925781 Z M 175.222656 104.617188 " fill-opacity="1" fill-rule="evenodd"/><path fill="#000000" d="M 170.980469 115.84375 L 170.34375 118.386719 L 169.492188 120.71875 L 168.429688 122.835938 L 167.371094 124.527344 L 165.886719 125.800781 L 163.976562 126.859375 L 161.640625 127.707031 L 158.882812 128.128906 L 152.941406 129.398438 L 147.636719 131.519531 L 145.300781 132.578125 L 143.179688 133.847656 L 141.695312 135.121094 L 140.421875 136.179688 L 139.996094 136.601562 L 139.785156 136.8125 L 140.210938 136.601562 L 141.058594 135.542969 L 142.753906 134.058594 L 145.089844 132.367188 L 147.847656 130.460938 L 151.453125 128.765625 L 155.273438 127.28125 L 154.636719 126.859375 L 153.789062 126.859375 L 151.667969 127.28125 L 149.546875 127.917969 L 148.695312 128.128906 L 148.484375 128.128906 L 148.484375 127.917969 L 148.910156 127.707031 L 149.757812 127.070312 L 151.03125 126.433594 L 152.726562 126.011719 L 154.636719 125.375 L 156.972656 125.164062 L 162.066406 125.164062 L 163.976562 124.742188 L 165.671875 123.894531 L 166.734375 122.835938 L 168.644531 120.082031 L 169.28125 118.386719 L 170.128906 116.480469 Z M 170.980469 115.84375 " fill-opacity="1" fill-rule="evenodd"/><path fill="#000000" d="M 143.179688 118.597656 L 145.9375 115.632812 L 148.910156 113.726562 L 151.878906 112.457031 L 154.636719 111.609375 L 157.183594 110.972656 L 159.308594 110.335938 L 161.003906 109.277344 L 162.066406 107.796875 L 161.21875 109.703125 L 159.519531 111.183594 L 157.398438 112.03125 L 154.851562 112.878906 L 149.332031 114.574219 L 146.785156 115.84375 L 144.664062 117.75 Z M 143.179688 118.597656 " fill-opacity="1" fill-rule="evenodd"/><path fill="#000000" d="M 167.15625 126.648438 L 165.886719 128.765625 L 164.398438 130.460938 L 163.125 131.941406 L 161.855469 132.789062 L 159.09375 134.058594 L 156.546875 134.695312 L 151.878906 134.90625 L 150.183594 135.121094 L 148.695312 136.179688 L 149.757812 134.90625 L 151.242188 134.058594 L 153.152344 133.636719 L 157.820312 132.789062 L 160.367188 131.730469 L 162.914062 130.25 L 165.25 127.917969 Z M 167.15625 126.648438 " fill-opacity="1" fill-rule="evenodd"/><path fill="#000000" d="M 167.792969 133.214844 L 167.582031 134.484375 L 166.734375 135.964844 L 163.976562 138.933594 L 161.003906 142.320312 L 159.730469 144.015625 L 158.882812 145.921875 L 158.457031 147.191406 L 158.035156 147.617188 L 158.035156 146.980469 L 158.457031 145.710938 L 159.308594 143.804688 L 160.792969 141.261719 L 163.125 138.507812 L 166.097656 135.332031 Z M 167.792969 133.214844 " fill-opacity="1" fill-rule="evenodd"/><path fill="#02284d" d="M 169.28125 100.808594 L 168.21875 102.078125 L 166.308594 102.925781 L 164.1875 103.558594 L 161.640625 103.984375 L 156.546875 105.042969 L 154.214844 105.890625 L 152.089844 107.160156 L 151.242188 107.796875 L 150.605469 108.007812 L 150.183594 108.21875 L 150.605469 107.585938 L 151.878906 106.527344 L 154 105.253906 L 157.183594 103.773438 L 161.21875 102.5 L 166.308594 101.65625 Z M 169.28125 100.808594 " fill-opacity="1" fill-rule="evenodd"/><path fill="#000000" d="M 179.253906 73.695312 L 173.523438 74.964844 L 168.007812 77.085938 L 162.914062 79.625 L 158.246094 82.378906 L 154.214844 85.554688 L 151.03125 88.523438 L 148.484375 91.273438 L 147.847656 92.546875 L 147.210938 93.605469 L 146.785156 94.453125 L 146.574219 94.875 L 146.363281 95.089844 L 146.363281 94.875 L 146.574219 94.453125 L 146.785156 93.816406 L 147.847656 91.699219 L 149.546875 88.945312 L 152.089844 85.769531 L 155.488281 82.378906 L 159.945312 78.992188 L 161.21875 78.355469 L 163.125 77.71875 L 168.429688 75.8125 L 171.402344 74.964844 L 173.738281 74.332031 L 175.859375 73.90625 L 176.917969 73.695312 Z M 179.253906 73.695312 " fill-opacity="1" fill-rule="evenodd"/><path fill="#000000" d="M 152.515625 178.328125 L 154.851562 178.117188 L 156.546875 177.691406 L 157.820312 177.058594 L 158.246094 176.84375 L 158.035156 177.058594 L 157.820312 177.480469 L 156.546875 178.964844 L 155.0625 180.445312 L 153.789062 181.503906 L 153.578125 181.929688 L 154.214844 182.140625 L 156.761719 181.503906 L 157.183594 181.503906 L 156.972656 181.503906 L 156.546875 181.929688 L 155.910156 182.5625 L 155.0625 183.410156 L 154 184.46875 L 152.941406 186.164062 L 152.089844 188.070312 L 153.363281 186.375 L 154.636719 185.53125 L 155.699219 185.105469 L 157.398438 185.105469 L 156.761719 185.320312 L 155.910156 185.742188 L 154.636719 186.375 L 153.578125 187.4375 L 152.304688 189.128906 L 151.242188 191.460938 L 150.816406 192.519531 L 150.605469 192.941406 L 150.183594 192.941406 L 150.183594 192.519531 L 149.96875 190.613281 L 150.183594 188.070312 L 150.605469 182.351562 L 151.03125 180.234375 L 151.03125 179.386719 Z M 152.515625 178.328125 " fill-opacity="1" fill-rule="evenodd"/><path fill="#000000" d="M 158.035156 205.226562 L 158.246094 209.464844 L 158.035156 214.125 L 156.972656 218.359375 L 156.125 219.84375 L 155.273438 221.113281 L 156.972656 220.265625 L 158.035156 218.996094 L 158.457031 217.300781 L 158.671875 215.605469 L 158.671875 215.183594 L 158.882812 215.394531 L 158.882812 216.03125 L 159.09375 217.089844 L 158.457031 220.054688 L 157.820312 221.535156 L 156.761719 223.019531 L 158.457031 221.75 L 159.730469 220.265625 L 160.582031 218.148438 L 160.792969 216.664062 L 160.582031 214.761719 L 161.429688 216.242188 L 162.066406 217.300781 L 162.488281 218.148438 L 162.703125 219.207031 L 162.703125 219.417969 L 162.703125 219.207031 L 162.914062 218.785156 L 162.703125 217.722656 L 162.277344 215.394531 L 160.792969 212.855469 L 159.308594 210.523438 L 158.457031 208.195312 L 158.246094 206.5 L 158.246094 205.863281 Z M 158.035156 205.226562 " fill-opacity="1" fill-rule="evenodd"/><path fill="#000000" d="M 156.972656 191.460938 L 155.699219 192.308594 L 154.636719 193.367188 L 153.152344 195.90625 L 152.515625 199.296875 L 152.726562 203.324219 L 154 207.136719 L 154.851562 208.617188 L 155.488281 209.886719 L 155.910156 211.160156 L 156.125 212.21875 L 155.910156 213.277344 L 155.0625 214.335938 L 154.425781 215.183594 L 154.636719 215.605469 L 155.273438 215.183594 L 156.125 214.335938 L 156.761719 212.640625 L 156.761719 210.523438 L 156.546875 209.042969 L 155.910156 207.554688 L 155.0625 205.863281 L 154 203.957031 L 153.789062 203.109375 L 153.789062 202.050781 L 154.425781 199.71875 L 155.488281 197.390625 L 156.761719 195.699219 L 157.183594 195.273438 L 156.972656 195.273438 L 155.699219 195.90625 L 154 197.179688 L 153.363281 198.027344 L 153.152344 198.875 L 152.941406 199.507812 L 152.941406 198.660156 L 153.152344 197.605469 L 154 194.847656 L 154.851562 193.578125 L 155.910156 192.519531 Z M 156.972656 191.460938 " fill-opacity="1" fill-rule="evenodd"/><path fill="#000000" d="M 215.539062 171.972656 L 213.207031 172.609375 L 211.507812 173.246094 L 210.234375 174.09375 L 209.386719 174.9375 L 208.75 176.421875 L 208.539062 177.269531 L 208.113281 177.269531 L 207.050781 177.058594 L 205.777344 176.632812 L 204.71875 176.84375 L 203.445312 178.117188 L 200.898438 181.503906 L 200.472656 182.140625 L 200.261719 182.5625 L 200.683594 182.140625 L 201.324219 181.503906 L 201.957031 180.65625 L 203.867188 178.964844 L 204.71875 178.328125 L 205.566406 178.117188 L 206.628906 178.328125 L 206.839844 179.175781 L 206.839844 180.023438 L 207.050781 179.597656 L 207.902344 178.75 L 208.960938 177.269531 L 210.023438 175.152344 L 210.660156 174.304688 L 211.082031 174.09375 L 211.296875 174.304688 L 211.507812 174.726562 L 211.71875 176 L 211.71875 176.632812 L 211.933594 176.421875 L 212.570312 175.574219 L 212.992188 174.726562 L 213.207031 174.09375 L 213.628906 173.878906 L 214.265625 174.304688 L 214.902344 175.152344 L 215.117188 176.421875 L 215.117188 176.84375 L 215.328125 176.84375 L 215.964844 176 L 216.601562 174.515625 L 216.8125 172.820312 Z M 215.539062 171.972656 " fill-opacity="1" fill-rule="evenodd"/><path fill="#000000" d="M 180.738281 164.773438 L 179.890625 170.703125 L 179.890625 173.667969 L 180.738281 176.632812 L 181.164062 177.90625 L 181.375 179.175781 L 181.375 180.871094 L 180.949219 181.929688 L 180.527344 182.351562 L 180.738281 181.929688 L 181.800781 180.871094 L 182.4375 179.175781 L 182.648438 178.117188 L 182.4375 176.84375 L 181.585938 174.726562 L 180.949219 173.246094 L 180.527344 171.550781 L 180.738281 170.492188 L 181.164062 169.21875 L 182.222656 169.855469 L 182.859375 170.703125 L 183.710938 172.609375 L 183.710938 174.726562 L 183.921875 174.304688 L 184.347656 172.820312 L 184.347656 171.972656 L 184.132812 170.914062 L 183.496094 169.644531 L 182.4375 168.375 Z M 180.738281 164.773438 " fill-opacity="1" fill-rule="evenodd"/><path fill="#003366" d="M 188.804688 176 L 187.316406 177.90625 L 186.679688 180.445312 L 186.679688 182.988281 L 187.105469 185.320312 L 187.316406 185.953125 L 187.53125 186.164062 L 187.53125 184.894531 L 187.316406 182.5625 L 187.53125 180.65625 L 187.742188 180.234375 L 188.167969 180.234375 L 188.804688 181.292969 L 189.226562 182.777344 L 189.015625 183.835938 L 189.015625 184.257812 L 189.652344 184.046875 L 190.078125 183.625 L 190.078125 182.988281 L 189.863281 181.929688 L 189.441406 180.445312 L 188.804688 179.175781 L 188.589844 178.117188 L 188.378906 177.480469 L 188.378906 177.058594 L 188.804688 176.84375 Z M 188.804688 176 " fill-opacity="1" fill-rule="evenodd"/><path fill="#000000" d="M 198.351562 183.835938 L 197.925781 184.683594 L 197.714844 185.953125 L 197.925781 188.917969 L 198.351562 191.671875 L 198.777344 192.730469 L 199.199219 193.15625 L 199.414062 193.367188 L 198.5625 192.941406 L 197.503906 191.671875 L 197.078125 190.613281 L 196.867188 189.34375 L 196.867188 188.28125 L 196.65625 187.859375 L 196.230469 188.28125 L 195.382812 189.554688 L 194.109375 190.613281 L 193.472656 190.613281 L 193.683594 190.1875 L 194.109375 189.765625 L 194.53125 189.128906 L 194.957031 188.28125 L 195.167969 186.589844 L 194.957031 185.953125 L 194.320312 185.742188 L 193.046875 186.375 L 191.5625 187.859375 L 191.347656 188.070312 L 191.5625 187.648438 L 191.984375 186.375 L 192.410156 184.683594 L 192.621094 182.5625 L 192.621094 181.929688 L 192.835938 181.929688 L 193.046875 182.777344 L 193.472656 184.257812 L 194.109375 185.320312 L 194.746094 185.320312 L 195.382812 184.894531 L 195.804688 182.988281 L 195.804688 182.777344 L 195.804688 182.988281 L 196.230469 184.257812 L 196.441406 185.953125 L 196.441406 186.800781 L 197.714844 184.683594 Z M 198.351562 183.835938 " fill-opacity="1" fill-rule="evenodd"/><path fill="#000000" d="M 211.933594 183.199219 L 211.933594 185.53125 L 211.507812 187.4375 L 210.445312 188.707031 L 208.960938 189.554688 L 207.6875 190.824219 L 207.476562 192.308594 L 207.6875 194 L 208.324219 195.699219 L 208.539062 196.121094 L 208.539062 195.0625 L 208.75 192.941406 L 209.597656 191.25 L 210.023438 190.824219 L 210.445312 190.824219 L 210.660156 191.886719 L 210.871094 193.367188 L 210.871094 193.792969 L 211.082031 194 L 211.296875 193.792969 L 211.507812 193.367188 L 211.933594 192.308594 L 212.78125 190.824219 L 213.628906 190.402344 L 214.902344 189.976562 L 217.875 189.554688 L 221.269531 189.554688 L 224.453125 189.765625 L 227 190.1875 L 228.695312 190.824219 L 230.605469 191.671875 L 232.726562 192.09375 L 234 192.09375 L 235.488281 191.886719 L 237.183594 191.671875 L 238.667969 191.886719 L 241.429688 193.15625 L 243.125 194.425781 L 243.550781 194.847656 L 243.761719 195.0625 L 243.550781 195.273438 L 243.339844 195.90625 L 242.703125 198.238281 L 242.066406 200.78125 L 242.277344 202.050781 L 242.488281 202.898438 L 242.914062 203.53125 L 243.125 203.109375 L 243.125 200.566406 L 243.550781 198.875 L 243.976562 198.449219 L 244.1875 198.449219 L 244.398438 199.507812 L 244.613281 201.203125 L 245.671875 202.6875 L 246.097656 202.898438 L 246.097656 202.472656 L 245.671875 201.414062 L 245.25 200.144531 L 244.613281 196.753906 L 244.613281 195.0625 L 245.035156 193.367188 L 245.035156 192.941406 L 244.824219 192.519531 L 243.125 192.09375 L 240.792969 191.671875 L 238.03125 190.613281 L 236.972656 189.976562 L 236.125 189.765625 L 235.273438 189.765625 L 234.851562 189.976562 L 234.214844 189.976562 L 233.363281 190.1875 L 232.304688 189.976562 L 229.757812 189.34375 L 227.210938 188.492188 L 224.027344 188.070312 L 222.117188 188.070312 L 219.996094 188.492188 L 217.875 188.917969 L 216.175781 189.34375 L 214.902344 189.554688 L 214.054688 189.765625 L 213.628906 189.554688 L 213.417969 189.34375 L 213.207031 188.707031 L 213.207031 187.859375 Z M 211.933594 183.199219 " fill-opacity="1" fill-rule="evenodd"/><path fill="#02284d" d="M 224.242188 197.605469 L 224.664062 199.71875 L 224.453125 201.414062 L 224.027344 202.6875 L 222.753906 204.382812 L 222.542969 205.226562 L 222.542969 206.285156 L 223.390625 207.34375 L 224.242188 208.617188 L 224.664062 209.886719 L 224.664062 212.21875 L 224.027344 213.699219 L 223.816406 214.125 L 223.605469 214.125 L 223.816406 213.910156 L 224.242188 213.277344 L 225.515625 211.582031 L 226.363281 209.253906 L 226.148438 208.195312 L 225.515625 207.136719 L 224.875 206.074219 L 224.453125 204.804688 L 224.875 202.6875 L 225.515625 201.414062 L 225.722656 201.203125 L 225.9375 201.414062 L 225.722656 202.6875 L 225.722656 203.957031 L 225.9375 205.226562 L 227.847656 207.136719 L 229.121094 207.980469 L 230.179688 208.617188 L 231.453125 209.675781 L 229.332031 207.136719 L 228.058594 204.804688 L 227.210938 202.898438 L 226.789062 200.992188 L 226.574219 199.507812 L 226.148438 198.449219 L 225.515625 197.8125 Z M 224.242188 197.605469 " fill-opacity="1" fill-rule="evenodd"/><path fill="#02284d" d="M 236.125 200.992188 L 237.394531 202.472656 L 238.246094 204.382812 L 238.667969 206.710938 L 238.667969 213.488281 L 238.882812 215.183594 L 239.304688 216.03125 L 239.730469 216.453125 L 239.519531 216.664062 L 238.882812 216.453125 L 238.246094 215.816406 L 237.609375 214.761719 L 236.972656 213.066406 L 236.972656 210.734375 L 237.394531 207.34375 L 237.609375 205.863281 L 237.609375 205.015625 L 236.972656 203.746094 L 236.125 202.898438 L 235.273438 201.625 Z M 236.125 200.992188 " fill-opacity="1" fill-rule="evenodd"/><path fill="#02284d" d="M 194.320312 232.972656 L 194.53125 237.210938 L 194.320312 241.871094 L 193.257812 246.105469 L 192.410156 247.589844 L 191.5625 248.859375 L 193.257812 248.011719 L 194.320312 246.742188 L 194.746094 245.261719 L 194.957031 243.566406 L 194.957031 243.140625 L 195.167969 243.140625 L 195.167969 243.777344 L 195.382812 244.835938 L 194.746094 247.800781 L 194.109375 249.285156 L 193.046875 250.765625 L 194.746094 249.707031 L 196.019531 248.222656 L 196.867188 245.894531 L 197.078125 244.410156 L 196.867188 242.503906 L 197.714844 244.199219 L 198.351562 245.261719 L 198.777344 246.105469 L 198.988281 246.953125 L 198.988281 247.378906 L 198.988281 247.164062 L 199.199219 246.53125 L 198.988281 245.683594 L 198.5625 243.140625 L 197.078125 240.601562 L 195.59375 238.269531 L 194.746094 235.941406 L 194.53125 234.246094 L 194.53125 233.609375 Z M 194.320312 232.972656 " fill-opacity="1" fill-rule="evenodd"/><path fill="#02284d" d="M 190.289062 216.03125 L 189.015625 216.878906 L 187.953125 217.9375 L 186.46875 220.480469 L 185.832031 223.867188 L 186.257812 227.890625 L 186.679688 229.796875 L 187.316406 231.703125 L 188.167969 233.1875 L 188.804688 234.457031 L 189.226562 235.726562 L 189.441406 236.785156 L 189.226562 237.847656 L 188.378906 238.90625 L 187.742188 239.753906 L 187.953125 240.175781 L 188.589844 239.753906 L 189.441406 238.90625 L 190.078125 237.210938 L 190.078125 235.09375 L 189.863281 233.609375 L 189.226562 232.128906 L 188.378906 230.433594 L 187.316406 228.527344 L 187.105469 227.679688 L 187.105469 226.621094 L 187.742188 224.289062 L 188.804688 221.960938 L 190.078125 220.265625 L 190.5 219.84375 L 190.289062 219.84375 L 189.863281 220.054688 L 189.015625 220.480469 L 187.53125 221.75 L 186.894531 222.597656 L 186.46875 223.441406 L 186.46875 224.078125 L 186.257812 223.867188 L 186.257812 223.230469 L 186.46875 222.171875 L 187.316406 219.417969 L 188.167969 218.148438 L 189.226562 217.089844 Z M 190.289062 216.03125 " fill-opacity="1" fill-rule="evenodd"/><path fill="#02284d" d="M 246.519531 250.34375 L 246.945312 254.578125 L 246.519531 259.238281 L 245.671875 263.476562 L 244.824219 264.957031 L 243.976562 266.230469 L 245.460938 265.378906 L 246.519531 264.109375 L 246.945312 262.628906 L 247.160156 260.933594 L 247.160156 260.507812 L 247.371094 260.507812 L 247.371094 261.144531 L 247.582031 262.203125 L 246.945312 265.171875 L 246.308594 266.652344 L 245.25 268.136719 L 246.945312 266.863281 L 248.21875 265.378906 L 249.066406 263.265625 L 249.28125 261.78125 L 249.066406 259.875 L 249.917969 261.359375 L 250.554688 262.417969 L 250.976562 263.265625 L 251.1875 264.324219 L 251.1875 264.535156 L 251.402344 264.324219 L 251.402344 262.839844 L 250.765625 260.507812 L 250.128906 259.238281 L 249.28125 257.96875 L 247.792969 255.636719 L 246.945312 253.308594 L 246.734375 251.613281 L 246.734375 250.980469 Z M 246.519531 250.34375 " fill-opacity="1" fill-rule="evenodd"/><path fill="#02284d" d="M 214.265625 267.710938 L 213.84375 269.191406 L 213.207031 270.675781 L 211.296875 273.21875 L 208.75 275.125 L 207.6875 275.546875 L 206.414062 275.761719 L 205.777344 275.761719 L 205.777344 275.972656 L 206.628906 276.183594 L 207.6875 276.183594 L 210.234375 275.546875 L 211.296875 274.703125 L 212.144531 273.429688 L 212.570312 272.371094 L 212.992188 272.371094 L 212.992188 272.796875 L 212.78125 273.851562 L 211.507812 276.394531 L 210.660156 277.453125 L 209.386719 278.300781 L 208.539062 278.726562 L 208.539062 279.148438 L 209.171875 279.148438 L 210.234375 278.726562 L 211.507812 277.664062 L 212.992188 275.972656 L 214.054688 273.429688 L 214.902344 269.828125 Z M 214.265625 267.710938 " fill-opacity="1" fill-rule="evenodd"/><path fill="#02284d" d="M 203.445312 263.265625 L 203.019531 265.804688 L 201.535156 268.136719 L 199.414062 269.828125 L 196.867188 270.675781 L 198.140625 271.3125 L 199.414062 271.523438 L 200.898438 270.890625 L 201.746094 270.253906 L 201.957031 270.042969 L 202.171875 270.253906 L 202.382812 271.523438 L 201.957031 273.21875 L 200.683594 274.703125 L 200.261719 275.125 L 200.261719 275.335938 L 200.683594 275.335938 L 201.324219 275.125 L 202.59375 274.277344 L 203.65625 272.582031 L 204.082031 270.464844 L 204.292969 268.347656 L 204.292969 265.804688 L 203.65625 263.265625 Z M 203.445312 263.265625 " fill-opacity="1" fill-rule="evenodd"/><path fill="#02284d" d="M 222.328125 245.894531 L 222.753906 246.953125 L 222.753906 248.648438 L 222.542969 250.765625 L 222.117188 253.097656 L 220.421875 257.96875 L 219.570312 260.085938 L 218.722656 261.566406 L 218.085938 262.628906 L 217.875 263.265625 L 218.085938 263.265625 L 218.511719 262.839844 L 219.996094 261.359375 L 221.480469 259.027344 L 221.90625 258.179688 L 222.328125 257.96875 L 222.328125 258.390625 L 222.117188 259.238281 L 221.480469 260.296875 L 220.84375 261.992188 L 218.933594 265.59375 L 218.511719 266.441406 L 218.296875 266.652344 L 218.511719 266.863281 L 218.933594 266.441406 L 219.359375 265.804688 L 219.996094 264.746094 L 221.480469 262.203125 L 222.964844 258.816406 L 224.027344 255.003906 L 224.242188 250.765625 L 224.027344 248.648438 L 223.390625 246.53125 Z M 222.328125 245.894531 " fill-opacity="1" fill-rule="evenodd"/><path fill="#000000" d="M 252.25 239.117188 L 253.097656 239.753906 L 253.949219 241.234375 L 254.796875 243.140625 L 255.433594 245.472656 L 256.496094 250.554688 L 256.707031 252.671875 L 256.707031 256.273438 L 256.917969 256.273438 L 257.128906 255.847656 L 257.554688 253.730469 L 257.765625 250.980469 L 257.765625 249.917969 L 257.980469 249.496094 L 258.191406 249.917969 L 258.402344 250.765625 L 258.617188 252.035156 L 258.828125 253.730469 L 258.828125 259.238281 L 259.039062 259.027344 L 259.253906 258.605469 L 259.464844 256.695312 L 259.464844 253.730469 L 259.039062 250.128906 L 257.980469 246.105469 L 256.28125 242.503906 L 255.007812 240.601562 L 253.523438 239.117188 Z M 252.25 239.117188 " fill-opacity="1" fill-rule="evenodd"/><path fill="#003366" d="M 140.421875 140.839844 L 139.785156 144.015625 L 139.785156 146.980469 L 140.421875 149.945312 L 141.269531 152.910156 L 143.605469 157.996094 L 144.878906 160.113281 L 146.785156 163.925781 L 148.058594 165.195312 L 149.546875 166.253906 L 152.515625 167.101562 L 154.214844 166.890625 L 155.488281 166.679688 L 156.761719 166.042969 L 157.609375 165.40625 L 157.820312 164.773438 L 157.609375 164.136719 L 156.972656 163.5 L 153.152344 161.382812 L 152.515625 160.960938 L 152.515625 160.324219 L 152.941406 158.84375 L 153.789062 157.148438 L 154 156.089844 L 153.789062 155.242188 L 153.152344 154.394531 L 152.304688 153.96875 L 150.183594 153.335938 L 147.421875 152.910156 L 144.664062 151.851562 L 143.605469 150.792969 L 142.753906 149.734375 L 141.90625 147.191406 L 141.480469 144.4375 L 141.480469 141.898438 Z M 140.421875 140.839844 " fill-opacity="1" fill-rule="evenodd"/><path fill="#02284d" d="M 141.480469 151.214844 L 144.027344 156.511719 L 145.726562 158.84375 L 147.210938 160.960938 L 148.695312 162.441406 L 150.183594 163.5 L 151.242188 163.5 L 151.878906 162.867188 L 152.089844 162.019531 L 151.878906 161.382812 L 151.242188 160.960938 L 150.183594 160.535156 L 148.695312 159.691406 L 147 158.417969 L 145.089844 156.089844 L 143.816406 154.605469 L 142.753906 152.910156 Z M 141.480469 151.214844 " fill-opacity="1" fill-rule="evenodd"/></svg>