<svg xmlns="http://www.w3.org/2000/svg" xmlns:xlink="http://www.w3.org/1999/xlink" width="500" zoomAndPan="magnify" viewBox="0 0 375 374.999991" height="500" preserveAspectRatio="xMidYMid meet" version="1.0"><defs><clipPath id="8169a5084a"><path d="M 187.5 0 C 83.945312 0 0 83.945312 0 187.5 C 0 291.054688 83.945312 375 187.5 375 C 291.054688 375 375 291.054688 375 187.5 C 375 83.945312 291.054688 0 187.5 0 " clip-rule="nonzero"/></clipPath><clipPath id="e3c4a81d5c"><path d="M 0 54 L 320 54 L 320 375 L 0 375 Z M 0 54 " clip-rule="nonzero"/></clipPath><clipPath id="e8af1bc18e"><path d="M 54.574219 54.855469 L 319.738281 320.019531 L 187.15625 452.601562 L -78.007812 187.4375 Z M 54.574219 54.855469 " clip-rule="nonzero"/></clipPath><clipPath id="e4357bb3b9"><path d="M 54.574219 54.855469 L 319.738281 320.019531 L 187.15625 452.601562 L -78.007812 187.4375 Z M 54.574219 54.855469 " clip-rule="nonzero"/></clipPath><clipPath id="88e820c9d6"><path d="M 54.574219 54.855469 L 319.738281 320.019531 L 187.15625 452.601562 L -78.007812 187.4375 Z M 54.574219 54.855469 " clip-rule="nonzero"/></clipPath></defs><rect x="-37.5" width="450" fill="#ffffff" y="-37.499999" height="449.999989" fill-opacity="1"/><rect x="-37.5" width="450" fill="#ffffff" y="-37.499999" height="449.999989" fill-opacity="1"/><rect x="-37.5" width="450" fill="#ffffff" y="-37.499999" height="449.999989" fill-opacity="1"/><g clip-path="url(#8169a5084a)"><rect x="-37.5" width="450" fill="#02284d" y="-37.499999" height="449.999989" fill-opacity="1"/></g><g clip-path="url(#e3c4a81d5c)"><g clip-path="url(#e8af1bc18e)"><g clip-path="url(#e4357bb3b9)"><g clip-path="url(#88e820c9d6)"><path fill="#003366" d="M 54.574219 320.015625 C 127.796875 393.242188 246.515625 393.242188 319.738281 320.019531 L 54.574219 54.855469 C -18.648438 128.078125 -18.648438 246.796875 54.574219 320.015625 Z M 54.574219 320.015625 " fill-opacity="1" fill-rule="nonzero"/></g></g></g></g><path fill="#000000" d="M 132.785156 185.324219 L 129.457031 185.835938 L 126.636719 187.371094 L 123.816406 189.417969 L 119.203125 194.539062 L 117.152344 197.097656 L 115.359375 199.144531 L 113.5625 200.683594 L 112.28125 201.449219 L 110.746094 202.472656 L 108.4375 203.75 L 105.875 205.289062 L 99.722656 208.871094 L 93.058594 212.710938 L 86.652344 216.550781 L 83.832031 218.085938 L 81.269531 219.621094 L 79.21875 220.902344 L 77.679688 221.671875 L 76.398438 222.179688 L 76.144531 222.4375 L 76.144531 222.691406 L 76.398438 223.460938 L 76.914062 224.996094 L 77.425781 227.042969 L 78.195312 229.347656 L 78.964844 232.164062 L 79.988281 235.492188 L 81.269531 239.074219 L 84.601562 247.265625 L 88.703125 256.480469 L 93.828125 266.460938 L 99.980469 276.699219 L 107.410156 286.941406 L 115.871094 296.921875 L 120.742188 301.785156 L 125.609375 306.390625 L 130.992188 310.742188 L 136.886719 314.839844 L 142.78125 318.675781 L 149.445312 322.007812 L 156.109375 325.078125 L 163.289062 327.894531 L 170.976562 329.9375 L 178.921875 331.730469 L 187.378906 333.011719 L 196.09375 333.523438 L 202.503906 333.523438 L 208.910156 333.011719 L 215.0625 332.242188 L 220.957031 330.964844 L 226.339844 329.425781 L 231.976562 327.636719 L 241.972656 323.027344 L 251.457031 317.652344 L 259.660156 311.253906 L 267.347656 304.601562 L 274.265625 297.6875 L 280.164062 290.777344 L 285.289062 284.125 L 289.390625 277.726562 L 292.976562 272.09375 L 295.796875 267.230469 L 296.824219 265.183594 L 298.363281 262.109375 L 298.871094 261.089844 L 299.128906 260.574219 L 299.128906 260.320312 L 298.871094 260.0625 L 297.847656 259.550781 L 296.566406 258.785156 L 294.773438 257.761719 L 290.160156 254.945312 L 284.773438 251.875 L 279.136719 248.546875 L 274.265625 245.214844 L 272.21875 243.683594 L 270.421875 242.402344 L 269.140625 241.378906 L 268.371094 240.609375 L 267.601562 239.585938 L 267.089844 238.820312 L 266.835938 238.304688 L 267.859375 238.304688 L 269.398438 238.820312 L 269.910156 238.820312 L 269.910156 238.304688 L 268.886719 236.769531 L 267.859375 235.75 L 266.835938 234.46875 L 265.296875 232.421875 L 266.066406 233.1875 L 266.835938 233.1875 L 267.601562 232.675781 L 267.859375 232.421875 L 267.347656 232.164062 L 266.578125 231.394531 L 265.808594 230.371094 L 265.296875 229.347656 L 264.785156 228.070312 L 263.757812 226.277344 L 262.734375 224.742188 L 262.222656 223.71875 L 262.734375 222.691406 L 262.988281 221.925781 L 262.476562 220.648438 L 262.222656 219.367188 L 262.988281 218.597656 L 263.757812 218.085938 L 264.015625 218.085938 L 263.503906 217.574219 L 262.734375 216.296875 L 261.964844 214.503906 L 261.449219 212.710938 L 263.757812 211.945312 L 263.757812 211.6875 L 263.503906 210.917969 L 262.988281 208.359375 L 262.734375 207.59375 L 262.222656 206.566406 L 260.425781 204.519531 L 258.632812 201.960938 L 258.121094 200.683594 L 257.863281 199.65625 L 257.863281 198.890625 L 258.121094 198.632812 L 258.375 198.632812 L 259.402344 199.402344 L 259.660156 198.890625 L 260.171875 195.820312 L 260.683594 194.539062 L 261.449219 193.515625 L 261.964844 192.234375 L 261.964844 190.699219 L 261.707031 189.671875 L 261.707031 189.160156 L 262.476562 189.160156 L 263.246094 189.417969 L 263.757812 189.417969 L 264.015625 188.90625 L 264.015625 187.628906 L 263.503906 185.835938 L 262.734375 184.8125 L 261.707031 184.042969 L 262.476562 184.554688 L 263.503906 184.8125 L 264.015625 185.066406 L 263.757812 184.554688 L 263.503906 183.019531 L 262.222656 179.179688 L 262.222656 177.386719 L 263.246094 174.828125 L 263.757812 172.269531 L 263.757812 171.246094 L 263.246094 170.222656 L 261.964844 168.429688 L 260.9375 166.125 L 260.683594 163.566406 L 260.9375 160.496094 L 261.195312 158.703125 L 261.449219 156.402344 L 261.195312 151.535156 L 261.195312 149.234375 L 260.9375 147.441406 L 260.683594 146.164062 L 260.683594 145.648438 L 260.9375 145.394531 L 261.195312 144.625 L 262.476562 142.324219 L 263.503906 139.507812 L 264.269531 137.203125 L 265.039062 135.667969 L 266.320312 134.898438 L 267.601562 134.898438 L 268.371094 135.410156 L 269.140625 135.925781 L 269.910156 135.925781 L 270.679688 135.410156 L 270.933594 134.644531 L 270.933594 133.621094 L 271.191406 132.597656 L 271.191406 131.828125 L 270.933594 131.058594 L 270.167969 130.035156 L 268.113281 126.964844 L 267.859375 126.453125 L 267.859375 122.101562 L 267.601562 117.496094 L 267.347656 112.121094 L 266.578125 100.859375 L 265.808594 95.996094 L 265.296875 94.203125 L 264.785156 92.667969 L 264.269531 91.128906 L 263.246094 89.339844 L 260.9375 84.734375 L 257.605469 79.355469 L 253.507812 73.46875 L 249.148438 67.328125 L 244.535156 61.695312 L 239.410156 56.832031 L 234.539062 53.25 L 231.976562 51.714844 L 228.902344 50.175781 L 221.726562 47.105469 L 213.007812 44.289062 L 203.015625 42.242188 L 197.886719 41.730469 L 192.25 41.476562 L 186.609375 41.476562 L 180.714844 41.988281 L 174.820312 43.011719 L 168.671875 44.546875 L 162.261719 46.59375 L 156.109375 49.410156 L 150.214844 52.480469 L 145.089844 55.808594 L 140.476562 59.136719 L 136.632812 62.71875 L 133.042969 66.046875 L 130.222656 69.632812 L 127.660156 72.957031 L 125.355469 76.542969 L 122.023438 82.941406 L 119.460938 88.828125 L 117.152344 93.433594 L 115.101562 97.019531 L 113.308594 99.320312 L 112.027344 100.859375 L 111.511719 101.625 L 111.769531 101.882812 L 112.796875 101.625 L 114.332031 100.859375 L 114.589844 100.859375 L 114.589844 101.625 L 114.074219 102.648438 L 113.050781 103.929688 L 110.746094 106.488281 L 109.464844 107.511719 L 108.179688 107.769531 L 107.15625 108.023438 L 106.902344 108.28125 L 107.15625 109.304688 L 107.410156 110.070312 L 107.15625 110.328125 L 106.132812 110.328125 L 105.875 111.097656 L 105.875 111.863281 L 106.132812 112.375 L 106.902344 112.886719 L 108.949219 113.144531 L 112.027344 112.632812 L 111.769531 113.65625 L 111.257812 114.421875 L 109.207031 115.703125 L 106.644531 116.214844 L 104.59375 116.472656 L 103.824219 116.472656 L 103.570312 116.984375 L 103.570312 118.773438 L 103.054688 119.285156 L 102.289062 119.285156 L 101.519531 119.542969 L 101.519531 120.054688 L 101.773438 121.078125 L 102.800781 121.847656 L 105.105469 123.382812 L 106.644531 123.636719 L 108.4375 123.382812 L 107.925781 124.917969 L 106.902344 126.453125 L 105.105469 127.734375 L 102.289062 128.5 L 103.3125 129.523438 L 104.59375 130.035156 L 105.875 130.035156 L 105.363281 130.546875 L 103.824219 131.574219 L 102.289062 132.339844 L 100.75 132.851562 L 100.492188 133.109375 L 100.492188 133.621094 L 101.261719 135.410156 L 103.3125 137.203125 L 104.59375 137.714844 L 106.132812 137.972656 L 104.851562 139.507812 L 103.3125 140.019531 L 101.261719 140.019531 L 101.261719 140.277344 L 101.773438 140.53125 L 103.3125 141.8125 L 104.851562 142.835938 L 106.132812 143.347656 L 106.390625 143.601562 L 106.644531 144.371094 L 106.902344 146.417969 L 107.410156 148.464844 L 107.925781 149.234375 L 108.4375 149.488281 L 109.464844 150.257812 L 109.71875 151.792969 L 109.207031 153.074219 L 108.4375 153.585938 L 107.410156 153.839844 L 106.644531 154.097656 L 106.644531 154.351562 L 107.410156 154.867188 L 108.695312 155.632812 L 111.511719 156.65625 L 113.050781 156.65625 L 114.332031 156.402344 L 116.128906 156.402344 L 117.921875 157.421875 L 119.460938 158.703125 L 121.253906 159.214844 L 124.328125 159.984375 L 126.890625 161.261719 L 127.40625 162.03125 L 128.175781 163.3125 L 129.457031 167.152344 L 130.734375 170.734375 L 131.503906 172.269531 L 132.019531 173.035156 Z M 132.785156 185.324219 " fill-opacity="1" fill-rule="evenodd"/><path fill="#003366" d="M 133.554688 186.09375 L 131.25 187.113281 L 129.457031 188.90625 L 127.917969 191.464844 L 127.148438 194.539062 L 126.636719 197.867188 L 126.378906 201.707031 L 126.890625 210.40625 L 128.6875 220.132812 L 131.25 229.859375 L 134.324219 239.84375 L 137.914062 248.800781 L 139.964844 253.664062 L 142.78125 259.039062 L 146.113281 265.183594 L 149.960938 271.839844 L 157.90625 285.660156 L 166.621094 299.738281 L 170.722656 306.390625 L 174.566406 312.789062 L 178.152344 318.421875 L 181.484375 323.542969 L 184.046875 327.636719 L 186.097656 330.707031 L 186.867188 331.988281 L 187.378906 332.753906 L 187.894531 333.265625 L 187.894531 333.523438 L 195.582031 333.523438 L 204.808594 333.011719 L 209.167969 332.753906 L 212.753906 332.242188 L 214.035156 331.988281 L 214.804688 331.730469 L 215.574219 330.964844 L 216.339844 329.425781 L 216.855469 327.125 L 217.625 324.5625 L 219.164062 317.910156 L 220.699219 310.742188 L 221.980469 303.320312 L 222.496094 299.992188 L 223.003906 297.175781 L 223.261719 294.617188 L 223.519531 292.824219 L 223.777344 291.546875 L 223.777344 291.035156 L 223.519531 290.777344 L 222.496094 290.265625 L 220.957031 289.242188 L 218.90625 287.960938 L 216.597656 286.171875 L 213.523438 284.125 L 210.191406 282.074219 L 206.601562 279.515625 L 198.402344 273.628906 L 189.429688 266.71875 L 180.203125 259.292969 L 170.722656 251.363281 L 161.492188 243.171875 L 152.777344 234.722656 L 145.089844 226.019531 L 141.757812 221.925781 L 138.9375 217.828125 L 136.375 213.734375 L 134.324219 209.640625 L 132.785156 205.800781 L 131.761719 201.960938 L 131.503906 198.378906 L 131.761719 194.792969 L 132.785156 191.722656 L 134.582031 188.652344 Z M 133.554688 186.09375 " fill-opacity="1" fill-rule="evenodd"/><path fill="#02284d" d="M 139.964844 183.277344 L 139.449219 186.09375 L 138.425781 189.160156 L 136.375 195.304688 L 135.351562 198.378906 L 134.582031 200.9375 L 134.582031 203.238281 L 135.09375 205.289062 L 136.632812 208.359375 L 137.914062 210.917969 L 138.9375 213.480469 L 139.707031 215.269531 L 140.21875 216.808594 L 140.476562 218.085938 L 140.734375 218.597656 L 140.734375 220.132812 L 140.476562 221.925781 L 140.21875 223.976562 L 139.195312 228.582031 L 138.171875 230.886719 L 136.886719 232.933594 L 137.65625 232.933594 L 138.425781 233.1875 L 139.964844 234.722656 L 142.527344 236.769531 L 144.066406 237.539062 L 146.113281 238.050781 L 145.859375 238.820312 L 145.089844 240.355469 L 144.320312 242.402344 L 144.066406 245.214844 L 144.578125 245.472656 L 146.113281 245.984375 L 147.398438 246.753906 L 149.445312 248.800781 L 150.472656 250.335938 L 150.984375 252.128906 L 151.242188 254.175781 L 151.242188 255.199219 L 150.984375 255.710938 L 150.730469 255.96875 L 150.472656 256.480469 L 150.214844 257.503906 L 150.472656 259.292969 L 150.730469 260.832031 L 151.242188 262.878906 L 151.753906 264.414062 L 152.777344 265.953125 L 157.90625 270.558594 L 158.929688 271.839844 L 159.699219 273.371094 L 160.210938 274.398438 L 161.238281 275.675781 L 163.800781 278.746094 L 166.621094 281.5625 L 167.644531 282.84375 L 168.15625 283.867188 L 169.4375 286.171875 L 171.234375 288.476562 L 175.847656 292.824219 L 181.230469 296.664062 L 186.355469 299.992188 L 187.125 301.785156 L 188.148438 303.066406 L 189.6875 303.574219 L 191.480469 303.832031 L 195.070312 303.574219 L 198.65625 303.066406 L 199.167969 303.066406 L 198.914062 303.574219 L 198.402344 304.34375 L 198.914062 304.601562 L 201.476562 305.113281 L 203.527344 305.367188 L 205.066406 305.367188 L 206.089844 304.855469 L 207.882812 304.855469 L 210.445312 305.113281 L 215.828125 305.113281 L 221.210938 304.34375 L 223.519531 303.574219 L 225.3125 302.296875 L 227.621094 303.066406 L 229.414062 303.832031 L 230.695312 304.085938 L 231.71875 304.34375 L 233.003906 303.832031 L 234.796875 302.039062 L 235.820312 303.066406 L 236.847656 303.320312 L 238.382812 302.808594 L 239.921875 301.785156 L 243.253906 298.457031 L 246.585938 294.105469 L 247.101562 293.851562 L 247.609375 294.105469 L 248.378906 295.386719 L 249.40625 296.921875 L 249.664062 297.175781 L 250.175781 296.921875 L 250.6875 295.898438 L 250.941406 294.617188 L 250.941406 293.339844 L 251.457031 292.3125 L 252.738281 291.035156 L 254.273438 290.265625 L 257.605469 289.753906 L 260.683594 288.988281 L 261.964844 288.476562 L 262.988281 287.195312 L 264.015625 285.402344 L 266.066406 282.332031 L 267.089844 280.539062 L 267.601562 279.261719 L 268.113281 277.46875 L 270.679688 268.253906 L 270.679688 265.4375 L 269.910156 262.109375 L 269.398438 259.039062 L 269.140625 256.480469 L 269.652344 254.433594 L 269.910156 252.898438 L 270.421875 252.128906 L 270.933594 251.617188 L 271.703125 251.363281 L 271.960938 251.617188 L 271.960938 251.363281 L 271.703125 250.335938 L 271.191406 247.519531 L 269.910156 243.9375 L 268.113281 240.609375 L 267.347656 239.585938 L 266.835938 238.820312 L 266.835938 238.304688 L 267.859375 238.304688 L 269.398438 238.820312 L 269.910156 238.820312 L 269.910156 238.304688 L 269.398438 237.539062 L 268.628906 236.769531 L 265.039062 232.421875 L 265.808594 233.1875 L 266.835938 233.1875 L 267.601562 232.675781 L 267.859375 232.421875 L 267.347656 232.164062 L 266.578125 231.394531 L 265.550781 230.371094 L 265.039062 229.347656 L 264.527344 228.070312 L 263.503906 226.277344 L 262.476562 224.742188 L 261.964844 223.71875 L 262.222656 223.207031 L 262.734375 222.691406 L 262.734375 221.925781 L 262.476562 220.648438 L 262.222656 219.367188 L 262.734375 218.597656 L 263.503906 218.085938 L 264.015625 218.085938 L 263.503906 217.574219 L 262.734375 216.296875 L 261.707031 214.503906 L 261.195312 212.710938 L 262.476562 212.453125 L 263.246094 212.199219 L 263.503906 211.945312 L 263.503906 211.6875 L 263.246094 210.917969 L 262.734375 208.359375 L 262.476562 207.59375 L 261.707031 206.566406 L 259.660156 204.519531 L 257.351562 201.960938 L 256.582031 200.683594 L 256.328125 199.65625 L 256.328125 198.890625 L 256.582031 198.632812 L 256.839844 198.632812 L 257.863281 199.402344 L 258.121094 198.890625 L 258.375 197.355469 L 258.375 195.820312 L 258.890625 194.539062 L 259.144531 193.769531 L 258.890625 192.234375 L 257.351562 188.394531 L 255.300781 184.300781 L 254.53125 182.765625 L 254.019531 181.742188 L 254.019531 180.203125 L 254.789062 178.667969 L 255.300781 177.132812 L 255.042969 176.109375 L 254.53125 175.34375 L 254.019531 174.316406 L 254.273438 172.78125 L 254.789062 170.734375 L 255.8125 168.6875 L 257.863281 164.335938 L 259.402344 160.496094 L 259.660156 158.703125 L 259.660156 151.535156 L 259.402344 149.234375 L 259.144531 147.441406 L 258.890625 146.164062 L 258.890625 145.648438 L 259.144531 145.394531 L 259.402344 144.625 L 260.683594 142.324219 L 261.964844 139.507812 L 262.734375 137.203125 L 263.246094 136.433594 L 264.015625 135.410156 L 266.578125 133.621094 L 268.628906 132.085938 L 269.398438 131.574219 L 269.398438 131.058594 L 268.628906 130.035156 L 266.578125 126.964844 L 266.320312 126.453125 L 266.320312 122.101562 L 266.066406 117.496094 L 265.808594 112.121094 L 265.039062 100.859375 L 264.269531 95.996094 L 264.015625 94.203125 L 263.503906 92.667969 L 262.734375 91.128906 L 261.964844 89.339844 L 259.660156 84.988281 L 256.582031 79.867188 L 253.25 74.492188 L 249.148438 68.863281 L 245.046875 63.746094 L 240.949219 59.390625 L 236.847656 56.0625 L 234.285156 54.527344 L 231.207031 52.738281 L 227.875 50.945312 L 224.03125 49.410156 L 219.675781 47.617188 L 215.316406 46.339844 L 205.320312 44.035156 L 199.9375 43.265625 L 194.300781 42.753906 L 188.660156 42.753906 L 182.765625 43.011719 L 176.617188 44.035156 L 170.722656 45.570312 L 164.3125 47.617188 L 158.160156 50.175781 L 152.265625 53.25 L 146.882812 56.578125 L 142.269531 59.902344 L 138.171875 63.230469 L 134.582031 66.816406 L 131.503906 70.144531 L 128.6875 73.46875 L 126.378906 76.796875 L 122.792969 83.195312 L 119.972656 88.828125 L 117.664062 93.433594 L 115.359375 97.019531 L 113.5625 99.320312 L 112.28125 100.859375 L 111.769531 101.625 L 112.027344 101.882812 L 113.050781 101.625 L 114.589844 100.859375 L 114.84375 100.859375 L 114.84375 101.625 L 114.332031 102.648438 L 113.308594 103.929688 L 111 106.488281 L 109.71875 107.511719 L 108.4375 107.769531 L 107.410156 108.023438 L 107.15625 108.28125 L 107.410156 109.304688 L 107.410156 110.070312 L 107.15625 110.328125 L 106.390625 110.328125 L 106.132812 111.097656 L 106.132812 111.863281 L 106.390625 112.375 L 107.15625 112.886719 L 109.207031 113.144531 L 112.28125 112.632812 L 112.027344 113.65625 L 111.511719 114.421875 L 109.464844 115.703125 L 106.902344 116.214844 L 104.851562 116.472656 L 105.363281 116.726562 L 107.15625 117.238281 L 109.976562 118.261719 L 113.308594 119.03125 L 120.996094 120.566406 L 124.328125 121.078125 L 127.40625 120.824219 L 125.355469 124.660156 L 124.074219 128.5 L 123.5625 132.339844 L 123.816406 135.925781 L 124.839844 139.507812 L 126.125 142.578125 L 129.96875 148.722656 L 134.324219 153.585938 L 138.9375 157.421875 L 140.734375 158.960938 L 142.269531 159.984375 L 143.296875 160.753906 L 143.808594 161.261719 Z M 139.964844 183.277344 " fill-opacity="1" fill-rule="evenodd"/><path fill="#003366" d="M 189.941406 53.503906 L 193.53125 50.945312 L 196.863281 49.667969 L 200.453125 48.898438 L 204.039062 48.898438 L 210.703125 50.433594 L 216.339844 52.738281 L 217.878906 53.503906 L 219.929688 54.527344 L 224.800781 57.089844 L 230.441406 60.671875 L 236.078125 64.765625 L 240.949219 69.117188 L 243.253906 71.167969 L 244.792969 73.46875 L 245.816406 75.773438 L 246.585938 77.820312 L 246.328125 79.867188 L 245.5625 81.917969 L 244.535156 83.707031 L 244.023438 85.5 L 243.765625 88.316406 L 244.535156 90.363281 L 245.5625 92.15625 L 246.84375 93.433594 L 247.609375 94.203125 L 247.609375 94.96875 L 247.101562 95.484375 L 246.074219 95.738281 L 243.765625 96.25 L 241.972656 96.507812 L 238.382812 96.761719 L 235.566406 96.761719 L 232.234375 97.785156 L 230.183594 98.296875 L 228.132812 98.554688 L 223.519531 97.785156 L 221.210938 97.273438 L 219.417969 96.761719 L 217.625 96.507812 L 216.339844 96.25 L 215.574219 96.25 L 215.574219 96.507812 L 216.085938 96.507812 L 216.855469 96.761719 L 219.675781 97.53125 L 223.003906 98.042969 L 225.824219 98.554688 L 228.132812 99.320312 L 230.953125 99.578125 L 232.746094 99.578125 L 235.308594 99.320312 L 238.128906 99.320312 L 240.4375 99.578125 L 242.484375 100.347656 L 244.28125 101.113281 L 245.5625 102.136719 L 246.328125 103.160156 L 246.585938 104.183594 L 246.074219 104.953125 L 245.304688 105.71875 L 245.304688 106.234375 L 245.816406 107.769531 L 247.355469 109.046875 L 249.664062 111.097656 L 251.199219 113.398438 L 251.96875 115.957031 L 252.996094 117.496094 L 254.019531 118.007812 L 255.300781 118.261719 L 256.328125 119.285156 L 256.839844 120.308594 L 257.09375 122.101562 L 255.8125 123.636719 L 253.765625 124.148438 L 252.480469 123.894531 L 251.710938 123.125 L 250.429688 120.824219 L 249.148438 118.773438 L 248.378906 118.007812 L 245.304688 118.007812 L 242.742188 117.75 L 240.4375 116.726562 L 239.152344 114.933594 L 238.640625 114.167969 L 238.382812 114.167969 L 238.128906 114.421875 L 237.617188 115.191406 L 236.847656 116.214844 L 235.566406 116.984375 L 234.027344 117.496094 L 231.71875 117.496094 L 230.183594 117.75 L 228.132812 118.261719 L 225.570312 119.285156 L 223.003906 120.824219 L 216.597656 123.636719 L 209.933594 126.710938 L 203.527344 128.5 L 200.707031 129.011719 L 198.144531 129.011719 L 195.839844 128.246094 L 194.042969 126.964844 L 192.761719 124.917969 L 191.996094 121.847656 L 191.226562 120.054688 L 190.199219 118.773438 L 187.125 117.238281 L 185.585938 116.214844 L 184.816406 114.421875 L 184.5625 111.863281 L 184.816406 110.070312 L 185.332031 108.023438 L 185.84375 105.976562 L 185.585938 103.929688 L 184.5625 100.601562 L 182.511719 97.785156 L 180.203125 95.484375 L 177.640625 92.921875 L 175.589844 90.109375 L 174.566406 86.78125 L 174.566406 84.734375 L 175.078125 82.683594 L 177.640625 73.980469 L 180.714844 66.304688 L 182.511719 62.71875 L 184.5625 59.390625 L 187.125 56.320312 Z M 189.941406 53.503906 " fill-opacity="1" fill-rule="evenodd"/><path fill="#003366" d="M 166.363281 102.90625 L 169.183594 106.234375 L 170.722656 109.816406 L 171.746094 113.65625 L 172.257812 117.238281 L 172.769531 120.308594 L 173.28125 122.613281 L 174.308594 123.894531 L 175.078125 124.148438 L 176.101562 123.894531 L 178.410156 123.636719 L 180.460938 124.148438 L 182.253906 125.429688 L 184.046875 127.222656 L 185.332031 129.269531 L 186.355469 131.574219 L 186.867188 133.621094 L 186.867188 135.925781 L 187.378906 136.179688 L 188.40625 136.179688 L 189.429688 135.925781 L 190.96875 135.410156 L 192.507812 134.644531 L 196.605469 133.109375 L 200.964844 131.574219 L 205.835938 130.546875 L 210.445312 130.546875 L 212.753906 131.058594 L 214.804688 131.828125 L 216.597656 132.851562 L 217.878906 133.875 L 218.648438 134.644531 L 218.90625 135.410156 L 218.394531 136.949219 L 216.597656 137.972656 L 214.035156 138.996094 L 210.960938 139.507812 L 203.527344 139.507812 L 202.757812 139.761719 L 202.757812 140.53125 L 203.015625 141.554688 L 203.269531 144.113281 L 202.757812 145.394531 L 201.476562 146.675781 L 200.707031 147.183594 L 200.453125 147.699219 L 200.707031 148.464844 L 201.476562 148.722656 L 202.246094 149.488281 L 202.503906 150.257812 L 202.246094 151.023438 L 201.734375 151.792969 L 200.453125 152.816406 L 198.914062 154.097656 L 196.605469 155.886719 L 193.53125 157.679688 L 190.457031 159.726562 L 188.148438 161.519531 L 186.097656 163.566406 L 184.816406 165.101562 L 183.792969 166.640625 L 183.023438 168.175781 L 181.996094 169.964844 L 181.742188 170.222656 L 181.230469 170.476562 L 180.460938 169.964844 L 179.691406 169.199219 L 178.667969 167.664062 L 176.871094 165.871094 L 174.820312 163.3125 L 172.257812 160.238281 L 169.4375 156.65625 L 167.386719 153.328125 L 165.59375 149.746094 L 164.058594 146.164062 L 162.261719 138.996094 L 161.492188 131.828125 L 161.492188 124.917969 L 162.261719 118.007812 L 163.289062 111.609375 L 164.570312 105.464844 Z M 166.363281 102.90625 " fill-opacity="1" fill-rule="evenodd"/><path fill="#000000" d="M 195.328125 134.898438 L 194.558594 135.667969 L 193.53125 136.433594 L 192.25 136.949219 L 191.226562 137.203125 L 190.96875 137.203125 L 191.226562 137.460938 L 192.25 137.972656 L 193.789062 138.738281 L 194.8125 139.507812 L 195.328125 139.25 L 196.09375 138.484375 L 197.632812 137.714844 L 199.425781 137.714844 L 201.21875 138.226562 L 202.246094 138.738281 L 202.757812 138.996094 L 203.015625 138.996094 L 202.503906 136.691406 L 204.550781 135.410156 L 204.808594 135.925781 L 205.835938 136.691406 L 207.117188 137.460938 L 209.167969 137.714844 L 211.214844 136.949219 L 212.242188 135.925781 L 212.753906 134.898438 L 212.753906 134.386719 L 213.265625 134.644531 L 214.292969 135.410156 L 215.316406 136.433594 L 215.574219 137.203125 L 214.035156 138.226562 L 213.007812 138.738281 L 210.703125 139.25 L 208.398438 139.507812 L 206.089844 139.507812 L 206.089844 139.761719 L 206.859375 140.277344 L 208.652344 140.785156 L 210.703125 141.042969 L 215.0625 140.019531 L 217.113281 139.25 L 218.394531 138.996094 L 219.164062 139.25 L 220.1875 140.019531 L 221.210938 140.53125 L 222.238281 140.019531 L 223.777344 139.25 L 225.570312 139.507812 L 227.363281 138.996094 L 227.875 138.484375 L 228.390625 137.460938 L 229.15625 135.410156 L 229.15625 134.132812 L 228.902344 133.363281 L 227.875 132.851562 L 227.105469 132.339844 L 227.105469 131.828125 L 227.621094 131.058594 L 228.644531 130.292969 L 229.667969 129.269531 L 230.183594 128.246094 L 230.183594 126.964844 L 229.925781 124.660156 L 229.667969 122.613281 L 229.414062 121.847656 L 228.902344 121.589844 L 228.132812 121.589844 L 228.132812 124.660156 L 227.875 126.195312 L 227.105469 126.964844 L 226.59375 126.710938 L 226.59375 125.941406 L 226.851562 125.171875 L 226.851562 124.917969 L 226.082031 124.148438 L 225.570312 122.613281 L 225.058594 122.359375 L 224.542969 122.871094 L 223.777344 123.125 L 223.003906 122.871094 L 221.46875 121.847656 L 219.164062 121.335938 L 217.878906 120.824219 L 216.855469 120.054688 L 216.085938 119.542969 L 215.316406 119.542969 L 214.546875 120.054688 L 214.035156 120.566406 L 212.753906 120.824219 L 211.984375 121.335938 L 210.960938 123.382812 L 209.933594 123.894531 L 208.910156 123.894531 L 208.398438 124.40625 L 207.882812 124.660156 L 208.140625 124.40625 L 208.398438 123.636719 L 210.191406 122.359375 L 211.472656 121.078125 L 211.730469 120.566406 L 211.730469 120.308594 L 211.214844 120.308594 L 209.679688 120.566406 L 208.140625 121.078125 L 206.859375 122.101562 L 206.347656 122.613281 L 206.347656 122.871094 L 206.859375 122.613281 L 208.398438 121.589844 L 208.398438 121.847656 L 208.140625 122.613281 L 207.117188 123.382812 L 206.089844 123.636719 L 204.808594 123.636719 L 203.78125 124.40625 L 202.757812 125.429688 L 201.21875 126.453125 L 199.683594 127.476562 L 198.65625 127.988281 L 197.886719 127.988281 L 197.886719 127.476562 L 198.914062 126.453125 L 201.988281 124.917969 L 203.015625 124.148438 L 204.296875 122.871094 L 204.808594 122.613281 L 205.066406 122.359375 L 204.808594 122.359375 L 203.78125 122.613281 L 202.503906 123.125 L 200.707031 124.148438 L 199.167969 125.171875 L 197.886719 125.941406 L 196.605469 126.964844 L 195.582031 128.246094 L 194.300781 129.78125 L 192.761719 130.546875 L 190.96875 131.058594 L 188.917969 131.574219 L 187.125 132.597656 L 186.097656 133.621094 L 186.609375 134.898438 L 187.378906 135.410156 L 188.40625 135.667969 L 190.96875 135.925781 L 193.019531 135.667969 L 194.300781 135.15625 L 194.8125 134.898438 Z M 195.328125 134.898438 " fill-opacity="1" fill-rule="evenodd"/><path fill="#003366" d="M 198.914062 135.410156 L 199.167969 135.15625 L 200.195312 134.898438 L 203.269531 133.363281 L 207.117188 132.085938 L 209.167969 131.574219 L 210.703125 131.574219 L 212.242188 131.828125 L 213.007812 132.085938 L 213.523438 132.339844 L 213.78125 132.339844 L 213.523438 132.085938 L 213.007812 131.574219 L 210.445312 130.292969 L 208.652344 130.035156 L 206.089844 130.292969 L 204.296875 130.804688 L 202.503906 131.574219 L 200.453125 132.851562 L 198.402344 134.386719 Z M 198.914062 135.410156 " fill-opacity="1" fill-rule="evenodd"/><path fill="#003366" d="M 206.859375 134.898438 C 206.859375 134.332031 207.257812 133.875 207.757812 133.875 C 208.253906 133.875 208.65625 134.332031 208.65625 134.898438 C 208.65625 135.46875 208.253906 135.925781 207.757812 135.925781 C 207.257812 135.925781 206.859375 135.46875 206.859375 134.898438 Z M 206.859375 134.898438 " fill-opacity="1" fill-rule="evenodd"/><path fill="#000000" d="M 188.40625 129.011719 L 189.941406 128.757812 L 191.226562 127.734375 L 193.019531 125.6875 L 193.273438 125.171875 L 193.273438 125.6875 L 192.25 127.988281 L 191.996094 128.246094 L 192.761719 127.476562 L 194.8125 124.660156 L 196.09375 123.636719 L 200.195312 121.589844 L 201.988281 120.566406 L 202.246094 120.054688 L 201.734375 120.308594 L 200.964844 120.566406 L 198.65625 121.847656 L 195.328125 122.871094 L 193.789062 123.382812 L 192.761719 124.148438 L 191.226562 125.6875 L 189.429688 127.476562 L 188.148438 127.988281 L 186.355469 128.5 Z M 188.40625 129.011719 " fill-opacity="1" fill-rule="evenodd"/><path fill="#000000" d="M 217.367188 138.996094 L 216.855469 140.785156 L 215.828125 142.578125 L 213.007812 146.164062 L 209.933594 148.976562 L 208.652344 150 L 207.628906 150.511719 L 207.117188 150.511719 L 208.140625 148.976562 L 208.910156 148.210938 L 210.191406 146.675781 L 211.472656 144.625 L 212.5 142.835938 L 212.753906 141.554688 L 211.984375 140.53125 Z M 217.367188 138.996094 " fill-opacity="1" fill-rule="evenodd"/><path fill="#003366" d="M 249.917969 207.59375 L 250.175781 210.917969 L 250.6875 213.992188 L 251.457031 216.296875 L 252.480469 218.597656 L 255.300781 221.671875 L 257.863281 223.976562 L 260.171875 226.53125 L 261.449219 229.347656 L 262.222656 231.90625 L 262.476562 233.957031 L 262.476562 234.46875 L 262.222656 234.210938 L 261.964844 233.445312 L 261.449219 232.421875 L 259.660156 229.859375 L 257.09375 227.300781 L 256.070312 226.789062 L 255.8125 227.042969 L 256.070312 228.070312 L 256.582031 229.605469 L 257.351562 231.652344 L 258.375 233.699219 L 258.890625 235.75 L 259.144531 237.539062 L 258.890625 238.5625 L 258.632812 238.5625 L 258.121094 237.539062 L 257.351562 235.75 L 255.042969 231.394531 L 253.765625 229.347656 L 252.226562 227.554688 L 250.941406 226.019531 L 249.917969 224.230469 L 249.148438 220.648438 L 249.148438 216.550781 L 249.664062 212.710938 Z M 249.917969 207.59375 " fill-opacity="1" fill-rule="evenodd"/><path fill="#003366" d="M 236.335938 138.484375 L 238.128906 141.296875 L 239.664062 144.371094 L 241.203125 150.769531 L 241.714844 153.839844 L 241.972656 156.65625 L 242.230469 158.960938 L 242.230469 160.496094 L 242.742188 164.589844 L 242.484375 165.613281 L 241.714844 166.382812 L 240.4375 166.894531 L 238.640625 167.152344 L 234.796875 167.40625 L 231.464844 167.917969 L 225.570312 169.199219 L 224.03125 169.453125 L 222.496094 168.6875 L 221.46875 167.664062 L 220.699219 166.382812 L 220.699219 164.589844 L 220.957031 163.054688 L 222.238281 161.519531 L 224.03125 160.496094 L 226.339844 160.496094 L 228.902344 161.261719 L 230.695312 161.773438 L 231.207031 161.773438 L 231.464844 161.007812 L 230.953125 159.726562 L 230.183594 158.960938 L 229.15625 157.9375 L 228.902344 156.144531 L 228.644531 155.375 L 228.132812 155.121094 L 227.363281 155.375 L 226.59375 155.886719 L 224.03125 157.421875 L 221.210938 158.960938 L 219.675781 159.984375 L 217.625 161.519531 L 213.007812 165.871094 L 207.628906 169.710938 L 204.808594 170.992188 L 201.734375 171.5 L 198.914062 171.246094 L 196.605469 170.992188 L 194.8125 170.222656 L 193.53125 169.453125 L 193.019531 168.175781 L 193.273438 166.640625 L 194.558594 164.847656 L 196.863281 162.542969 L 199.683594 160.496094 L 202.757812 158.703125 L 205.320312 157.421875 L 208.140625 156.402344 L 210.445312 155.375 L 212.242188 154.097656 L 213.78125 152.5625 L 214.804688 150.511719 L 215.316406 149.488281 L 215.574219 148.976562 L 216.855469 148.976562 L 218.136719 149.488281 L 219.417969 150.769531 L 220.957031 151.792969 L 222.496094 152.304688 L 224.289062 152.050781 L 225.058594 151.535156 L 225.824219 150.511719 L 228.644531 146.164062 L 230.953125 142.578125 L 232.746094 139.761719 L 234.539062 137.972656 Z M 236.335938 138.484375 " fill-opacity="1" fill-rule="evenodd"/><path fill="#003366" d="M 246.84375 158.703125 L 248.125 161.007812 L 249.148438 163.054688 L 249.40625 164.847656 L 249.40625 166.640625 L 248.894531 168.175781 L 248.125 169.453125 L 245.816406 171.246094 L 244.792969 171.5 L 244.792969 170.734375 L 245.304688 170.222656 L 245.816406 168.6875 L 247.101562 164.589844 L 247.355469 162.542969 L 246.585938 160.238281 Z M 246.84375 158.703125 " fill-opacity="1" fill-rule="evenodd"/><path fill="#003366" d="M 244.28125 177.132812 L 247.101562 180.203125 L 249.40625 182.765625 L 251.199219 184.554688 L 252.738281 185.835938 L 254.53125 186.859375 L 256.328125 188.652344 L 257.605469 190.441406 L 258.121094 192.746094 L 258.121094 195.050781 L 258.632812 196.585938 L 258.890625 197.867188 L 258.890625 198.121094 L 258.375 197.609375 L 257.605469 196.328125 L 255.558594 192.488281 L 255.300781 191.976562 L 255.042969 191.976562 L 254.789062 192.746094 L 254.53125 193.769531 L 253.507812 196.839844 L 252.480469 198.378906 L 251.199219 199.65625 L 250.175781 200.425781 L 249.917969 200.171875 L 250.175781 199.144531 L 250.6875 197.609375 L 251.96875 194.023438 L 252.480469 192.234375 L 252.480469 190.957031 L 252.226562 190.1875 L 251.710938 191.210938 L 250.941406 192.488281 L 249.917969 193.515625 L 249.40625 193.515625 L 249.664062 192.746094 L 249.664062 192.234375 L 249.917969 191.464844 L 250.175781 190.1875 L 249.917969 189.671875 L 249.40625 190.441406 L 248.636719 191.210938 L 247.609375 191.976562 L 247.101562 191.976562 L 247.101562 190.957031 L 246.585938 188.90625 L 246.328125 188.90625 L 245.304688 190.441406 L 244.28125 190.957031 L 243 190.699219 L 242.230469 190.1875 L 241.972656 189.160156 L 241.972656 187.882812 L 241.203125 188.652344 L 239.664062 189.929688 L 237.871094 190.441406 L 237.359375 190.1875 L 237.359375 189.929688 L 238.128906 189.160156 L 238.898438 188.140625 L 241.203125 185.578125 L 241.972656 183.789062 L 242.230469 181.996094 L 242.484375 180.460938 L 242.484375 179.949219 L 243.253906 179.949219 L 243.765625 180.203125 L 244.023438 180.203125 L 244.28125 179.4375 Z M 244.28125 177.132812 " fill-opacity="1" fill-rule="evenodd"/><path fill="#003366" d="M 136.886719 126.453125 L 136.121094 129.011719 L 134.582031 131.574219 L 132.785156 133.621094 L 132.273438 134.132812 L 132.019531 134.132812 L 132.273438 133.875 L 133.300781 133.621094 L 136.632812 132.597656 L 140.21875 131.574219 L 141.5 131.316406 L 142.269531 130.804688 L 142.527344 130.804688 L 142.527344 131.316406 L 142.269531 132.339844 L 141.5 133.621094 L 139.707031 136.433594 L 138.683594 137.714844 L 137.402344 138.484375 L 136.632812 138.996094 L 136.375 138.996094 L 137.144531 138.996094 L 138.171875 138.738281 L 141.757812 137.714844 L 145.859375 136.433594 L 146.628906 136.179688 L 147.140625 136.179688 L 147.398438 136.433594 L 146.628906 137.460938 L 145.347656 138.484375 L 141.757812 141.042969 L 139.964844 141.8125 L 138.683594 142.324219 L 137.914062 142.578125 L 138.9375 143.089844 L 140.988281 143.347656 L 142.78125 143.347656 L 143.550781 143.601562 L 143.550781 144.625 L 142.527344 145.648438 L 140.734375 146.675781 L 139.964844 147.183594 L 139.964844 147.441406 L 140.988281 147.953125 L 142.78125 147.953125 L 144.320312 147.441406 L 145.347656 147.183594 L 145.859375 148.210938 L 145.601562 150 L 144.578125 152.304688 L 144.066406 153.328125 L 144.066406 154.097656 L 144.578125 154.609375 L 145.347656 154.867188 L 147.398438 154.351562 L 148.421875 153.585938 L 149.191406 152.304688 L 149.960938 151.28125 L 150.730469 151.023438 L 151.242188 151.535156 L 151.753906 152.816406 L 152.007812 154.097656 L 151.753906 155.886719 L 151.242188 157.9375 L 149.960938 159.984375 L 148.933594 161.519531 L 148.675781 162.800781 L 148.933594 163.3125 L 149.703125 163.566406 L 151.753906 163.3125 L 153.804688 161.773438 L 154.316406 161.519531 L 154.058594 162.289062 L 153.035156 163.566406 L 151.496094 165.613281 L 147.910156 169.964844 L 145.859375 171.757812 L 143.808594 173.292969 L 142.527344 174.0625 L 142.527344 174.574219 L 143.550781 174.316406 L 145.089844 174.0625 L 148.675781 172.527344 L 150.472656 171.757812 L 151.753906 170.734375 L 152.523438 170.222656 L 152.777344 170.222656 L 152.523438 170.992188 L 152.007812 171.757812 L 150.984375 173.035156 L 149.445312 174.574219 L 146.113281 177.386719 L 145.347656 177.898438 L 145.089844 178.414062 L 145.089844 178.667969 L 146.113281 178.414062 L 147.652344 177.644531 L 151.496094 175.597656 L 153.035156 174.574219 L 154.058594 173.804688 L 154.828125 173.292969 L 155.34375 173.546875 L 155.34375 175.34375 L 154.828125 176.367188 L 153.804688 177.898438 L 152.007812 179.179688 L 149.960938 180.460938 L 148.933594 180.972656 L 148.164062 181.484375 L 147.910156 182.25 L 148.675781 182.765625 L 149.960938 183.019531 L 153.804688 183.019531 L 155.597656 182.765625 L 156.878906 182.507812 L 157.136719 182.507812 L 157.394531 182.765625 L 157.136719 184.300781 L 156.109375 186.347656 L 154.574219 188.90625 L 150.730469 194.539062 L 148.675781 197.097656 L 146.882812 199.144531 L 145.859375 200.9375 L 145.347656 202.472656 L 145.601562 204.265625 L 146.628906 207.335938 L 147.398438 208.359375 L 147.652344 209.128906 L 147.652344 209.382812 L 147.398438 208.871094 L 147.398438 206.054688 L 147.652344 204.007812 L 148.421875 201.960938 L 149.445312 199.914062 L 150.984375 198.378906 L 153.035156 197.097656 L 154.828125 196.585938 L 155.597656 196.328125 L 155.597656 196.585938 L 155.085938 197.355469 L 154.058594 198.378906 L 153.035156 199.914062 L 152.007812 201.707031 L 151.496094 203.75 L 150.730469 207.847656 L 150.730469 211.175781 L 150.984375 212.199219 L 151.496094 212.710938 L 152.523438 212.710938 L 153.804688 211.6875 L 155.34375 210.664062 L 157.136719 210.40625 L 158.671875 210.664062 L 159.957031 211.429688 L 160.980469 212.964844 L 161.492188 214.761719 L 161.238281 217.0625 L 159.957031 219.621094 L 158.671875 222.179688 L 158.160156 223.976562 L 158.160156 225.507812 L 158.929688 226.277344 L 159.957031 226.53125 L 161.492188 226.53125 L 163.542969 226.277344 L 165.851562 225.507812 L 166.875 225.253906 L 167.644531 225.507812 L 168.671875 226.53125 L 168.671875 228.070312 L 168.414062 230.371094 L 166.621094 234.980469 L 165.851562 236.769531 L 165.335938 237.796875 L 165.335938 238.304688 L 165.59375 238.820312 L 166.621094 238.820312 L 167.902344 238.304688 L 168.671875 237.539062 L 168.925781 237.285156 L 169.183594 237.539062 L 169.4375 238.820312 L 169.949219 240.609375 L 169.949219 242.148438 L 170.464844 242.914062 L 171.488281 243.9375 L 172.769531 244.449219 L 173.796875 243.9375 L 175.078125 243.683594 L 176.871094 244.449219 L 177.640625 246.242188 L 177.898438 247.519531 L 177.382812 249.058594 L 176.101562 252.640625 L 175.078125 256.738281 L 174.308594 258.785156 L 173.28125 260.574219 L 171.488281 261.855469 L 169.4375 263.136719 L 167.644531 264.15625 L 166.875 264.925781 L 166.875 265.4375 L 167.644531 265.695312 L 168.925781 265.695312 L 172 264.671875 L 173.539062 263.648438 L 174.566406 263.136719 L 175.332031 263.390625 L 175.332031 264.15625 L 175.078125 265.695312 L 173.28125 268.765625 L 172 270.300781 L 170.207031 271.324219 L 169.183594 271.839844 L 169.183594 272.351562 L 170.207031 272.863281 L 175.332031 272.863281 L 177.128906 272.605469 L 178.152344 272.09375 L 178.667969 271.839844 L 178.921875 272.351562 L 178.921875 275.167969 L 177.898438 279.261719 L 176.101562 284.125 L 175.847656 285.148438 L 175.589844 285.660156 L 175.847656 286.171875 L 176.871094 285.660156 L 178.152344 284.636719 L 180.714844 281.308594 L 181.996094 279.515625 L 182.511719 278.234375 L 182.765625 277.46875 L 183.277344 277.980469 L 183.535156 279.003906 L 183.792969 280.796875 L 183.792969 285.660156 L 183.023438 291.800781 L 182.765625 293.082031 L 182.511719 294.105469 L 182.765625 295.128906 L 183.535156 295.386719 L 184.304688 294.617188 L 186.609375 292.058594 L 187.636719 290.523438 L 188.40625 289.496094 L 188.917969 289.242188 L 189.6875 290.011719 L 190.199219 291.289062 L 190.457031 293.082031 L 190.96875 297.433594 L 191.226562 299.222656 L 191.226562 300.503906 L 191.738281 301.273438 L 192.761719 302.039062 L 196.351562 302.039062 L 198.144531 301.527344 L 199.9375 300.761719 L 200.964844 299.480469 L 201.476562 297.945312 L 201.734375 297.175781 L 202.246094 296.921875 L 204.039062 296.664062 L 206.601562 297.175781 L 209.421875 297.6875 L 212.753906 298.457031 L 215.574219 298.714844 L 218.136719 298.203125 L 218.90625 297.6875 L 219.675781 296.664062 L 221.46875 291.800781 L 223.261719 286.425781 L 225.570312 281.5625 L 226.851562 279.515625 L 228.390625 278.234375 L 229.667969 276.699219 L 230.441406 274.398438 L 230.953125 271.582031 L 230.953125 268.507812 L 230.183594 262.621094 L 229.667969 260.320312 L 229.15625 258.785156 L 228.902344 258.527344 L 229.15625 258.527344 L 229.15625 258.785156 L 229.667969 259.550781 L 230.695312 262.109375 L 231.71875 265.4375 L 232.234375 269.277344 L 232.488281 273.628906 L 231.464844 278.234375 L 230.695312 280.539062 L 229.414062 282.585938 L 228.132812 284.636719 L 227.363281 286.171875 L 226.339844 289.242188 L 226.59375 291.546875 L 227.363281 293.082031 L 228.390625 294.363281 L 229.667969 294.875 L 230.695312 295.386719 L 230.953125 295.386719 L 230.695312 294.875 L 229.925781 293.59375 L 229.925781 291.546875 L 230.183594 290.265625 L 230.953125 288.730469 L 231.976562 287.449219 L 232.746094 287.195312 L 233.257812 287.707031 L 234.027344 288.730469 L 234.796875 292.3125 L 235.308594 296.152344 L 235.566406 297.433594 L 235.820312 297.945312 L 236.335938 297.433594 L 236.589844 296.152344 L 236.847656 293.082031 L 237.101562 290.265625 L 237.101562 289.496094 L 237.359375 289.242188 L 238.382812 289.753906 L 240.179688 293.082031 L 240.4375 293.59375 L 240.949219 293.851562 L 241.714844 293.59375 L 242.230469 293.082031 L 243.765625 291.035156 L 245.5625 287.960938 L 246.84375 286.683594 L 248.636719 286.171875 L 255.558594 286.171875 L 257.605469 285.402344 L 259.402344 283.867188 L 260.171875 282.585938 L 260.683594 281.050781 L 261.195312 277.726562 L 260.9375 274.140625 L 260.171875 270.8125 L 259.144531 267.742188 L 255.558594 261.855469 L 251.457031 256.738281 L 249.664062 254.433594 L 248.894531 252.382812 L 248.125 248.546875 L 247.609375 246.753906 L 246.84375 245.214844 L 245.304688 243.9375 L 243 242.660156 L 240.4375 241.378906 L 238.640625 239.585938 L 237.359375 237.539062 L 236.589844 235.492188 L 236.335938 233.699219 L 236.078125 232.164062 L 236.078125 230.628906 L 236.335938 230.886719 L 236.847656 231.90625 L 238.382812 234.722656 L 240.691406 237.539062 L 241.972656 238.820312 L 243 239.585938 L 243.765625 239.585938 L 244.023438 239.074219 L 244.023438 238.304688 L 243.765625 237.027344 L 243 234.210938 L 242.484375 232.933594 L 242.484375 231.140625 L 242.742188 230.886719 L 243.765625 231.394531 L 245.304688 232.421875 L 247.609375 232.933594 L 248.378906 232.933594 L 248.636719 232.421875 L 248.125 231.90625 L 247.609375 230.886719 L 246.84375 229.347656 L 246.328125 227.300781 L 246.074219 224.484375 L 246.328125 221.15625 L 246.84375 217.574219 L 246.84375 213.992188 L 246.074219 208.101562 L 245.046875 203.238281 L 245.046875 201.449219 L 245.304688 199.914062 L 245.816406 198.890625 L 245.816406 198.121094 L 245.5625 197.609375 L 245.046875 197.609375 L 243.253906 197.867188 L 240.691406 198.890625 L 239.152344 199.144531 L 237.617188 199.144531 L 234.539062 198.378906 L 231.207031 196.839844 L 227.621094 195.304688 L 223.519531 194.539062 L 219.417969 194.023438 L 216.085938 193.769531 L 214.804688 193.769531 L 214.804688 198.632812 L 215.828125 203.496094 L 216.597656 205.800781 L 217.878906 208.101562 L 218.90625 209.894531 L 219.164062 211.175781 L 218.90625 211.6875 L 218.136719 211.945312 L 217.367188 211.6875 L 216.339844 210.917969 L 214.546875 208.871094 L 214.035156 208.101562 L 213.78125 207.847656 L 213.523438 208.359375 L 213.523438 209.382812 L 213.78125 211.429688 L 214.035156 212.199219 L 214.035156 212.710938 L 213.78125 212.453125 L 212.5 210.917969 L 210.960938 208.613281 L 209.933594 205.035156 L 209.679688 204.265625 L 209.679688 203.75 L 209.421875 204.007812 L 209.167969 205.542969 L 208.910156 207.335938 L 208.652344 211.6875 L 208.652344 213.734375 L 208.398438 212.964844 L 207.882812 211.429688 L 205.835938 207.335938 L 203.78125 205.289062 L 201.21875 202.984375 L 200.195312 201.707031 L 199.683594 200.425781 L 199.683594 199.144531 L 200.195312 197.609375 L 201.988281 194.792969 L 203.269531 191.976562 L 204.808594 189.929688 L 206.859375 188.652344 L 207.882812 188.140625 L 208.652344 187.628906 L 209.167969 186.09375 L 209.679688 184.300781 L 210.960938 182.765625 L 211.730469 182.507812 L 212.5 182.507812 L 212.753906 183.277344 L 212.753906 184.554688 L 213.007812 185.066406 L 214.035156 185.066406 L 216.339844 184.8125 L 218.90625 184.554688 L 220.699219 184.300781 L 221.726562 184.554688 L 222.75 187.113281 L 223.261719 187.628906 L 225.570312 187.371094 L 227.875 186.859375 L 229.15625 187.113281 L 230.953125 188.140625 L 233.003906 188.90625 L 235.050781 188.652344 L 235.820312 187.882812 L 236.335938 186.859375 L 236.589844 184.042969 L 235.820312 180.972656 L 235.308594 179.949219 L 234.285156 179.179688 L 232.488281 178.667969 L 231.464844 178.925781 L 230.953125 179.695312 L 230.953125 180.714844 L 230.695312 181.230469 L 230.183594 180.460938 L 229.414062 179.179688 L 228.390625 177.644531 L 227.875 177.132812 L 227.621094 177.132812 L 227.363281 177.898438 L 227.105469 180.460938 L 226.851562 180.714844 L 226.082031 179.949219 L 224.03125 177.386719 L 223.261719 177.132812 L 222.75 177.644531 L 222.238281 178.925781 L 221.46875 180.714844 L 220.957031 181.230469 L 220.441406 181.484375 L 219.929688 180.714844 L 219.417969 179.179688 L 218.90625 177.386719 L 218.648438 176.878906 L 218.394531 176.878906 L 218.136719 177.898438 L 217.367188 179.4375 L 216.597656 180.203125 L 215.316406 180.714844 L 214.035156 180.972656 L 213.007812 180.714844 L 212.242188 180.203125 L 211.984375 179.4375 L 211.984375 177.386719 L 213.007812 175.34375 L 213.265625 174.828125 L 212.753906 175.085938 L 211.472656 175.851562 L 209.933594 177.132812 L 206.347656 180.460938 L 204.808594 182.25 L 203.78125 184.300781 L 203.015625 185.835938 L 202.757812 186.347656 L 202.503906 185.835938 L 202.503906 182.765625 L 202.757812 180.714844 L 202.503906 180.203125 L 200.964844 180.972656 L 199.9375 181.996094 L 199.167969 183.53125 L 198.402344 185.835938 L 197.886719 188.90625 L 197.886719 196.074219 L 197.375 197.097656 L 197.117188 197.867188 L 195.839844 198.378906 L 194.300781 197.867188 L 192.761719 196.585938 L 190.96875 194.539062 L 189.6875 192.234375 L 188.917969 189.929688 L 188.148438 188.394531 L 187.125 187.628906 L 185.585938 187.371094 L 184.304688 187.628906 L 181.996094 188.394531 L 181.484375 188.394531 L 181.484375 187.628906 L 181.230469 186.347656 L 180.460938 184.300781 L 177.640625 179.949219 L 175.078125 175.34375 L 174.308594 173.292969 L 174.566406 171.5 L 174.820312 170.222656 L 174.566406 169.199219 L 172.515625 167.917969 L 170.722656 166.640625 L 170.464844 165.613281 L 170.976562 164.335938 L 171.488281 162.289062 L 171.234375 159.726562 L 170.464844 156.914062 L 169.183594 154.097656 L 167.386719 151.535156 L 165.59375 150 L 163.800781 149.234375 L 162.773438 149.488281 L 162.007812 150 L 160.726562 151.28125 L 159.957031 151.535156 L 159.441406 151.28125 L 159.441406 150.511719 L 160.210938 147.953125 L 161.238281 145.394531 L 161.492188 144.625 L 161.492188 144.113281 L 160.46875 144.113281 L 158.929688 144.625 L 157.394531 144.882812 L 156.878906 144.625 L 156.878906 144.371094 L 157.90625 142.835938 L 159.699219 140.785156 L 160.726562 138.484375 L 160.726562 137.714844 L 160.46875 137.460938 L 159.957031 137.714844 L 158.929688 138.226562 L 156.625 139.507812 L 153.804688 140.785156 L 153.035156 140.785156 L 153.035156 140.277344 L 153.804688 138.996094 L 155.085938 137.714844 L 157.90625 134.386719 L 158.671875 133.109375 L 159.1875 132.339844 L 158.929688 131.574219 L 157.90625 131.316406 L 156.625 131.828125 L 154.828125 132.851562 L 153.292969 133.621094 L 152.265625 134.132812 L 151.496094 134.644531 L 150.472656 135.925781 L 149.960938 136.433594 L 150.214844 135.925781 L 150.472656 134.898438 L 151.242188 132.597656 L 151.753906 130.546875 L 151.753906 129.78125 L 151.242188 129.523438 L 150.214844 130.035156 L 149.703125 130.546875 L 148.933594 131.058594 L 147.652344 131.828125 L 147.398438 131.828125 L 147.652344 131.058594 L 149.703125 129.011719 L 152.523438 126.195312 L 155.34375 123.636719 L 155.855469 123.125 L 155.34375 123.382812 L 154.058594 124.148438 L 152.007812 125.429688 L 146.882812 127.476562 L 144.066406 127.734375 L 141.5 127.476562 L 141.246094 127.222656 L 141.5 126.710938 L 142.527344 125.171875 L 144.066406 123.382812 L 145.089844 121.589844 Z M 136.886719 126.453125 " fill-opacity="1" fill-rule="evenodd"/><path fill="#000000" d="M 222.496094 159.472656 L 221.46875 160.753906 L 220.441406 162.542969 L 219.929688 164.589844 L 219.675781 166.640625 L 219.929688 168.6875 L 220.957031 170.734375 L 222.238281 172.011719 L 224.289062 173.035156 L 226.082031 173.292969 L 227.875 173.292969 L 230.695312 172.527344 L 232.746094 172.011719 L 233.769531 172.011719 L 234.796875 172.527344 L 235.566406 173.035156 L 235.566406 173.546875 L 235.050781 173.804688 L 233.257812 173.546875 L 230.441406 173.546875 L 230.183594 174.0625 L 230.695312 175.085938 L 231.464844 176.367188 L 231.976562 177.644531 L 232.234375 178.15625 L 232.488281 178.15625 L 233.003906 177.644531 L 233.003906 176.621094 L 233.257812 176.878906 L 234.285156 178.15625 L 235.050781 180.203125 L 235.308594 181.742188 L 235.308594 181.996094 L 235.566406 181.996094 L 235.820312 181.230469 L 236.335938 178.15625 L 236.335938 177.386719 L 236.847656 177.644531 L 237.871094 178.925781 L 238.128906 179.4375 L 238.382812 179.695312 L 238.640625 179.179688 L 238.382812 177.644531 L 238.382812 177.132812 L 238.640625 177.386719 L 239.410156 179.4375 L 239.664062 181.996094 L 239.152344 183.019531 L 238.128906 183.789062 L 237.101562 184.300781 L 236.847656 184.554688 L 237.359375 185.066406 L 238.128906 185.578125 L 238.128906 186.09375 L 237.871094 186.859375 L 237.617188 187.371094 L 237.871094 187.371094 L 238.640625 186.859375 L 239.410156 186.09375 L 241.203125 183.53125 L 241.972656 180.460938 L 241.972656 178.15625 L 242.484375 176.367188 L 243.253906 175.085938 L 245.046875 174.0625 L 247.355469 172.78125 L 249.148438 170.734375 L 250.175781 167.917969 L 250.429688 166.125 L 250.175781 164.078125 L 249.148438 160.496094 L 247.609375 157.9375 L 246.328125 155.375 L 245.304688 152.050781 L 244.792969 148.210938 L 243.765625 145.394531 L 243 143.347656 L 242.742188 142.835938 L 242.742188 142.578125 L 243 142.835938 L 243.511719 143.089844 L 245.304688 143.601562 L 245.816406 143.347656 L 245.304688 142.835938 L 244.792969 142.066406 L 244.535156 141.296875 L 245.816406 140.019531 L 246.585938 139.507812 L 246.84375 139.25 L 247.101562 140.019531 L 247.867188 141.554688 L 249.40625 142.835938 L 250.175781 143.089844 L 251.457031 143.089844 L 253.507812 142.324219 L 254.53125 141.296875 L 255.042969 140.53125 L 255.042969 140.019531 L 255.300781 140.277344 L 256.070312 141.042969 L 256.839844 142.066406 L 256.582031 142.835938 L 255.042969 143.859375 L 254.53125 144.113281 L 253.765625 144.371094 L 253.507812 144.371094 L 253.765625 144.371094 L 255.042969 144.625 L 258.121094 144.371094 L 259.144531 143.601562 L 259.660156 142.578125 L 259.914062 141.296875 L 260.171875 139.761719 L 259.914062 138.996094 L 259.402344 137.972656 L 256.839844 136.179688 L 253.765625 134.644531 L 252.226562 134.132812 L 251.199219 133.875 L 248.636719 134.132812 L 246.328125 135.15625 L 244.535156 135.925781 L 243.765625 136.433594 L 243.765625 135.925781 L 244.023438 134.898438 L 245.046875 132.597656 L 246.074219 132.085938 L 247.355469 132.085938 L 249.917969 131.828125 L 250.941406 131.574219 L 252.226562 131.828125 L 254.019531 132.339844 L 254.53125 132.851562 L 255.300781 133.363281 L 256.070312 133.621094 L 259.660156 133.621094 L 261.195312 133.363281 L 261.449219 133.363281 L 261.195312 133.875 L 260.683594 134.644531 L 259.914062 134.898438 L 259.660156 135.15625 L 261.195312 136.179688 L 261.707031 136.949219 L 261.964844 137.460938 L 262.988281 137.203125 L 264.015625 136.433594 L 265.039062 135.410156 L 265.550781 134.132812 L 265.296875 132.851562 L 264.785156 131.828125 L 264.015625 131.316406 L 263.757812 131.316406 L 264.015625 131.316406 L 265.039062 131.574219 L 266.578125 132.339844 L 267.347656 133.109375 L 267.347656 133.363281 L 267.601562 133.109375 L 267.601562 132.085938 L 266.835938 130.546875 L 265.296875 129.011719 L 263.757812 127.734375 L 263.246094 126.964844 L 262.734375 126.710938 L 261.707031 126.964844 L 259.144531 127.988281 L 257.605469 127.988281 L 256.328125 127.476562 L 256.070312 127.222656 L 255.8125 127.222656 L 256.839844 127.988281 L 258.890625 129.269531 L 261.449219 130.035156 L 262.476562 130.292969 L 261.964844 130.035156 L 261.195312 130.035156 L 258.632812 129.523438 L 256.839844 128.757812 L 256.070312 127.988281 L 255.300781 127.476562 L 253.25 127.476562 L 252.738281 127.222656 L 251.710938 126.195312 L 249.917969 125.941406 L 248.636719 125.941406 L 249.148438 126.195312 L 252.226562 127.734375 L 252.996094 128.5 L 253.507812 129.269531 L 254.273438 129.78125 L 255.300781 130.546875 L 256.070312 130.804688 L 255.558594 130.804688 L 254.273438 130.546875 L 252.738281 130.035156 L 251.96875 129.269531 L 251.199219 127.988281 L 250.175781 127.476562 L 248.894531 127.222656 L 246.585938 126.453125 L 245.304688 125.171875 L 245.304688 124.148438 L 245.816406 122.871094 L 246.84375 121.335938 L 248.125 120.308594 L 248.378906 120.054688 L 247.867188 120.054688 L 246.328125 121.078125 L 244.28125 123.382812 L 243.511719 124.917969 L 243 126.710938 L 242.230469 128.246094 L 240.691406 129.269531 L 238.640625 129.78125 L 235.820312 129.78125 L 235.566406 130.292969 L 236.078125 131.316406 L 238.640625 134.132812 L 239.152344 134.644531 L 239.152344 136.179688 L 238.898438 137.203125 L 238.898438 139.25 L 239.152344 140.277344 L 239.921875 141.554688 L 241.972656 145.394531 L 243.511719 149.746094 L 244.023438 152.050781 L 244.535156 153.839844 L 244.792969 155.375 L 245.304688 156.402344 L 245.816406 157.421875 L 246.585938 158.960938 L 247.609375 160.496094 L 248.378906 162.289062 L 249.40625 166.125 L 249.148438 168.175781 L 248.125 169.710938 L 245.5625 172.269531 L 243.253906 173.804688 L 241.203125 174.316406 L 239.921875 174.0625 L 239.410156 173.546875 L 238.640625 172.78125 L 238.128906 172.011719 L 237.359375 170.992188 L 235.820312 169.453125 L 234.796875 169.199219 L 233.515625 169.199219 L 230.953125 169.964844 L 228.644531 170.992188 L 226.339844 171.5 L 224.03125 170.734375 L 222.238281 168.941406 L 221.210938 166.640625 L 221.210938 163.824219 L 222.238281 160.753906 Z M 222.496094 159.472656 " fill-opacity="1" fill-rule="evenodd"/><path fill="#003366" d="M 248.894531 139.761719 C 248.894531 139.195312 249.292969 138.738281 249.789062 138.738281 C 250.289062 138.738281 250.6875 139.195312 250.6875 139.761719 C 250.6875 140.332031 250.289062 140.785156 249.789062 140.785156 C 249.292969 140.785156 248.894531 140.332031 248.894531 139.761719 Z M 248.894531 139.761719 " fill-opacity="1" fill-rule="evenodd"/><path fill="#003366" d="M 246.328125 137.714844 L 247.867188 136.949219 L 249.917969 136.433594 L 252.480469 136.433594 L 255.300781 136.949219 L 256.328125 137.203125 L 256.070312 136.949219 L 255.300781 136.179688 L 253.765625 135.667969 L 249.917969 134.898438 L 247.867188 135.15625 L 246.328125 136.179688 Z M 246.328125 137.714844 " fill-opacity="1" fill-rule="evenodd"/><path fill="#000000" d="M 255.8125 145.136719 L 255.042969 145.90625 L 254.273438 146.417969 L 252.226562 146.675781 L 250.175781 146.417969 L 249.40625 146.164062 L 249.148438 146.164062 L 249.40625 146.417969 L 250.429688 147.183594 L 251.457031 147.699219 L 252.226562 147.953125 L 252.738281 148.210938 L 252.996094 148.976562 L 252.996094 150.769531 L 253.25 151.023438 L 253.765625 150.769531 L 255.300781 149.488281 L 257.351562 147.699219 L 258.375 145.648438 Z M 255.8125 145.136719 " fill-opacity="1" fill-rule="evenodd"/><path fill="#02284d" d="M 259.402344 160.238281 L 259.660156 163.566406 L 260.683594 167.152344 L 261.964844 169.964844 L 262.734375 170.992188 L 263.246094 171.5 L 263.503906 171.5 L 262.734375 171.246094 L 260.683594 169.964844 L 260.425781 169.710938 L 260.683594 170.222656 L 261.449219 171.5 L 261.707031 172.527344 L 262.222656 173.546875 L 262.222656 175.085938 L 261.964844 175.597656 L 261.707031 175.597656 L 261.707031 174.828125 L 261.195312 173.546875 L 259.914062 172.011719 L 258.375 170.476562 L 257.605469 168.429688 L 257.351562 166.382812 L 257.605469 164.589844 L 257.863281 164.335938 L 257.863281 164.847656 L 258.121094 165.871094 L 258.121094 167.40625 L 258.890625 170.734375 L 259.144531 172.269531 L 259.914062 173.035156 L 260.9375 174.574219 L 261.449219 176.367188 L 261.195312 177.898438 L 261.195312 178.667969 L 261.195312 178.15625 L 260.9375 176.878906 L 259.660156 174.0625 L 259.402344 173.804688 L 259.402344 174.316406 L 259.660156 176.109375 L 260.425781 178.667969 L 261.964844 180.714844 L 262.734375 181.230469 L 262.734375 181.996094 L 262.222656 181.996094 L 261.449219 181.742188 L 260.683594 181.230469 L 259.402344 179.949219 L 258.121094 178.414062 L 256.839844 176.621094 L 255.8125 175.085938 L 254.789062 172.78125 L 254.019531 170.992188 L 253.507812 169.964844 L 253.25 169.964844 L 253.25 170.992188 L 253.507812 172.269531 L 254.019531 174.0625 L 256.070312 178.414062 L 259.144531 182.765625 L 260.683594 184.554688 L 261.449219 185.835938 L 261.964844 186.859375 L 262.222656 187.628906 L 262.222656 188.394531 L 261.964844 188.394531 L 261.707031 187.882812 L 260.9375 186.859375 L 259.914062 185.578125 L 258.890625 184.8125 L 258.121094 184.554688 L 257.351562 183.789062 L 256.070312 181.742188 L 255.042969 179.695312 L 254.53125 179.179688 L 254.53125 178.925781 L 254.789062 179.179688 L 255.300781 180.203125 L 257.351562 183.53125 L 259.144531 187.113281 L 259.660156 188.394531 L 259.914062 189.417969 L 259.660156 189.671875 L 259.144531 189.160156 L 258.375 188.394531 L 257.351562 187.113281 L 254.789062 184.300781 L 253.25 183.277344 L 251.710938 182.507812 L 250.6875 181.484375 L 250.429688 179.179688 L 250.941406 176.109375 L 251.710938 173.035156 L 252.996094 169.710938 L 254.273438 166.640625 L 255.558594 164.335938 L 256.582031 163.3125 Z M 259.402344 160.238281 " fill-opacity="1" fill-rule="evenodd"/><path fill="#02284d" d="M 118.945312 114.933594 L 117.921875 116.472656 L 116.640625 118.007812 L 113.050781 120.308594 L 108.695312 121.335938 L 106.644531 121.335938 L 104.851562 120.824219 L 104.082031 120.566406 L 103.570312 120.308594 L 104.335938 120.824219 L 105.621094 121.589844 L 109.207031 122.613281 L 110.746094 122.871094 L 112.28125 122.871094 L 112.28125 123.382812 L 111.511719 125.171875 L 109.976562 127.222656 L 107.410156 128.5 L 106.390625 128.757812 L 106.132812 129.011719 L 106.644531 129.269531 L 107.667969 129.269531 L 110.234375 129.011719 L 111.511719 128.5 L 112.796875 127.476562 L 115.101562 125.171875 L 117.410156 122.613281 L 119.460938 119.542969 L 120.742188 115.957031 Z M 118.945312 114.933594 " fill-opacity="1" fill-rule="evenodd"/><path fill="#02284d" d="M 115.101562 127.734375 L 114.589844 128.757812 L 113.5625 129.78125 L 110.746094 131.316406 L 107.410156 132.085938 L 104.851562 132.085938 L 104.082031 131.828125 L 103.824219 132.085938 L 104.082031 132.597656 L 105.363281 133.109375 L 107.15625 133.621094 L 107.667969 133.875 L 107.925781 133.875 L 107.410156 134.386719 L 105.363281 134.644531 L 102.800781 134.386719 L 102.03125 134.386719 L 102.289062 134.898438 L 103.570312 135.667969 L 105.363281 136.179688 L 107.667969 136.433594 L 110.234375 135.667969 L 112.796875 133.875 L 114.074219 132.597656 L 115.101562 130.804688 Z M 115.101562 127.734375 " fill-opacity="1" fill-rule="evenodd"/><path fill="#02284d" d="M 115.613281 131.316406 L 114.332031 134.898438 L 111.769531 138.226562 L 108.695312 140.53125 L 107.410156 141.042969 L 105.875 141.296875 L 105.105469 141.296875 L 105.105469 141.554688 L 106.132812 141.8125 L 107.410156 141.8125 L 110.488281 141.042969 L 112.027344 140.019531 L 113.050781 138.484375 L 113.5625 137.203125 L 113.820312 136.949219 L 113.820312 137.714844 L 113.5625 138.738281 L 112.28125 142.066406 L 111 143.347656 L 109.71875 144.371094 L 108.695312 144.882812 L 108.695312 145.136719 L 109.464844 145.136719 L 110.746094 144.625 L 112.28125 143.347656 L 113.820312 141.296875 L 115.359375 138.226562 L 116.382812 134.132812 Z M 115.613281 131.316406 " fill-opacity="1" fill-rule="evenodd"/><path fill="#000000" d="M 191.480469 51.203125 L 187.378906 51.457031 L 183.535156 52.480469 L 179.945312 54.015625 L 176.871094 55.808594 L 170.976562 60.671875 L 166.105469 66.046875 L 161.492188 71.679688 L 157.394531 76.796875 L 155.085938 78.84375 L 153.035156 80.636719 L 150.730469 81.917969 L 148.421875 82.683594 L 151.242188 80.890625 L 153.804688 78.84375 L 158.160156 73.726562 L 161.75 68.605469 L 163.03125 66.304688 L 164.3125 64.253906 L 166.875 60.929688 L 170.464844 58.113281 L 173.28125 56.320312 L 174.308594 55.808594 L 174.566406 55.554688 L 174.050781 55.554688 L 172.769531 56.0625 L 170.976562 56.578125 L 168.925781 57.34375 L 164.058594 59.648438 L 161.75 61.183594 L 159.699219 62.976562 L 160.210938 62.207031 L 160.980469 61.441406 L 163.03125 58.878906 L 165.335938 56.832031 L 166.105469 56.0625 L 166.875 55.808594 L 167.132812 55.808594 L 160.46875 55.808594 L 158.671875 56.0625 L 157.394531 56.0625 L 155.597656 56.320312 L 154.574219 56.832031 L 153.292969 57.601562 L 151.496094 59.136719 L 148.675781 61.441406 L 145.347656 64.253906 L 141.5 67.582031 L 133.8125 74.492188 L 130.480469 77.566406 L 127.660156 80.378906 L 126.890625 81.40625 L 126.125 82.171875 L 126.378906 82.171875 L 127.917969 81.148438 L 129.96875 79.355469 L 134.835938 74.75 L 137.144531 72.957031 L 138.683594 71.679688 L 139.449219 71.167969 L 139.964844 71.167969 L 139.707031 71.679688 L 139.449219 72.703125 L 137.914062 74.75 L 135.863281 76.542969 L 135.351562 76.796875 L 135.605469 76.796875 L 136.886719 76.285156 L 138.683594 75.519531 L 140.988281 74.238281 L 143.550781 72.445312 L 149.191406 68.09375 L 147.652344 70.910156 L 146.113281 73.214844 L 142.527344 76.796875 L 138.683594 79.355469 L 134.582031 81.917969 L 133.8125 82.429688 L 133.300781 82.941406 L 133.300781 83.195312 L 133.554688 83.195312 L 135.09375 82.941406 L 137.402344 81.917969 L 139.964844 80.636719 L 143.039062 78.84375 L 145.859375 76.796875 L 148.421875 74.492188 L 147.398438 76.542969 L 145.859375 78.589844 L 141.5 82.683594 L 136.375 86.011719 L 133.8125 87.292969 L 131.503906 88.316406 L 127.40625 89.851562 L 124.328125 91.644531 L 118.433594 95.738281 L 115.613281 97.53125 L 113.820312 98.808594 L 112.28125 99.320312 L 111.511719 99.578125 L 112.28125 99.320312 L 113.5625 99.320312 L 115.359375 99.066406 L 119.460938 98.296875 L 123.5625 97.019531 L 124.839844 96.507812 L 125.355469 96.761719 L 125.097656 97.53125 L 124.328125 98.554688 L 121.511719 100.859375 L 117.664062 103.417969 L 117.664062 103.160156 L 118.691406 102.394531 L 120.484375 101.625 L 124.839844 99.320312 L 127.40625 98.296875 L 129.96875 97.785156 L 135.09375 97.273438 L 140.734375 96.25 L 147.140625 94.714844 L 150.730469 93.433594 L 154.574219 92.15625 L 158.671875 90.363281 L 162.773438 87.804688 L 166.621094 84.734375 L 170.464844 81.148438 L 173.539062 77.566406 L 176.101562 74.238281 L 178.152344 70.910156 L 179.179688 67.839844 L 175.078125 71.933594 L 171.488281 75.773438 L 169.949219 77.566406 L 168.414062 79.101562 L 167.386719 79.867188 L 166.363281 80.378906 L 166.105469 80.125 L 166.363281 79.101562 L 167.386719 77.308594 L 168.925781 75.261719 L 170.464844 72.957031 L 172.257812 70.652344 L 173.796875 68.351562 L 175.078125 66.558594 L 177.640625 63.488281 L 180.460938 60.929688 L 182.765625 59.136719 L 183.535156 58.625 L 183.792969 58.367188 L 183.277344 58.625 L 181.484375 59.648438 L 178.921875 61.183594 L 176.101562 63.230469 L 173.027344 65.792969 L 169.949219 68.863281 L 167.386719 72.445312 L 165.335938 76.542969 L 163.542969 80.125 L 161.492188 82.429688 L 159.441406 83.707031 L 157.394531 84.222656 L 155.34375 84.222656 L 153.804688 83.964844 L 152.777344 83.707031 L 152.265625 83.453125 L 152.523438 83.195312 L 153.035156 82.171875 L 154.058594 80.890625 L 155.597656 79.355469 L 159.441406 74.75 L 164.058594 69.886719 L 169.183594 64.765625 L 174.308594 60.160156 L 176.871094 58.113281 L 179.179688 56.578125 L 181.484375 55.554688 L 183.277344 55.042969 Z M 191.480469 51.203125 " fill-opacity="1" fill-rule="evenodd"/><path fill="#000000" d="M 165.851562 88.316406 L 164.570312 92.410156 L 163.03125 95.738281 L 161.238281 98.808594 L 158.929688 101.367188 L 156.367188 103.417969 L 153.035156 104.953125 L 149.445312 105.976562 L 145.347656 106.488281 L 140.988281 107 L 136.632812 108.023438 L 132.53125 109.304688 L 128.941406 110.585938 L 125.609375 111.863281 L 124.328125 112.632812 L 123.046875 113.144531 L 121.511719 113.910156 L 120.742188 114.167969 L 121.253906 113.65625 L 122.792969 112.632812 L 125.355469 111.097656 L 128.429688 109.304688 L 135.09375 105.71875 L 138.171875 104.699219 L 140.734375 104.183594 L 146.113281 103.929688 L 151.753906 103.417969 L 154.316406 102.648438 L 156.625 101.882812 L 158.160156 100.601562 L 159.1875 99.320312 L 159.441406 98.296875 L 159.1875 97.785156 L 158.417969 98.042969 L 156.878906 98.808594 L 155.085938 99.832031 L 152.777344 100.601562 L 149.960938 101.367188 L 146.882812 101.625 L 145.089844 101.625 L 145.859375 101.367188 L 146.882812 101.113281 L 148.164062 100.859375 L 152.007812 99.832031 L 156.109375 97.785156 L 159.957031 95.226562 L 161.492188 93.433594 L 163.03125 91.386719 L 164.058594 89.082031 L 164.570312 86.269531 Z M 165.851562 88.316406 " fill-opacity="1" fill-rule="evenodd"/><path fill="#000000" d="M 160.726562 101.882812 L 159.957031 104.953125 L 158.929688 107.769531 L 157.648438 110.328125 L 156.367188 112.375 L 154.574219 113.910156 L 152.265625 115.191406 L 149.445312 116.214844 L 146.113281 116.726562 L 138.9375 118.261719 L 132.53125 120.824219 L 129.710938 122.101562 L 127.148438 123.636719 L 125.355469 125.171875 L 123.816406 126.453125 L 123.046875 127.222656 L 123.5625 126.964844 L 124.585938 125.6875 L 126.636719 123.894531 L 129.457031 121.847656 L 132.785156 119.542969 L 137.144531 117.496094 L 141.757812 115.703125 L 140.988281 115.191406 L 139.964844 115.191406 L 137.402344 115.703125 L 134.835938 116.472656 L 133.8125 116.726562 L 133.554688 116.726562 L 133.554688 116.472656 L 134.070312 116.214844 L 135.09375 115.445312 L 136.632812 114.679688 L 138.683594 114.167969 L 140.988281 113.398438 L 143.808594 113.144531 L 149.960938 113.144531 L 152.265625 112.632812 L 154.316406 111.609375 L 155.597656 110.328125 L 157.90625 107 L 158.671875 104.953125 L 159.699219 102.648438 Z M 160.726562 101.882812 " fill-opacity="1" fill-rule="evenodd"/><path fill="#000000" d="M 127.148438 105.210938 L 130.480469 101.625 L 134.070312 99.320312 L 137.65625 97.785156 L 140.988281 96.761719 L 144.066406 95.996094 L 146.628906 95.226562 L 148.675781 93.945312 L 149.960938 92.15625 L 148.933594 94.457031 L 146.882812 96.25 L 144.320312 97.273438 L 141.246094 98.296875 L 134.582031 100.347656 L 131.503906 101.882812 L 128.941406 104.183594 Z M 127.148438 105.210938 " fill-opacity="1" fill-rule="evenodd"/><path fill="#000000" d="M 156.109375 114.933594 L 154.574219 117.496094 L 152.777344 119.542969 L 151.242188 121.335938 L 149.703125 122.359375 L 146.371094 123.894531 L 143.296875 124.660156 L 137.65625 124.917969 L 135.605469 125.171875 L 133.8125 126.453125 L 135.09375 124.917969 L 136.886719 123.894531 L 139.195312 123.382812 L 144.835938 122.359375 L 147.910156 121.078125 L 150.984375 119.285156 L 153.804688 116.472656 Z M 156.109375 114.933594 " fill-opacity="1" fill-rule="evenodd"/><path fill="#000000" d="M 156.878906 122.871094 L 156.625 124.40625 L 155.597656 126.195312 L 152.265625 129.78125 L 148.675781 133.875 L 147.140625 135.925781 L 146.113281 138.226562 L 145.601562 139.761719 L 145.089844 140.277344 L 145.089844 139.507812 L 145.601562 137.972656 L 146.628906 135.667969 L 148.421875 132.597656 L 151.242188 129.269531 L 154.828125 125.429688 Z M 156.878906 122.871094 " fill-opacity="1" fill-rule="evenodd"/><path fill="#02284d" d="M 158.671875 83.707031 L 157.394531 85.242188 L 155.085938 86.269531 L 152.523438 87.035156 L 149.445312 87.546875 L 143.296875 88.828125 L 140.476562 89.851562 L 137.914062 91.386719 L 136.886719 92.15625 L 136.121094 92.410156 L 135.605469 92.667969 L 136.121094 91.898438 L 137.65625 90.621094 L 140.21875 89.082031 L 144.066406 87.292969 L 148.933594 85.757812 L 155.085938 84.734375 Z M 158.671875 83.707031 " fill-opacity="1" fill-rule="evenodd"/><path fill="#000000" d="M 170.722656 50.945312 L 163.800781 52.480469 L 157.136719 55.042969 L 150.984375 58.113281 L 145.347656 61.441406 L 140.476562 65.28125 L 136.632812 68.863281 L 133.554688 72.191406 L 132.785156 73.726562 L 132.019531 75.003906 L 131.503906 76.03125 L 131.25 76.542969 L 130.992188 76.796875 L 130.992188 76.542969 L 131.25 76.03125 L 131.503906 75.261719 L 132.785156 72.703125 L 134.835938 69.375 L 137.914062 65.535156 L 142.015625 61.441406 L 147.398438 57.34375 L 148.933594 56.578125 L 151.242188 55.808594 L 157.648438 53.503906 L 161.238281 52.480469 L 164.058594 51.714844 L 166.621094 51.203125 L 167.902344 50.945312 Z M 170.722656 50.945312 " fill-opacity="1" fill-rule="evenodd"/><path fill="#000000" d="M 138.425781 177.386719 L 141.246094 177.132812 L 143.296875 176.621094 L 144.835938 175.851562 L 145.347656 175.597656 L 145.089844 175.851562 L 144.835938 176.367188 L 143.296875 178.15625 L 141.5 179.949219 L 139.964844 181.230469 L 139.707031 181.742188 L 140.476562 181.996094 L 143.550781 181.230469 L 144.066406 181.230469 L 143.808594 181.230469 L 143.296875 181.742188 L 142.527344 182.507812 L 141.5 183.53125 L 140.21875 184.8125 L 138.9375 186.859375 L 137.914062 189.160156 L 139.449219 187.113281 L 140.988281 186.09375 L 142.269531 185.578125 L 144.320312 185.578125 L 143.550781 185.835938 L 142.527344 186.347656 L 140.988281 187.113281 L 139.707031 188.394531 L 138.171875 190.441406 L 136.886719 193.257812 L 136.375 194.539062 L 136.121094 195.050781 L 135.605469 195.050781 L 135.605469 194.539062 L 135.351562 192.234375 L 135.605469 189.160156 L 136.121094 182.25 L 136.632812 179.695312 L 136.632812 178.667969 Z M 138.425781 177.386719 " fill-opacity="1" fill-rule="evenodd"/><path fill="#000000" d="M 145.089844 209.894531 L 145.347656 215.015625 L 145.089844 220.648438 L 143.808594 225.765625 L 142.78125 227.554688 L 141.757812 229.09375 L 143.808594 228.070312 L 145.089844 226.53125 L 145.601562 224.484375 L 145.859375 222.4375 L 145.859375 221.925781 L 146.113281 222.179688 L 146.113281 222.949219 L 146.371094 224.230469 L 145.601562 227.8125 L 144.835938 229.605469 L 143.550781 231.394531 L 145.601562 229.859375 L 147.140625 228.070312 L 148.164062 225.507812 L 148.421875 223.71875 L 148.164062 221.414062 L 149.191406 223.207031 L 149.960938 224.484375 L 150.472656 225.507812 L 150.730469 226.789062 L 150.730469 227.042969 L 150.730469 226.789062 L 150.984375 226.277344 L 150.730469 224.996094 L 150.214844 222.179688 L 148.421875 219.113281 L 146.628906 216.296875 L 145.601562 213.480469 L 145.347656 211.429688 L 145.347656 210.664062 Z M 145.089844 209.894531 " fill-opacity="1" fill-rule="evenodd"/><path fill="#000000" d="M 143.808594 193.257812 L 142.269531 194.28125 L 140.988281 195.5625 L 139.195312 198.632812 L 138.425781 202.730469 L 138.683594 207.59375 L 140.21875 212.199219 L 141.246094 213.992188 L 142.015625 215.527344 L 142.527344 217.0625 L 142.78125 218.34375 L 142.527344 219.621094 L 141.5 220.902344 L 140.734375 221.925781 L 140.988281 222.4375 L 141.757812 221.925781 L 142.78125 220.902344 L 143.550781 218.855469 L 143.550781 216.296875 L 143.296875 214.503906 L 142.527344 212.710938 L 141.5 210.664062 L 140.21875 208.359375 L 139.964844 207.335938 L 139.964844 206.054688 L 140.734375 203.238281 L 142.015625 200.425781 L 143.550781 198.378906 L 144.066406 197.867188 L 143.808594 197.867188 L 142.269531 198.632812 L 140.21875 200.171875 L 139.449219 201.191406 L 139.195312 202.21875 L 138.9375 202.984375 L 138.9375 201.960938 L 139.195312 200.683594 L 140.21875 197.355469 L 141.246094 195.820312 Z M 143.808594 193.257812 " fill-opacity="1" fill-rule="evenodd"/><path fill="#000000" d="M 214.546875 169.710938 L 211.730469 170.476562 L 209.679688 171.246094 L 208.140625 172.269531 L 207.117188 173.292969 L 206.347656 175.085938 L 206.089844 176.109375 L 205.578125 176.109375 L 204.296875 175.851562 L 202.757812 175.34375 L 201.476562 175.597656 L 199.9375 177.132812 L 196.863281 181.230469 L 196.351562 181.996094 L 196.09375 182.507812 L 196.605469 181.996094 L 197.375 181.230469 L 198.144531 180.203125 L 200.453125 178.15625 L 201.476562 177.386719 L 202.503906 177.132812 L 203.78125 177.386719 L 204.039062 178.414062 L 204.039062 179.4375 L 204.296875 178.925781 L 205.320312 177.898438 L 206.601562 176.109375 L 207.882812 173.546875 L 208.652344 172.527344 L 209.167969 172.269531 L 209.421875 172.527344 L 209.679688 173.035156 L 209.933594 174.574219 L 209.933594 175.34375 L 210.191406 175.085938 L 210.960938 174.0625 L 211.472656 173.035156 L 211.730469 172.269531 L 212.242188 172.011719 L 213.007812 172.527344 L 213.78125 173.546875 L 214.035156 175.085938 L 214.035156 175.597656 L 214.292969 175.597656 L 215.0625 174.574219 L 215.828125 172.78125 L 216.085938 170.734375 Z M 214.546875 169.710938 " fill-opacity="1" fill-rule="evenodd"/><path fill="#000000" d="M 172.515625 161.007812 L 171.488281 168.175781 L 171.488281 171.757812 L 172.515625 175.34375 L 173.027344 176.878906 L 173.28125 178.414062 L 173.28125 180.460938 L 172.769531 181.742188 L 172.257812 182.25 L 172.515625 181.742188 L 173.796875 180.460938 L 174.566406 178.414062 L 174.820312 177.132812 L 174.566406 175.597656 L 173.539062 173.035156 L 172.769531 171.246094 L 172.257812 169.199219 L 172.515625 167.917969 L 173.027344 166.382812 L 174.308594 167.152344 L 175.078125 168.175781 L 176.101562 170.476562 L 176.101562 173.035156 L 176.359375 172.527344 L 176.871094 170.734375 L 176.871094 169.710938 L 176.617188 168.429688 L 175.847656 166.894531 L 174.566406 165.359375 Z M 172.515625 161.007812 " fill-opacity="1" fill-rule="evenodd"/><path fill="#003366" d="M 182.253906 174.574219 L 180.460938 176.878906 L 179.691406 179.949219 L 179.691406 183.019531 L 180.203125 185.835938 L 180.460938 186.605469 L 180.714844 186.859375 L 180.714844 185.324219 L 180.460938 182.507812 L 180.714844 180.203125 L 180.972656 179.695312 L 181.484375 179.695312 L 182.253906 180.972656 L 182.765625 182.765625 L 182.511719 184.042969 L 182.511719 184.554688 L 183.277344 184.300781 L 183.792969 183.789062 L 183.792969 183.019531 L 183.535156 181.742188 L 183.023438 179.949219 L 182.253906 178.414062 L 181.996094 177.132812 L 181.742188 176.367188 L 181.742188 175.851562 L 182.253906 175.597656 Z M 182.253906 174.574219 " fill-opacity="1" fill-rule="evenodd"/><path fill="#000000" d="M 193.789062 184.042969 L 193.273438 185.066406 L 193.019531 186.605469 L 193.273438 190.1875 L 193.789062 193.515625 L 194.300781 194.792969 L 195.070312 195.5625 L 194.042969 195.050781 L 192.761719 193.515625 L 192.25 192.234375 L 191.996094 190.699219 L 191.996094 189.417969 L 191.738281 188.90625 L 191.226562 189.417969 L 190.199219 190.957031 L 188.660156 192.234375 L 187.894531 192.234375 L 188.148438 191.722656 L 188.660156 191.210938 L 189.175781 190.441406 L 189.6875 189.417969 L 189.941406 187.371094 L 189.6875 186.605469 L 188.917969 186.347656 L 187.378906 187.113281 L 185.332031 189.160156 L 185.585938 188.652344 L 186.097656 187.113281 L 186.609375 185.066406 L 186.867188 182.507812 L 186.867188 181.742188 L 187.125 181.742188 L 187.378906 182.765625 L 187.894531 184.554688 L 188.660156 185.835938 L 189.429688 185.835938 L 190.199219 185.324219 L 190.710938 183.019531 L 190.710938 182.765625 L 190.710938 183.019531 L 191.226562 184.554688 L 191.480469 186.605469 L 191.480469 187.628906 L 193.019531 185.066406 Z M 193.789062 184.042969 " fill-opacity="1" fill-rule="evenodd"/><path fill="#000000" d="M 210.191406 183.277344 L 210.191406 186.09375 L 209.679688 188.394531 L 208.398438 189.929688 L 206.601562 190.957031 L 205.066406 192.488281 L 204.808594 194.28125 L 205.066406 196.328125 L 205.835938 198.378906 L 206.089844 198.890625 L 206.089844 197.609375 L 206.347656 195.050781 L 207.371094 193.003906 L 207.882812 192.488281 L 208.398438 192.488281 L 208.652344 193.769531 L 208.910156 195.5625 L 208.910156 196.074219 L 209.167969 196.328125 L 209.421875 196.074219 L 209.679688 195.5625 L 210.191406 194.28125 L 211.214844 192.488281 L 212.242188 191.976562 L 213.78125 191.464844 L 217.367188 190.957031 L 221.46875 190.957031 L 225.3125 191.210938 L 228.390625 191.722656 L 230.441406 192.488281 L 232.746094 193.515625 L 235.308594 194.023438 L 236.847656 194.023438 L 238.640625 193.769531 L 240.691406 193.515625 L 242.484375 193.769531 L 245.816406 195.304688 L 247.867188 196.839844 L 248.378906 197.355469 L 248.636719 197.609375 L 248.378906 197.867188 L 248.125 198.632812 L 247.355469 201.449219 L 246.585938 204.519531 L 246.84375 206.054688 L 247.101562 207.078125 L 247.609375 207.847656 L 247.867188 207.335938 L 247.867188 204.265625 L 248.378906 202.21875 L 248.894531 201.707031 L 249.148438 201.707031 L 249.40625 202.984375 L 249.664062 205.035156 L 250.941406 206.824219 L 251.457031 207.078125 L 251.457031 206.566406 L 250.941406 205.289062 L 250.429688 203.75 L 249.664062 199.65625 L 249.664062 197.609375 L 250.175781 195.5625 L 250.175781 195.050781 L 249.917969 194.539062 L 247.867188 194.023438 L 245.046875 193.515625 L 241.714844 192.234375 L 240.4375 191.464844 L 239.410156 191.210938 L 238.382812 191.210938 L 237.871094 191.464844 L 237.101562 191.464844 L 236.078125 191.722656 L 234.796875 191.464844 L 231.71875 190.699219 L 228.644531 189.671875 L 224.800781 189.160156 L 222.496094 189.160156 L 219.929688 189.671875 L 217.367188 190.1875 L 215.316406 190.699219 L 213.78125 190.957031 L 212.753906 191.210938 L 212.242188 190.957031 L 211.984375 190.699219 L 211.730469 189.929688 L 211.730469 188.90625 Z M 210.191406 183.277344 " fill-opacity="1" fill-rule="evenodd"/><path fill="#02284d" d="M 225.058594 200.683594 L 225.570312 203.238281 L 225.3125 205.289062 L 224.800781 206.824219 L 223.261719 208.871094 L 223.003906 209.894531 L 223.003906 211.175781 L 224.03125 212.453125 L 225.058594 213.992188 L 225.570312 215.527344 L 225.570312 218.34375 L 224.800781 220.132812 L 224.542969 220.648438 L 224.289062 220.648438 L 224.542969 220.390625 L 225.058594 219.621094 L 226.59375 217.574219 L 227.621094 214.761719 L 227.363281 213.480469 L 225.824219 210.917969 L 225.3125 209.382812 L 225.824219 206.824219 L 226.59375 205.289062 L 226.851562 205.035156 L 227.105469 205.289062 L 226.851562 206.824219 L 226.851562 208.359375 L 227.105469 209.894531 L 227.875 210.664062 L 228.902344 211.6875 L 229.414062 212.199219 L 230.953125 213.222656 L 232.234375 213.992188 L 233.769531 215.269531 L 231.207031 212.199219 L 229.667969 209.382812 L 228.644531 207.078125 L 228.132812 204.777344 L 227.875 202.984375 L 227.363281 201.707031 L 226.59375 200.9375 Z M 225.058594 200.683594 " fill-opacity="1" fill-rule="evenodd"/><path fill="#02284d" d="M 239.410156 204.777344 L 240.949219 206.566406 L 241.972656 208.871094 L 242.484375 211.6875 L 242.484375 219.878906 L 242.742188 221.925781 L 243.253906 222.949219 L 243.765625 223.460938 L 243.511719 223.71875 L 242.742188 223.460938 L 241.972656 222.691406 L 241.203125 221.414062 L 240.4375 219.367188 L 240.4375 216.550781 L 240.949219 212.453125 L 241.203125 210.664062 L 241.203125 209.640625 L 240.4375 208.101562 L 239.410156 207.078125 L 238.382812 205.542969 Z M 239.410156 204.777344 " fill-opacity="1" fill-rule="evenodd"/><path fill="#02284d" d="M 188.917969 243.425781 L 189.175781 248.546875 L 188.917969 254.175781 L 187.636719 259.292969 L 186.609375 261.089844 L 185.585938 262.621094 L 187.636719 261.597656 L 188.917969 260.0625 L 189.429688 258.273438 L 189.6875 256.226562 L 189.6875 255.710938 L 189.941406 255.710938 L 189.941406 256.480469 L 190.199219 257.761719 L 189.429688 261.34375 L 188.660156 263.136719 L 187.378906 264.925781 L 189.429688 263.648438 L 190.96875 261.855469 L 191.996094 259.039062 L 192.25 257.246094 L 191.996094 254.945312 L 193.019531 256.992188 L 193.789062 258.273438 L 194.300781 259.292969 L 194.558594 260.320312 L 194.558594 260.832031 L 194.558594 260.574219 L 194.8125 259.804688 L 194.558594 258.785156 L 194.042969 255.710938 L 192.25 252.640625 L 190.457031 249.824219 L 189.429688 247.011719 L 189.175781 244.960938 L 189.175781 244.195312 Z M 188.917969 243.425781 " fill-opacity="1" fill-rule="evenodd"/><path fill="#02284d" d="M 184.046875 222.949219 L 182.511719 223.976562 L 181.230469 225.253906 L 179.433594 228.324219 L 178.667969 232.421875 L 179.179688 237.285156 L 179.691406 239.585938 L 180.460938 241.890625 L 181.484375 243.683594 L 182.253906 245.214844 L 182.765625 246.753906 L 183.023438 248.03125 L 182.765625 249.3125 L 181.742188 250.59375 L 180.972656 251.617188 L 181.230469 252.128906 L 181.996094 251.617188 L 183.023438 250.59375 L 183.792969 248.546875 L 183.792969 245.984375 L 183.535156 244.195312 L 182.765625 242.402344 L 181.742188 240.355469 L 180.460938 238.050781 L 180.203125 237.027344 L 180.203125 235.75 L 180.972656 232.933594 L 182.253906 230.117188 L 183.792969 228.070312 L 184.304688 227.554688 L 184.046875 227.554688 L 183.535156 227.8125 L 182.511719 228.324219 L 180.714844 229.859375 L 179.945312 230.886719 L 179.433594 231.90625 L 179.433594 232.675781 L 179.179688 232.421875 L 179.179688 231.652344 L 179.433594 230.371094 L 180.460938 227.042969 L 181.484375 225.507812 L 182.765625 224.230469 Z M 184.046875 222.949219 " fill-opacity="1" fill-rule="evenodd"/><path fill="#02284d" d="M 251.96875 264.414062 L 252.480469 269.535156 L 251.96875 275.167969 L 250.941406 280.285156 L 249.917969 282.074219 L 248.894531 283.613281 L 250.6875 282.585938 L 251.96875 281.050781 L 252.480469 279.261719 L 252.738281 277.210938 L 252.738281 276.699219 L 252.996094 276.699219 L 252.996094 277.46875 L 253.25 278.746094 L 252.480469 282.332031 L 251.710938 284.125 L 250.429688 285.914062 L 252.480469 284.378906 L 254.019531 282.585938 L 255.042969 280.027344 L 255.300781 278.234375 L 255.042969 275.933594 L 256.070312 277.726562 L 256.839844 279.003906 L 257.351562 280.027344 L 257.605469 281.308594 L 257.605469 281.5625 L 257.863281 281.308594 L 257.863281 279.515625 L 257.09375 276.699219 L 256.328125 275.167969 L 255.300781 273.628906 L 253.507812 270.8125 L 252.480469 268 L 252.226562 265.953125 L 252.226562 265.183594 Z M 251.96875 264.414062 " fill-opacity="1" fill-rule="evenodd"/><path fill="#02284d" d="M 213.007812 285.402344 L 212.5 287.195312 L 211.730469 288.988281 L 209.421875 292.058594 L 206.347656 294.363281 L 205.066406 294.875 L 203.527344 295.128906 L 202.757812 295.128906 L 202.757812 295.386719 L 203.78125 295.640625 L 205.066406 295.640625 L 208.140625 294.875 L 209.421875 293.851562 L 210.445312 292.3125 L 210.960938 291.035156 L 211.472656 291.035156 L 211.472656 291.546875 L 211.214844 292.824219 L 209.679688 295.898438 L 208.652344 297.175781 L 207.117188 298.203125 L 206.089844 298.714844 L 206.089844 299.222656 L 206.859375 299.222656 L 208.140625 298.714844 L 209.679688 297.433594 L 211.472656 295.386719 L 212.753906 292.3125 L 213.78125 287.960938 Z M 213.007812 285.402344 " fill-opacity="1" fill-rule="evenodd"/><path fill="#02284d" d="M 199.9375 280.027344 L 199.425781 283.097656 L 197.632812 285.914062 L 195.070312 287.960938 L 191.996094 288.988281 L 193.53125 289.753906 L 195.070312 290.011719 L 196.863281 289.242188 L 197.886719 288.476562 L 198.144531 288.21875 L 198.402344 288.476562 L 198.65625 290.011719 L 198.144531 292.058594 L 196.605469 293.851562 L 196.09375 294.363281 L 196.09375 294.617188 L 196.605469 294.617188 L 197.375 294.363281 L 198.914062 293.339844 L 200.195312 291.289062 L 200.707031 288.730469 L 200.964844 286.171875 L 200.964844 283.097656 L 200.195312 280.027344 Z M 199.9375 280.027344 " fill-opacity="1" fill-rule="evenodd"/><path fill="#02284d" d="M 222.75 259.039062 L 223.261719 260.320312 L 223.261719 262.367188 L 223.003906 264.925781 L 222.496094 267.742188 L 220.441406 273.628906 L 219.417969 276.1875 L 218.394531 277.980469 L 217.625 279.261719 L 217.367188 280.027344 L 217.625 280.027344 L 218.136719 279.515625 L 219.929688 277.726562 L 221.726562 274.910156 L 222.238281 273.882812 L 222.75 273.628906 L 222.75 274.140625 L 222.496094 275.167969 L 221.726562 276.445312 L 220.957031 278.492188 L 218.648438 282.84375 L 218.136719 283.867188 L 217.878906 284.125 L 218.136719 284.378906 L 218.648438 283.867188 L 219.164062 283.097656 L 219.929688 281.820312 L 221.726562 278.746094 L 223.519531 274.652344 L 224.800781 270.046875 L 225.058594 264.925781 L 224.800781 262.367188 L 224.03125 259.804688 Z M 222.75 259.039062 " fill-opacity="1" fill-rule="evenodd"/><path fill="#000000" d="M 258.890625 250.847656 L 259.914062 251.617188 L 260.9375 253.410156 L 261.964844 255.710938 L 262.734375 258.527344 L 264.015625 264.671875 L 264.269531 267.230469 L 264.269531 271.582031 L 264.527344 271.582031 L 264.785156 271.070312 L 265.296875 268.507812 L 265.550781 265.183594 L 265.550781 263.902344 L 265.808594 263.390625 L 266.066406 263.902344 L 266.320312 264.925781 L 266.578125 266.460938 L 266.835938 268.507812 L 266.835938 275.167969 L 267.089844 274.910156 L 267.347656 274.398438 L 267.601562 272.09375 L 267.601562 268.507812 L 267.089844 264.15625 L 265.808594 259.292969 L 263.757812 254.945312 L 262.222656 252.640625 L 260.425781 250.847656 Z M 258.890625 250.847656 " fill-opacity="1" fill-rule="evenodd"/><path fill="#003366" d="M 123.816406 132.085938 L 123.046875 135.925781 L 123.046875 139.507812 L 123.816406 143.089844 L 124.839844 146.675781 L 127.660156 152.816406 L 129.199219 155.375 L 131.503906 159.984375 L 133.042969 161.519531 L 134.835938 162.800781 L 138.425781 163.824219 L 140.476562 163.566406 L 142.015625 163.3125 L 143.550781 162.542969 L 144.578125 161.773438 L 144.835938 161.007812 L 144.578125 160.238281 L 143.808594 159.472656 L 139.195312 156.914062 L 138.425781 156.402344 L 138.425781 155.632812 L 138.9375 153.839844 L 139.964844 151.792969 L 140.21875 150.511719 L 139.964844 149.488281 L 139.195312 148.464844 L 138.171875 147.953125 L 135.605469 147.183594 L 132.273438 146.675781 L 128.941406 145.394531 L 127.660156 144.113281 L 126.636719 142.835938 L 125.609375 139.761719 L 125.097656 136.433594 L 125.097656 133.363281 Z M 123.816406 132.085938 " fill-opacity="1" fill-rule="evenodd"/><path fill="#02284d" d="M 125.097656 144.625 L 128.175781 151.023438 L 130.222656 153.839844 L 132.019531 156.402344 L 133.8125 158.191406 L 135.605469 159.472656 L 136.886719 159.472656 L 137.65625 158.703125 L 137.914062 157.679688 L 137.65625 156.914062 L 136.886719 156.402344 L 135.605469 155.886719 L 133.8125 154.867188 L 131.761719 153.328125 L 129.457031 150.511719 L 127.917969 148.722656 L 126.636719 146.675781 Z M 125.097656 144.625 " fill-opacity="1" fill-rule="evenodd"/></svg>